<?xml version="1.0" encoding="UTF-8" ?>
<!DOCTYPE svg PUBLIC "-//W3C//DTD SVG 1.1//EN" "http://www.w3.org/Graphics/SVG/1.1/DTD/svg11.dtd">
<svg width="500pt" height="500pt" viewBox="0 0 500 500" version="1.1" xmlns="http://www.w3.org/2000/svg">
<g id="#ffffffff">
<path fill="#ffffff" opacity="1.00" d=" M 0.00 0.00 L 500.00 0.00 L 500.00 470.02 C 490.01 469.98 480.01 469.93 470.02 470.02 C 469.92 480.01 469.99 490.01 470.01 500.00 L 0.00 500.00 L 0.00 0.00 M 395.01 30.86 C 388.64 30.66 382.37 32.29 375.99 31.91 C 368.96 31.51 362.01 33.01 354.99 32.98 C 347.94 32.92 341.07 34.84 334.03 34.83 C 329.93 34.93 325.57 34.56 321.88 36.71 C 314.91 36.77 307.91 37.03 301.01 38.04 C 294.19 38.99 287.27 38.60 280.45 39.52 C 274.91 40.24 269.25 39.58 263.77 40.83 C 257.58 42.27 251.21 41.41 244.94 41.97 C 240.51 42.30 236.15 43.39 231.68 43.38 C 223.10 43.02 214.55 44.16 205.96 44.19 C 200.65 44.98 195.03 44.42 189.94 46.35 C 189.57 46.49 188.83 46.77 188.46 46.91 C 178.28 47.05 168.09 47.37 157.98 48.53 C 153.93 49.09 149.44 48.47 145.80 50.58 C 141.41 50.61 137.14 51.89 132.73 51.82 C 124.86 51.00 116.90 52.11 108.99 52.02 C 102.57 51.78 96.37 53.82 89.96 53.76 C 84.02 53.56 77.78 57.68 76.70 63.72 C 75.61 69.23 75.00 74.88 75.44 80.49 C 75.19 81.69 74.25 83.30 75.43 84.30 C 74.48 88.72 75.00 93.27 74.31 97.72 C 72.59 106.14 73.05 114.82 73.20 123.36 C 72.05 130.09 71.59 136.95 71.89 143.76 C 70.73 149.13 71.61 154.63 71.09 160.05 C 70.54 166.36 69.88 172.66 69.96 179.00 C 69.88 195.65 69.20 212.37 70.82 228.98 C 71.65 259.96 71.21 290.96 71.39 321.95 C 71.80 332.29 71.96 342.65 72.10 353.00 C 72.04 356.08 72.19 359.18 72.88 362.20 C 73.12 381.49 73.47 400.80 73.31 420.10 C 73.17 423.57 74.59 426.81 76.20 429.80 C 77.65 432.50 79.52 435.49 82.75 436.18 C 88.13 437.31 93.72 436.83 99.11 437.98 C 104.57 439.12 110.26 438.71 115.65 440.24 C 120.91 441.69 126.41 441.49 131.78 442.28 C 138.59 443.02 145.44 444.66 152.31 443.63 C 157.19 444.30 162.18 444.07 166.95 445.43 C 171.38 445.63 175.80 445.80 180.18 446.61 C 179.56 446.70 178.33 446.86 177.71 446.95 C 183.73 448.31 189.92 448.70 196.06 449.11 C 199.40 449.36 202.54 450.86 205.93 450.67 C 213.67 450.39 221.29 451.98 228.96 452.79 C 237.21 454.08 245.59 453.92 253.90 454.51 C 257.96 454.94 261.90 456.13 266.00 456.27 C 278.27 456.94 290.45 460.08 302.77 458.94 C 305.81 461.83 310.30 460.41 314.05 460.97 C 319.37 461.58 324.65 462.49 330.03 462.54 C 343.99 465.31 358.22 465.92 372.33 467.81 C 383.10 469.98 394.31 468.13 404.94 471.17 C 410.60 471.17 417.20 472.85 422.15 469.34 C 423.31 468.97 424.24 468.15 425.24 467.47 C 439.24 462.47 452.72 456.11 466.55 450.65 C 466.66 450.36 466.89 449.80 467.00 449.51 C 470.16 449.02 473.75 447.11 474.95 444.04 C 477.80 442.86 477.43 439.58 477.52 437.05 C 477.43 345.37 477.35 253.68 477.27 162.00 C 477.09 138.33 477.54 114.65 476.79 91.00 C 476.78 78.63 476.79 66.27 476.74 53.90 C 476.85 52.06 476.26 50.33 475.19 48.85 L 475.24 47.99 C 473.89 43.46 469.34 41.18 465.22 39.70 C 460.56 36.83 454.99 36.26 449.75 35.15 C 440.61 33.72 431.61 31.56 422.62 29.39 C 413.36 27.26 404.28 31.34 395.01 30.86 Z" />
<path fill="#ffffff" opacity="1.00" d=" M 472.84 490.01 C 473.37 483.82 480.02 480.62 485.56 480.30 C 483.68 482.82 480.05 482.66 477.79 484.72 C 475.98 486.32 474.53 488.28 472.84 490.01 Z" />
<path fill="#ffffff" opacity="1.00" d=" M 475.65 491.09 C 476.28 486.50 481.00 483.54 485.43 483.85 C 481.89 485.88 478.46 488.10 475.65 491.09 Z" />
<path fill="#ffffff" opacity="1.00" d=" M 481.57 495.33 C 480.16 492.08 483.53 488.81 486.77 490.14 C 488.72 490.33 488.56 492.51 489.10 493.92 C 487.09 494.28 485.08 494.64 483.09 495.07 C 484.94 495.65 486.81 496.17 488.67 496.77 C 486.46 498.01 482.61 498.51 481.57 495.33 M 485.01 491.25 C 483.31 491.57 484.44 493.84 485.83 493.22 C 487.52 492.91 486.35 490.65 485.01 491.25 Z" />
<path fill="#ffffff" opacity="1.00" d=" M 490.07 490.74 C 492.70 489.81 495.50 490.02 498.22 490.29 C 496.89 492.21 495.37 493.98 493.84 495.73 C 495.33 495.98 496.82 496.25 498.31 496.55 C 495.86 498.38 492.72 497.42 489.95 497.24 C 491.30 495.51 492.73 493.86 494.20 492.24 C 492.81 491.76 491.43 491.26 490.07 490.74 Z" />
</g>
<g id="#f5f5f5ff">
<path fill="#f5f5f5" opacity="1.00" d=" M 395.01 30.86 C 404.28 31.34 413.36 27.26 422.62 29.39 C 431.61 31.56 440.61 33.72 449.75 35.15 C 454.99 36.26 460.56 36.83 465.22 39.70 C 464.42 39.75 462.81 39.85 462.01 39.90 C 462.33 42.23 462.67 44.57 462.99 46.92 C 452.90 45.20 443.09 41.81 432.84 41.09 C 429.66 40.41 429.10 44.16 428.63 46.42 C 427.46 55.90 428.01 65.47 427.79 74.99 C 425.81 80.23 425.80 85.87 425.53 91.39 C 423.65 92.28 421.79 93.20 419.94 94.13 C 418.26 93.08 416.62 91.89 414.72 91.26 C 410.95 90.87 407.18 92.29 403.43 91.63 C 400.71 90.79 401.91 87.64 401.80 85.56 C 397.26 89.10 391.31 87.80 386.00 87.97 C 382.11 87.88 378.15 88.37 374.31 87.58 C 371.23 86.29 369.15 83.44 366.13 82.05 C 364.45 81.86 362.78 82.20 361.12 82.39 C 359.95 81.31 358.79 80.22 357.64 79.14 C 354.36 79.16 351.09 79.11 347.82 78.97 C 347.59 77.38 347.37 75.80 347.15 74.22 C 343.85 75.24 340.55 76.31 337.46 77.88 C 337.83 74.30 338.10 70.72 338.48 67.14 C 337.46 66.96 336.44 66.79 335.42 66.63 C 331.94 66.16 328.41 66.26 324.93 66.56 C 323.05 66.73 321.18 66.95 319.31 67.17 C 313.12 66.89 306.94 67.14 300.75 67.10 C 298.13 67.01 295.44 67.10 292.93 66.22 C 290.83 65.22 289.27 63.41 287.58 61.86 C 285.81 63.04 284.03 64.21 282.24 65.37 C 280.43 63.35 278.78 60.92 276.12 59.98 C 272.56 58.65 268.79 57.69 265.69 55.40 C 262.66 53.42 260.32 50.38 256.93 49.01 C 251.18 48.08 245.15 49.14 239.63 46.83 C 245.33 44.46 251.59 45.28 257.58 44.60 C 263.05 44.03 268.51 43.37 274.00 42.96 C 282.35 42.33 290.58 40.47 298.97 40.17 C 307.35 39.72 315.88 39.74 324.05 37.56 C 323.51 37.35 322.43 36.92 321.88 36.71 C 325.57 34.56 329.93 34.93 334.03 34.83 C 341.07 34.84 347.94 32.92 354.99 32.98 C 362.01 33.01 368.96 31.51 375.99 31.91 C 382.37 32.29 388.64 30.66 395.01 30.86 Z" />
</g>
<g id="#eaeaeaff">
<path fill="#eaeaea" opacity="1.00" d=" M 301.01 38.04 C 307.91 37.03 314.91 36.77 321.88 36.71 C 322.43 36.92 323.51 37.35 324.05 37.56 C 315.88 39.74 307.35 39.72 298.97 40.17 C 290.58 40.47 282.35 42.33 274.00 42.96 C 268.51 43.37 263.05 44.03 257.58 44.60 C 251.59 45.28 245.33 44.46 239.63 46.83 C 245.15 49.14 251.18 48.08 256.93 49.01 C 260.32 50.38 262.66 53.42 265.69 55.40 C 268.79 57.69 272.56 58.65 276.12 59.98 C 278.78 60.92 280.43 63.35 282.24 65.37 C 284.03 64.21 285.81 63.04 287.58 61.86 C 289.27 63.41 290.83 65.22 292.93 66.22 C 295.44 67.10 298.13 67.01 300.75 67.10 C 298.75 77.50 296.88 88.39 298.86 98.93 C 299.08 99.87 299.32 100.81 299.57 101.75 C 296.13 100.94 292.57 100.44 289.06 101.09 C 283.89 102.00 278.63 101.97 273.43 102.59 C 273.13 100.79 272.84 99.00 272.55 97.21 C 271.01 97.59 269.47 97.98 267.94 98.37 C 267.29 97.01 266.65 95.66 266.01 94.30 C 262.52 94.49 258.97 95.06 255.50 94.40 C 251.52 93.18 248.69 89.89 245.05 88.03 C 242.15 87.04 238.85 87.53 236.17 85.86 C 233.38 84.22 230.29 83.29 227.15 82.65 C 223.87 82.32 222.50 78.96 220.06 77.24 C 218.16 76.56 216.08 76.46 214.24 75.63 C 211.74 74.31 209.77 71.64 206.70 71.73 C 203.60 71.24 200.10 72.09 197.27 70.48 C 195.78 68.05 195.03 65.26 194.04 62.60 C 193.24 65.12 192.41 67.63 191.51 70.12 C 187.86 63.23 189.35 54.88 191.45 47.74 C 191.07 47.39 190.32 46.70 189.94 46.35 C 195.03 44.42 200.65 44.98 205.96 44.19 C 214.55 44.16 223.10 43.02 231.68 43.38 C 236.15 43.39 240.51 42.30 244.94 41.97 C 251.21 41.41 257.58 42.27 263.77 40.83 C 269.25 39.58 274.91 40.24 280.45 39.52 C 287.27 38.60 294.19 38.99 301.01 38.04 Z" />
</g>
<g id="#cacacaff">
<path fill="#cacaca" opacity="1.00" d=" M 462.01 39.90 C 462.81 39.85 464.42 39.75 465.22 39.70 C 469.34 41.18 473.89 43.46 475.24 47.99 C 471.96 45.35 468.54 42.77 464.41 41.65 C 464.79 42.64 465.18 43.62 465.58 44.60 C 465.75 46.63 465.86 48.66 466.01 50.69 C 454.26 48.02 442.33 46.37 430.48 44.29 C 429.41 54.51 430.57 64.98 427.79 74.99 C 428.01 65.47 427.46 55.90 428.63 46.42 C 429.10 44.16 429.66 40.41 432.84 41.09 C 443.09 41.81 452.90 45.20 462.99 46.92 C 462.67 44.57 462.33 42.23 462.01 39.90 Z" />
</g>
<g id="#454545ff">
<path fill="#454545" opacity="1.00" d=" M 464.41 41.65 C 468.54 42.77 471.96 45.35 475.24 47.99 L 475.19 48.85 C 475.16 49.57 475.09 50.99 475.05 51.71 C 473.42 51.48 471.80 51.25 470.18 51.02 C 469.60 56.66 469.55 62.33 469.71 68.00 C 469.94 76.01 468.92 83.99 468.94 92.00 C 468.68 109.66 469.47 127.32 469.20 144.99 C 469.11 152.90 468.80 160.82 469.29 168.73 C 470.00 178.81 469.55 188.92 469.66 199.01 C 469.67 278.37 469.64 357.73 469.72 437.09 C 469.60 439.21 468.92 441.25 468.36 443.29 L 468.34 442.30 C 467.97 414.87 468.20 387.43 468.14 360.00 C 467.40 311.67 468.00 263.33 467.73 215.00 C 467.80 159.99 467.68 104.97 467.65 49.96 C 467.60 47.98 466.40 46.33 465.58 44.60 C 465.18 43.62 464.79 42.64 464.41 41.65 Z" />
</g>
<g id="#a5a5a5ff">
<path fill="#a5a5a5" opacity="1.00" d=" M 430.48 44.29 C 442.33 46.37 454.26 48.02 466.01 50.69 C 465.86 48.66 465.75 46.63 465.58 44.60 C 466.40 46.33 467.60 47.98 467.65 49.96 C 467.68 104.97 467.80 159.99 467.73 215.00 C 468.00 263.33 467.40 311.67 468.14 360.00 C 468.20 387.43 467.97 414.87 468.34 442.30 C 459.86 445.31 451.83 449.48 443.22 452.14 C 437.09 454.08 431.35 457.03 425.38 459.37 C 424.98 450.69 425.73 441.97 424.84 433.31 C 425.12 428.20 425.33 423.09 425.14 417.98 C 424.73 399.09 425.73 380.16 424.82 361.29 C 425.43 351.20 425.09 341.10 425.14 331.00 C 424.92 296.67 425.00 262.33 425.04 228.00 C 424.66 217.24 425.57 206.49 424.84 195.74 C 425.16 186.46 425.13 177.18 425.11 167.89 C 425.22 155.40 425.72 142.88 425.06 130.39 C 425.66 124.41 425.12 118.40 425.44 112.42 C 425.81 114.34 426.21 116.26 426.56 118.19 C 426.71 111.50 426.39 104.79 427.08 98.11 C 427.87 90.43 427.58 82.70 427.79 74.99 C 430.57 64.98 429.41 54.51 430.48 44.29 Z" />
</g>
<g id="#b5b5b5ff">
<path fill="#b5b5b5" opacity="1.00" d=" M 157.98 48.53 C 168.09 47.37 178.28 47.05 188.46 46.91 C 188.17 49.63 187.94 52.37 187.78 55.10 C 187.63 53.29 187.38 51.48 187.16 49.67 C 183.77 49.51 180.38 49.38 177.00 49.66 C 166.65 50.90 156.20 50.66 145.80 50.58 C 149.44 48.47 153.93 49.09 157.98 48.53 Z" />
<path fill="#b5b5b5" opacity="1.00" d=" M 111.35 219.28 C 112.22 212.11 111.60 204.85 112.74 197.71 C 113.09 204.21 113.19 210.73 113.13 217.24 C 112.72 228.82 113.07 240.42 113.01 252.00 C 113.34 265.20 112.91 278.40 113.33 291.59 C 113.22 292.09 113.00 293.09 112.89 293.59 C 110.40 300.97 112.58 308.83 110.68 316.32 C 107.29 316.57 104.08 317.65 100.85 318.61 C 99.05 319.20 97.28 317.90 96.19 316.58 C 95.66 310.36 101.85 303.11 96.30 297.76 C 93.06 297.22 89.76 297.67 86.50 297.77 C 86.29 293.40 85.69 289.05 84.59 284.81 C 81.17 284.59 76.32 284.01 75.77 279.77 C 75.45 272.20 75.23 264.61 74.78 257.05 C 74.30 251.69 72.77 246.44 73.01 241.02 C 73.24 236.23 73.13 231.41 72.11 226.70 C 71.70 221.01 71.89 215.31 71.94 209.62 C 74.80 212.42 74.54 216.64 76.14 220.01 C 78.07 221.02 80.60 219.46 82.70 219.16 C 84.65 222.68 87.21 225.81 90.32 228.37 C 90.29 231.40 90.27 234.43 90.31 237.45 C 92.23 237.49 94.16 237.51 96.08 237.54 C 97.20 241.86 97.04 246.34 96.61 250.74 C 99.93 252.47 103.62 253.01 107.30 252.47 C 108.93 247.79 110.82 243.08 110.98 238.06 C 111.21 231.80 110.61 225.52 111.35 219.28 Z" />
</g>
<g id="#e2e2e2ff">
<path fill="#e2e2e2" opacity="1.00" d=" M 188.46 46.91 C 188.83 46.77 189.57 46.49 189.94 46.35 C 190.32 46.70 191.07 47.39 191.45 47.74 C 189.35 54.88 187.86 63.23 191.51 70.12 C 192.41 67.63 193.24 65.12 194.04 62.60 C 195.03 65.26 195.78 68.05 197.27 70.48 C 200.10 72.09 203.60 71.24 206.70 71.73 C 209.77 71.64 211.74 74.31 214.24 75.63 C 216.08 76.46 218.16 76.56 220.06 77.24 C 222.50 78.96 223.87 82.32 227.15 82.65 C 230.29 83.29 233.38 84.22 236.17 85.86 C 238.85 87.53 242.15 87.04 245.05 88.03 C 248.69 89.89 251.52 93.18 255.50 94.40 C 258.97 95.06 262.52 94.49 266.01 94.30 C 266.65 95.66 267.29 97.01 267.94 98.37 C 269.47 97.98 271.01 97.59 272.55 97.21 C 272.84 99.00 273.13 100.79 273.43 102.59 C 278.63 101.97 283.89 102.00 289.06 101.09 C 292.57 100.44 296.13 100.94 299.57 101.75 C 299.32 100.81 299.08 99.87 298.86 98.93 C 302.44 98.76 306.04 98.78 309.63 98.91 C 310.57 100.05 311.52 101.18 312.48 102.31 C 312.82 104.91 313.28 107.49 313.81 110.06 C 315.07 109.07 316.32 108.08 317.58 107.09 C 323.73 111.00 331.54 109.74 338.27 108.25 C 341.50 107.31 344.65 109.78 347.87 108.67 C 350.69 107.67 353.65 108.15 356.46 108.92 C 356.70 106.58 356.96 104.24 357.21 101.89 C 359.47 104.36 361.03 108.29 364.88 108.46 C 369.41 109.61 373.31 106.51 377.52 105.54 C 378.86 105.18 380.42 105.52 381.33 106.63 C 383.57 109.15 385.18 112.15 387.01 114.97 C 391.21 113.94 395.90 112.99 399.91 115.21 C 404.98 117.67 408.99 123.98 415.37 121.71 C 416.02 118.85 416.70 116.00 417.39 113.15 C 419.53 116.21 422.45 119.09 422.80 123.01 C 423.13 125.58 423.95 128.05 425.06 130.39 C 425.72 142.88 425.22 155.40 425.11 167.89 C 424.28 169.26 423.40 170.60 422.52 171.93 C 421.73 169.02 420.98 166.10 420.28 163.17 C 414.49 163.46 410.74 168.18 406.26 171.18 C 405.54 166.95 404.26 162.78 401.62 159.33 C 396.85 160.62 392.15 162.76 387.14 162.75 C 382.86 161.74 380.48 157.26 376.41 155.74 C 372.26 155.83 368.22 157.63 364.02 156.89 C 358.48 156.07 352.89 156.17 347.35 156.88 C 346.37 155.51 345.70 153.95 344.66 152.63 C 341.85 155.27 338.80 157.63 335.55 159.71 C 335.28 161.04 335.01 162.38 334.75 163.72 C 335.84 162.58 336.94 161.44 338.04 160.29 C 339.30 162.25 340.60 164.19 341.91 166.12 C 341.56 167.48 341.23 168.85 340.89 170.21 C 341.94 171.29 342.98 172.37 344.03 173.46 C 344.95 173.06 345.89 172.66 346.82 172.26 C 345.34 175.72 343.71 179.11 341.78 182.35 C 339.33 174.98 336.10 167.16 329.44 162.62 C 326.64 160.83 323.58 159.48 320.43 158.45 C 315.36 156.09 309.90 157.80 304.81 159.09 C 302.76 159.42 300.69 159.55 298.63 159.69 C 300.10 157.00 301.66 154.34 303.69 152.02 C 303.35 150.69 303.02 149.36 302.69 148.04 C 303.34 146.42 304.23 144.85 304.41 143.09 C 303.77 139.04 301.61 135.27 298.35 132.75 C 297.20 134.00 296.04 135.24 294.89 136.48 C 291.60 135.83 288.27 135.51 284.96 135.04 C 281.20 134.49 277.82 132.54 274.04 132.04 C 271.75 131.50 269.07 131.70 267.17 130.11 C 266.46 128.33 266.40 126.39 266.17 124.51 C 261.18 123.03 256.09 121.22 250.80 121.74 C 246.32 121.91 241.07 123.13 237.26 120.08 C 236.33 117.81 236.43 115.08 234.91 113.10 C 232.38 111.57 229.21 111.68 226.55 110.41 C 222.54 108.74 218.44 105.47 213.86 106.89 C 209.69 108.30 205.64 110.67 201.05 109.81 C 201.09 108.67 201.18 107.53 201.33 106.39 C 203.06 105.13 205.21 104.65 207.20 103.90 C 201.27 100.04 194.34 98.37 187.49 97.10 C 187.24 90.65 187.32 84.19 187.08 77.74 C 187.66 70.76 187.99 63.75 187.83 56.74 C 187.82 56.33 187.79 55.51 187.78 55.10 C 187.94 52.37 188.17 49.63 188.46 46.91 M 287.26 104.36 C 284.19 105.12 281.07 105.84 277.88 105.40 C 277.62 107.76 277.62 110.17 278.39 112.45 C 279.36 111.72 280.34 111.00 281.32 110.28 C 286.66 112.94 292.60 112.18 298.23 111.08 C 302.01 110.05 306.13 112.71 309.65 110.67 C 311.20 107.82 310.48 104.26 307.91 102.28 C 301.31 104.86 294.10 103.39 287.26 104.36 Z" />
</g>
<g id="#727272ff">
<path fill="#727272" opacity="1.00" d=" M 475.19 48.85 C 476.26 50.33 476.85 52.06 476.74 53.90 C 476.79 66.27 476.78 78.63 476.79 91.00 C 477.54 114.65 477.09 138.33 477.27 162.00 C 477.35 253.68 477.43 345.37 477.52 437.05 C 477.43 439.58 477.80 442.86 474.95 444.04 C 475.83 435.72 475.36 427.35 475.45 419.00 C 475.32 296.57 475.51 174.14 475.05 51.71 C 475.09 50.99 475.16 49.57 475.19 48.85 Z" />
</g>
<g id="#3e3e3eff">
<path fill="#3e3e3e" opacity="1.00" d=" M 132.73 51.82 C 137.14 51.89 141.41 50.61 145.80 50.58 C 156.20 50.66 166.65 50.90 177.00 49.66 C 180.38 49.38 183.77 49.51 187.16 49.67 C 187.38 51.48 187.63 53.29 187.78 55.10 C 187.79 55.51 187.82 56.33 187.83 56.74 C 187.16 56.70 185.83 56.61 185.16 56.57 C 163.27 56.14 141.58 60.37 119.68 59.53 C 119.45 57.76 119.23 56.00 119.00 54.23 C 123.91 53.15 128.96 53.44 133.96 53.20 C 133.65 52.86 133.04 52.17 132.73 51.82 Z" />
</g>
<g id="#262626ff">
<path fill="#262626" opacity="1.00" d=" M 470.18 51.02 C 471.80 51.25 473.42 51.48 475.05 51.71 C 475.51 174.14 475.32 296.57 475.45 419.00 C 475.36 427.35 475.83 435.72 474.95 444.04 C 473.75 447.11 470.16 449.02 467.00 449.51 C 467.39 447.69 467.73 445.87 468.16 444.07 L 468.36 443.29 C 468.92 441.25 469.60 439.21 469.72 437.09 C 469.64 357.73 469.67 278.37 469.66 199.01 C 469.55 188.92 470.00 178.81 469.29 168.73 C 468.80 160.82 469.11 152.90 469.20 144.99 C 469.47 127.32 468.68 109.66 468.94 92.00 C 468.92 83.99 469.94 76.01 469.71 68.00 C 469.55 62.33 469.60 56.66 470.18 51.02 Z" />
</g>
<g id="#dcdcdcff">
<path fill="#dcdcdc" opacity="1.00" d=" M 89.96 53.76 C 96.37 53.82 102.57 51.78 108.99 52.02 C 116.90 52.11 124.86 51.00 132.73 51.82 C 133.04 52.17 133.65 52.86 133.96 53.20 C 128.96 53.44 123.91 53.15 119.00 54.23 C 118.71 56.53 118.43 58.83 118.18 61.14 C 120.60 61.79 122.97 62.59 125.34 63.43 C 123.22 63.53 121.10 63.61 118.98 63.57 C 118.07 63.55 117.17 63.51 116.27 63.47 C 115.28 68.76 113.80 74.00 113.68 79.41 C 113.60 82.66 113.27 85.89 112.68 89.09 C 111.38 86.05 110.29 82.92 109.28 79.77 C 104.53 78.85 99.60 77.50 96.58 73.40 C 94.20 73.53 91.76 74.03 89.39 73.50 C 86.58 72.49 84.17 70.57 81.29 69.72 C 80.09 69.49 78.32 69.06 77.72 70.51 C 76.99 73.84 76.63 77.27 75.44 80.49 C 75.00 74.88 75.61 69.23 76.70 63.72 C 77.78 57.68 84.02 53.56 89.96 53.76 Z" />
</g>
<g id="#bfbfbfff">
<path fill="#bfbfbf" opacity="1.00" d=" M 118.18 61.14 C 118.43 58.83 118.71 56.53 119.00 54.23 C 119.23 56.00 119.45 57.76 119.68 59.53 C 141.58 60.37 163.27 56.14 185.16 56.57 C 185.09 58.06 185.01 59.55 184.92 61.05 C 173.23 61.62 161.53 62.24 149.82 62.21 C 141.69 62.99 133.52 64.90 125.34 63.43 C 122.97 62.59 120.60 61.79 118.18 61.14 Z" />
</g>
<g id="#a6a6a6ff">
<path fill="#a6a6a6" opacity="1.00" d=" M 185.16 56.57 C 185.83 56.61 187.16 56.70 187.83 56.74 C 187.99 63.75 187.66 70.76 187.08 77.74 C 185.40 83.87 185.35 90.22 185.00 96.51 C 180.86 104.56 182.28 113.95 181.67 122.68 C 180.30 128.17 179.98 133.84 180.44 139.47 C 177.15 142.36 174.09 145.51 171.29 148.88 C 169.54 145.44 166.98 142.47 163.44 140.82 C 164.63 139.68 165.80 138.55 166.98 137.41 C 164.76 135.75 162.54 133.64 159.61 133.54 C 156.59 133.48 153.66 134.57 150.64 134.36 C 148.21 133.65 146.55 131.57 144.71 129.96 C 142.41 130.23 140.13 130.55 137.84 130.90 C 137.05 128.06 136.17 124.98 133.37 123.49 C 131.73 125.25 130.08 127.00 128.43 128.74 C 127.23 126.98 126.03 125.23 124.82 123.49 C 120.75 133.91 120.82 145.26 119.21 156.19 C 118.56 165.15 114.29 173.32 113.32 182.24 C 113.26 178.39 112.87 174.56 112.77 170.71 C 113.30 163.31 113.66 155.88 113.15 148.47 C 114.45 140.86 114.22 133.12 115.19 125.48 C 117.26 121.97 117.39 117.90 117.16 113.95 C 117.66 115.27 118.16 116.58 118.67 117.90 C 120.66 108.02 122.09 98.03 123.01 87.99 C 123.46 82.41 125.27 77.02 125.43 71.40 C 125.52 69.21 125.99 67.07 126.64 64.98 C 127.90 65.95 129.16 66.93 130.42 67.90 C 132.02 67.27 133.59 66.01 135.40 66.32 C 137.11 68.37 137.78 71.53 140.26 72.78 C 148.31 74.78 156.74 75.16 164.97 74.17 C 169.71 73.58 174.52 75.12 179.20 74.17 C 184.26 71.97 184.60 65.80 184.92 61.05 C 185.01 59.55 185.09 58.06 185.16 56.57 Z" />
<path fill="#a6a6a6" opacity="1.00" d=" M 300.75 67.10 C 306.94 67.14 313.12 66.89 319.31 67.17 C 316.82 67.77 314.35 68.44 311.86 69.02 C 312.09 70.76 312.30 72.51 312.35 74.27 L 312.03 73.50 C 311.48 72.39 310.91 71.29 310.33 70.20 C 307.68 70.68 305.04 71.24 302.41 71.86 C 301.88 76.24 302.43 80.61 302.60 84.98 C 302.56 86.23 302.51 87.48 302.45 88.74 C 305.46 88.52 308.48 87.99 311.24 86.70 L 311.66 86.52 C 311.52 89.96 311.26 93.40 311.16 96.84 C 311.46 97.02 312.04 97.38 312.33 97.56 C 311.42 98.00 310.52 98.45 309.63 98.91 C 306.04 98.78 302.44 98.76 298.86 98.93 C 296.88 88.39 298.75 77.50 300.75 67.10 M 301.74 94.98 C 304.45 95.04 307.15 94.95 309.86 94.80 C 309.97 94.04 310.18 92.51 310.29 91.74 C 307.49 89.66 301.54 90.95 301.74 94.98 Z" />
</g>
<g id="#b0b0b0ff">
<path fill="#b0b0b0" opacity="1.00" d=" M 149.82 62.21 C 161.53 62.24 173.23 61.62 184.92 61.05 C 184.60 65.80 184.26 71.97 179.20 74.17 C 174.52 75.12 169.71 73.58 164.97 74.17 C 156.74 75.16 148.31 74.78 140.26 72.78 C 137.78 71.53 137.11 68.37 135.40 66.32 C 133.59 66.01 132.02 67.27 130.42 67.90 C 129.16 66.93 127.90 65.95 126.64 64.98 C 125.99 67.07 125.52 69.21 125.43 71.40 C 125.27 77.02 123.46 82.41 123.01 87.99 C 122.09 98.03 120.66 108.02 118.67 117.90 C 118.16 116.58 117.66 115.27 117.16 113.95 C 117.39 117.90 117.26 121.97 115.19 125.48 C 115.00 119.89 114.85 114.29 114.82 108.70 C 114.98 105.76 114.99 102.81 114.94 99.86 C 119.80 93.64 121.64 85.83 122.16 78.09 C 122.71 73.12 122.63 67.85 125.34 63.43 C 133.52 64.90 141.69 62.99 149.82 62.21 Z" />
</g>
<g id="#d6d6d6ff">
<path fill="#d6d6d6" opacity="1.00" d=" M 116.27 63.47 C 117.17 63.51 118.07 63.55 118.98 63.57 C 116.79 70.58 117.14 77.98 116.18 85.18 C 115.53 90.05 115.29 94.96 114.94 99.86 C 113.65 102.59 112.10 105.17 110.57 107.77 C 108.08 106.41 105.37 105.49 102.56 105.06 C 100.94 102.85 99.44 100.50 97.47 98.57 C 95.21 98.36 93.00 99.13 90.77 99.38 C 87.66 99.91 84.55 99.15 81.49 98.64 C 80.60 93.46 79.91 87.74 75.43 84.30 C 74.25 83.30 75.19 81.69 75.44 80.49 C 76.63 77.27 76.99 73.84 77.72 70.51 C 78.32 69.06 80.09 69.49 81.29 69.72 C 84.17 70.57 86.58 72.49 89.39 73.50 C 91.76 74.03 94.20 73.53 96.58 73.40 C 99.60 77.50 104.53 78.85 109.28 79.77 C 110.29 82.92 111.38 86.05 112.68 89.09 C 113.27 85.89 113.60 82.66 113.68 79.41 C 113.80 74.00 115.28 68.76 116.27 63.47 Z" />
</g>
<g id="#bdbdbdff">
<path fill="#bdbdbd" opacity="1.00" d=" M 116.18 85.18 C 117.14 77.98 116.79 70.58 118.98 63.57 C 121.10 63.61 123.22 63.53 125.34 63.43 C 122.63 67.85 122.71 73.12 122.16 78.09 C 121.64 85.83 119.80 93.64 114.94 99.86 C 115.29 94.96 115.53 90.05 116.18 85.18 Z" />
<path fill="#bdbdbd" opacity="1.00" d=" M 287.26 104.36 C 294.10 103.39 301.31 104.86 307.91 102.28 C 310.48 104.26 311.20 107.82 309.65 110.67 C 306.13 112.71 302.01 110.05 298.23 111.08 C 292.60 112.18 286.66 112.94 281.32 110.28 C 280.34 111.00 279.36 111.72 278.39 112.45 C 277.62 110.17 277.62 107.76 277.88 105.40 C 281.07 105.84 284.19 105.12 287.26 104.36 Z" />
<path fill="#bdbdbd" opacity="1.00" d=" M 304.81 159.09 C 309.90 157.80 315.36 156.09 320.43 158.45 C 316.84 158.51 313.26 158.86 309.70 159.30 C 312.50 160.22 315.34 161.06 318.22 161.71 C 313.92 161.69 309.61 161.84 305.31 161.84 C 305.19 161.15 304.94 159.78 304.81 159.09 Z" />
<path fill="#bdbdbd" opacity="1.00" d=" M 179.91 189.30 C 181.07 189.41 182.22 189.56 183.37 189.73 C 183.65 190.80 183.93 191.87 184.23 192.94 C 184.45 203.23 183.62 213.59 185.17 223.82 C 186.29 233.03 186.81 242.32 188.37 251.48 C 190.37 252.32 192.49 253.00 194.25 254.31 C 196.48 260.10 192.60 266.49 194.67 272.27 C 198.17 275.10 203.33 274.39 207.17 276.67 C 207.61 278.52 206.54 280.41 206.37 282.27 C 205.68 284.93 206.72 287.59 207.38 290.15 C 206.57 291.64 205.76 293.11 204.95 294.60 C 207.08 295.37 209.29 295.87 211.54 296.16 C 212.47 293.45 213.45 290.76 214.45 288.08 C 216.20 288.14 217.95 288.21 219.71 288.29 C 219.84 290.45 220.11 292.62 219.88 294.78 C 219.26 298.64 213.34 299.66 213.91 303.89 C 214.12 306.53 217.22 306.69 219.09 307.64 C 223.69 309.12 225.97 313.73 228.46 317.48 C 232.30 317.34 236.15 317.67 239.90 318.56 C 239.81 316.40 239.73 314.25 239.64 312.09 C 240.02 311.72 240.80 310.99 241.19 310.62 C 244.00 312.73 244.32 316.05 243.70 319.28 C 241.60 319.74 239.50 320.22 237.40 320.69 C 236.97 324.84 235.93 329.71 238.75 333.27 C 241.30 334.96 244.43 333.70 247.12 333.09 C 249.88 332.19 252.80 332.10 255.68 332.28 C 252.64 335.44 252.53 339.72 253.10 343.82 C 254.86 344.46 256.61 345.18 258.44 345.66 C 262.06 346.76 265.71 343.11 269.16 344.71 C 271.88 351.32 273.41 358.44 277.06 364.68 C 279.20 360.10 279.75 355.05 281.29 350.29 C 281.87 347.83 284.20 346.61 286.12 345.31 C 287.99 349.85 288.08 354.82 289.29 359.53 C 289.92 362.07 289.73 364.71 289.72 367.30 C 289.17 366.20 288.60 365.13 288.03 364.05 C 287.27 360.07 286.55 356.06 285.00 352.30 C 282.42 356.43 282.45 361.37 282.75 366.06 C 282.87 374.77 286.78 383.11 292.25 389.73 C 297.20 394.43 302.71 399.91 309.97 400.14 C 315.56 400.28 321.74 399.96 326.27 396.28 C 331.32 392.37 336.37 387.97 338.95 381.97 C 340.63 378.20 340.14 373.96 340.04 369.96 L 340.01 369.12 C 340.51 368.79 341.52 368.15 342.03 367.83 C 343.19 366.19 343.88 364.30 344.53 362.42 C 345.38 364.47 346.30 366.50 347.23 368.54 C 351.22 368.08 355.24 368.18 359.25 368.38 C 359.72 370.45 360.19 372.53 360.66 374.61 C 365.06 375.01 369.92 374.49 373.62 377.38 C 375.59 378.90 378.16 378.47 380.48 378.53 C 381.81 381.35 382.62 384.93 385.67 386.42 C 389.91 388.51 394.84 387.77 399.35 388.84 C 403.18 389.74 407.04 390.57 410.99 390.58 C 411.53 388.58 412.08 386.58 412.66 384.60 C 414.79 389.42 414.76 394.77 415.98 399.83 C 417.01 397.70 417.93 395.50 418.72 393.27 C 419.86 397.25 422.67 400.70 422.91 404.92 C 423.03 414.40 423.17 423.95 424.84 433.31 C 425.73 441.97 424.98 450.69 425.38 459.37 C 423.21 462.66 420.69 465.71 417.88 468.48 C 419.30 468.77 420.72 469.07 422.15 469.34 C 417.20 472.85 410.60 471.17 404.94 471.17 C 394.31 468.13 383.10 469.98 372.33 467.81 C 358.22 465.92 343.99 465.31 330.03 462.54 C 324.65 462.49 319.37 461.58 314.05 460.97 C 310.30 460.41 305.81 461.83 302.77 458.94 C 303.90 458.68 305.04 458.39 306.17 458.11 C 310.24 460.82 315.24 460.21 319.87 460.10 C 319.05 459.51 318.24 458.93 317.43 458.35 C 319.56 456.50 321.61 454.29 324.42 453.53 C 328.89 452.35 333.55 452.55 338.13 452.44 C 337.53 450.85 336.98 449.24 336.21 447.74 C 334.78 446.90 333.02 447.47 331.46 447.41 C 327.23 447.84 322.96 446.85 318.75 447.57 C 312.52 448.80 308.64 454.75 302.56 456.36 C 300.02 456.96 297.38 456.70 294.80 456.67 C 297.96 455.53 301.30 454.81 304.30 453.26 C 306.94 451.27 309.27 448.91 312.09 447.16 C 302.18 443.70 291.54 445.52 281.28 444.84 C 280.97 438.93 280.44 433.03 279.49 427.19 C 276.11 426.81 272.77 427.46 269.68 428.84 C 268.16 427.05 266.65 425.26 265.13 423.48 C 267.26 423.00 269.40 422.54 271.55 422.09 C 269.22 421.38 266.88 420.71 264.56 419.99 C 266.87 419.31 269.19 418.64 271.50 417.97 C 269.14 417.36 266.77 416.81 264.41 416.22 C 264.80 414.64 265.22 413.07 265.63 411.50 C 260.49 411.95 255.39 411.14 250.34 410.28 C 250.06 406.19 250.02 402.07 250.55 398.00 C 246.61 397.35 242.58 397.18 238.71 396.19 C 236.94 394.41 237.03 391.42 238.18 389.34 C 239.60 387.46 241.58 386.13 243.39 384.66 C 242.38 383.33 241.63 381.73 240.25 380.75 C 234.70 378.67 228.39 381.39 222.92 379.07 C 217.68 375.52 219.06 368.43 217.94 363.05 C 217.78 360.34 215.69 358.47 214.04 356.56 C 212.90 358.60 211.87 360.73 210.39 362.55 C 206.94 363.83 203.24 362.84 199.78 362.14 C 201.38 360.89 203.00 359.67 204.64 358.47 C 205.18 354.56 205.45 350.62 205.45 346.67 C 200.39 345.18 194.51 344.82 190.80 340.61 C 193.78 340.12 196.76 339.60 199.72 339.00 C 197.11 338.49 194.49 338.03 191.86 337.62 C 191.69 336.32 191.53 335.03 191.37 333.74 C 190.02 332.95 188.67 332.16 187.33 331.38 C 187.16 327.02 187.47 322.37 185.01 318.54 C 184.31 310.37 184.80 302.17 184.62 293.99 C 184.40 286.07 185.40 278.05 183.49 270.27 C 183.18 245.43 183.60 220.58 183.10 195.74 C 183.08 195.17 183.04 194.02 183.02 193.45 C 181.95 193.54 180.87 193.64 179.80 193.74 C 181.54 192.49 181.13 190.74 179.91 189.30 Z" />
</g>
<g id="#a8a8a8ff">
<path fill="#a8a8a8" opacity="1.00" d=" M 324.93 66.56 C 328.41 66.26 331.94 66.16 335.42 66.63 C 335.22 74.78 334.84 82.92 334.72 91.07 C 334.49 93.06 334.85 95.83 332.72 96.91 C 328.80 97.79 324.74 97.24 320.77 97.27 C 320.37 94.10 320.65 90.89 321.62 87.85 C 320.51 87.58 319.41 87.32 318.31 87.06 L 317.60 86.83 C 319.28 84.58 320.47 81.96 319.66 79.12 C 319.54 78.52 319.31 77.32 319.19 76.73 C 319.79 76.64 321.01 76.47 321.62 76.39 C 321.64 74.90 321.65 73.41 321.69 71.92 C 324.94 75.19 330.45 74.35 333.39 71.08 C 329.84 68.50 325.47 69.27 321.71 70.91 C 322.74 69.43 323.84 68.00 324.93 66.56 M 321.71 78.87 C 325.04 80.73 328.75 80.19 332.10 78.69 C 331.36 77.55 330.90 76.03 329.56 75.44 C 326.50 74.83 323.58 76.55 321.71 78.87 M 322.12 84.12 C 322.08 84.82 322.01 86.23 321.97 86.93 C 324.60 87.02 327.23 87.04 329.86 86.97 C 330.17 86.47 330.79 85.46 331.09 84.96 C 330.58 84.02 330.07 83.08 329.56 82.14 C 326.99 82.41 324.48 83.08 322.12 84.12 M 321.79 90.91 C 321.82 91.67 321.89 93.21 321.92 93.98 C 324.65 94.04 327.38 94.05 330.11 93.99 C 330.13 92.60 330.16 91.21 330.18 89.82 C 327.33 89.68 324.49 89.99 321.79 90.91 Z" />
</g>
<g id="#868686ff">
<path fill="#868686" opacity="1.00" d=" M 319.31 67.17 C 321.18 66.95 323.05 66.73 324.93 66.56 C 323.84 68.00 322.74 69.43 321.71 70.91 L 321.69 71.92 C 321.65 73.41 321.64 74.90 321.62 76.39 C 321.01 76.47 319.79 76.64 319.19 76.73 C 316.80 77.10 314.45 77.68 312.14 78.36 C 312.24 77.00 312.36 75.63 312.35 74.27 C 312.30 72.51 312.09 70.76 311.86 69.02 C 314.35 68.44 316.82 67.77 319.31 67.17 Z" />
</g>
<g id="#edededff">
<path fill="#ededed" opacity="1.00" d=" M 335.42 66.63 C 336.44 66.79 337.46 66.96 338.48 67.14 C 338.10 70.72 337.83 74.30 337.46 77.88 C 340.55 76.31 343.85 75.24 347.15 74.22 C 347.37 75.80 347.59 77.38 347.82 78.97 C 351.09 79.11 354.36 79.16 357.64 79.14 C 358.79 80.22 359.95 81.31 361.12 82.39 C 362.78 82.20 364.45 81.86 366.13 82.05 C 369.15 83.44 371.23 86.29 374.31 87.58 C 378.15 88.37 382.11 87.88 386.00 87.97 C 391.31 87.80 397.26 89.10 401.80 85.56 C 401.91 87.64 400.71 90.79 403.43 91.63 C 407.18 92.29 410.95 90.87 414.72 91.26 C 416.62 91.89 418.26 93.08 419.94 94.13 C 421.79 93.20 423.65 92.28 425.53 91.39 C 425.80 85.87 425.81 80.23 427.79 74.99 C 427.58 82.70 427.87 90.43 427.08 98.11 C 426.39 104.79 426.71 111.50 426.56 118.19 C 426.21 116.26 425.81 114.34 425.44 112.42 C 425.12 118.40 425.66 124.41 425.06 130.39 C 423.95 128.05 423.13 125.58 422.80 123.01 C 422.45 119.09 419.53 116.21 417.39 113.15 C 416.70 116.00 416.02 118.85 415.37 121.71 C 408.99 123.98 404.98 117.67 399.91 115.21 C 395.90 112.99 391.21 113.94 387.01 114.97 C 385.18 112.15 383.57 109.15 381.33 106.63 C 380.42 105.52 378.86 105.18 377.52 105.54 C 373.31 106.51 369.41 109.61 364.88 108.46 C 361.03 108.29 359.47 104.36 357.21 101.89 C 351.31 101.66 345.42 102.10 339.54 102.35 C 338.90 103.31 338.28 104.28 337.65 105.25 C 336.51 104.34 335.36 103.45 334.21 102.57 C 331.68 103.17 329.09 103.22 326.52 103.10 C 321.83 104.24 317.24 101.58 312.48 102.31 C 311.52 101.18 310.57 100.05 309.63 98.91 C 310.52 98.45 311.42 98.00 312.33 97.56 C 315.13 97.36 317.95 97.24 320.77 97.27 C 324.74 97.24 328.80 97.79 332.72 96.91 C 334.85 95.83 334.49 93.06 334.72 91.07 C 334.84 82.92 335.22 74.78 335.42 66.63 Z" />
</g>
<g id="#ebebebff">
<path fill="#ebebeb" opacity="1.00" d=" M 321.71 70.91 C 325.47 69.27 329.84 68.50 333.39 71.08 C 330.45 74.35 324.94 75.19 321.69 71.92 L 321.71 70.91 Z" />
</g>
<g id="#f1f1f1ff">
<path fill="#f1f1f1" opacity="1.00" d=" M 302.41 71.86 C 305.04 71.24 307.68 70.68 310.33 70.20 C 310.91 71.29 311.48 72.39 312.03 73.50 C 309.16 73.94 306.29 74.33 303.41 74.68 C 303.16 73.98 302.66 72.56 302.41 71.86 Z" />
</g>
<g id="#b4b4b4ff">
<path fill="#b4b4b4" opacity="1.00" d=" M 302.60 84.98 C 302.43 80.61 301.88 76.24 302.41 71.86 C 302.66 72.56 303.16 73.98 303.41 74.68 C 306.29 74.33 309.16 73.94 312.03 73.50 L 312.35 74.27 C 312.36 75.63 312.24 77.00 312.14 78.36 C 314.45 77.68 316.80 77.10 319.19 76.73 C 319.31 77.32 319.54 78.52 319.66 79.12 C 318.06 78.98 316.46 78.85 314.86 78.72 C 314.31 80.08 313.67 81.42 313.37 82.87 C 313.67 84.97 316.10 85.71 317.60 86.83 L 318.31 87.06 C 316.40 86.69 314.48 86.41 312.56 86.13 C 312.34 86.23 311.89 86.42 311.66 86.52 L 311.24 86.70 C 309.33 83.41 305.69 84.28 302.60 84.98 M 302.92 79.00 C 303.58 82.65 308.36 80.29 310.78 79.90 C 310.82 79.21 310.90 77.82 310.94 77.13 C 308.41 77.30 303.63 75.61 302.92 79.00 Z" />
</g>
<g id="#e8e8e8ff">
<path fill="#e8e8e8" opacity="1.00" d=" M 321.71 78.87 C 323.58 76.55 326.50 74.83 329.56 75.44 C 330.90 76.03 331.36 77.55 332.10 78.69 C 328.75 80.19 325.04 80.73 321.71 78.87 Z" />
</g>
<g id="#e7e7e7ff">
<path fill="#e7e7e7" opacity="1.00" d=" M 302.92 79.00 C 303.63 75.61 308.41 77.30 310.94 77.13 C 310.90 77.82 310.82 79.21 310.78 79.90 C 308.36 80.29 303.58 82.65 302.92 79.00 Z" />
<path fill="#e7e7e7" opacity="1.00" d=" M 310.72 244.04 C 316.33 243.45 322.22 244.01 326.80 247.61 C 331.55 250.86 335.51 255.38 337.44 260.86 C 337.39 263.65 336.68 266.37 335.98 269.05 C 333.12 262.38 330.67 254.89 324.58 250.41 C 320.32 247.59 315.40 245.99 310.72 244.04 Z" />
</g>
<g id="#d8d8d8ff">
<path fill="#d8d8d8" opacity="1.00" d=" M 185.00 96.51 C 185.35 90.22 185.40 83.87 187.08 77.74 C 187.32 84.19 187.24 90.65 187.49 97.10 C 194.34 98.37 201.27 100.04 207.20 103.90 C 205.21 104.65 203.06 105.13 201.33 106.39 C 201.18 107.53 201.09 108.67 201.05 109.81 C 205.64 110.67 209.69 108.30 213.86 106.89 C 218.44 105.47 222.54 108.74 226.55 110.41 C 229.21 111.68 232.38 111.57 234.91 113.10 C 236.43 115.08 236.33 117.81 237.26 120.08 C 241.07 123.13 246.32 121.91 250.80 121.74 C 256.09 121.22 261.18 123.03 266.17 124.51 C 266.40 126.39 266.46 128.33 267.17 130.11 C 269.07 131.70 271.75 131.50 274.04 132.04 C 277.82 132.54 281.20 134.49 284.96 135.04 C 288.27 135.51 291.60 135.83 294.89 136.48 C 296.04 135.24 297.20 134.00 298.35 132.75 C 301.61 135.27 303.77 139.04 304.41 143.09 C 304.23 144.85 303.34 146.42 302.69 148.04 C 303.02 149.36 303.35 150.69 303.69 152.02 C 301.66 154.34 300.10 157.00 298.63 159.69 C 300.69 159.55 302.76 159.42 304.81 159.09 C 304.94 159.78 305.19 161.15 305.31 161.84 C 309.61 161.84 313.92 161.69 318.22 161.71 C 321.26 162.31 324.20 163.35 326.97 164.74 C 326.23 164.93 324.75 165.31 324.02 165.50 C 328.50 170.95 332.32 176.88 335.25 183.31 C 336.02 181.85 336.79 180.39 337.58 178.94 C 339.00 184.94 338.48 191.63 335.04 196.88 C 333.14 199.27 331.09 201.53 329.12 203.86 C 328.02 202.04 326.92 200.23 325.83 198.42 C 324.52 199.18 323.20 199.94 321.90 200.70 C 319.14 196.18 319.80 190.83 318.55 185.90 C 316.99 186.27 315.45 186.65 313.88 186.95 C 310.13 187.38 306.35 187.17 302.60 187.03 C 301.63 188.14 300.66 189.24 299.68 190.34 C 296.50 188.51 292.86 187.97 289.26 188.49 C 289.43 186.33 289.59 184.17 289.76 182.01 C 287.92 181.96 286.10 181.91 284.27 181.87 C 283.08 183.76 282.06 185.83 280.42 187.39 C 275.19 188.85 269.67 188.32 264.34 187.80 C 264.76 186.01 265.17 184.23 265.61 182.45 C 258.86 181.82 251.83 181.51 245.73 178.19 C 239.76 174.95 233.29 172.81 227.30 169.63 C 225.96 168.98 224.62 168.25 223.15 168.00 C 220.34 169.46 217.59 171.04 214.61 172.12 C 213.83 169.64 213.06 167.16 212.30 164.67 C 209.11 163.96 205.77 163.60 202.79 162.20 C 201.36 160.99 200.38 159.37 199.27 157.89 C 193.71 158.06 188.80 155.43 184.67 151.92 C 184.15 133.45 185.98 114.98 185.00 96.51 Z" />
</g>
<g id="#efefefff">
<path fill="#efefef" opacity="1.00" d=" M 314.86 78.72 C 316.46 78.85 318.06 78.98 319.66 79.12 C 320.47 81.96 319.28 84.58 317.60 86.83 C 316.10 85.71 313.67 84.97 313.37 82.87 C 313.67 81.42 314.31 80.08 314.86 78.72 Z" />
<path fill="#efefef" opacity="1.00" d=" M 324.02 165.50 C 324.75 165.31 326.23 164.93 326.97 164.74 C 331.91 168.22 335.51 173.29 337.58 178.94 C 336.79 180.39 336.02 181.85 335.25 183.31 C 332.32 176.88 328.50 170.95 324.02 165.50 Z" />
</g>
<g id="#e1e1e1ff">
<path fill="#e1e1e1" opacity="1.00" d=" M 322.12 84.12 C 324.48 83.08 326.99 82.41 329.56 82.14 C 330.07 83.08 330.58 84.02 331.09 84.96 C 330.79 85.46 330.17 86.47 329.86 86.97 C 327.23 87.04 324.60 87.02 321.97 86.93 C 322.01 86.23 322.08 84.82 322.12 84.12 Z" />
</g>
<g id="#e9e9e9ff">
<path fill="#e9e9e9" opacity="1.00" d=" M 302.60 84.98 C 305.69 84.28 309.33 83.41 311.24 86.70 C 308.48 87.99 305.46 88.52 302.45 88.74 C 302.51 87.48 302.56 86.23 302.60 84.98 Z" />
<path fill="#e9e9e9" opacity="1.00" d=" M 310.50 325.93 C 321.77 324.19 332.35 332.20 337.16 341.88 C 337.58 345.28 337.64 348.71 337.63 352.13 C 335.53 349.18 333.86 345.97 332.29 342.72 C 330.10 338.20 326.72 334.31 322.74 331.28 C 319.14 328.49 314.28 328.41 310.50 325.93 Z" />
</g>
<g id="#d1d1d1ff">
<path fill="#d1d1d1" opacity="1.00" d=" M 75.43 84.30 C 79.91 87.74 80.60 93.46 81.49 98.64 C 84.55 99.15 87.66 99.91 90.77 99.38 C 93.00 99.13 95.21 98.36 97.47 98.57 C 99.44 100.50 100.94 102.85 102.56 105.06 C 105.37 105.49 108.08 106.41 110.57 107.77 C 112.10 105.17 113.65 102.59 114.94 99.86 C 114.99 102.81 114.98 105.76 114.82 108.70 C 111.76 117.22 112.67 126.42 111.29 135.24 C 111.01 137.14 110.04 138.82 109.20 140.50 C 108.52 137.75 107.95 134.97 107.46 132.18 C 104.81 132.35 102.16 132.52 99.51 132.71 C 98.26 130.90 97.01 129.10 95.78 127.28 C 94.59 129.17 94.29 132.18 91.90 132.93 C 90.47 132.60 89.09 132.07 87.71 131.58 C 87.43 129.45 87.47 127.20 86.56 125.22 C 83.87 122.87 80.20 121.88 77.75 119.24 C 76.06 117.12 75.18 114.51 74.15 112.04 C 74.12 115.83 73.85 119.62 73.20 123.36 C 73.05 114.82 72.59 106.14 74.31 97.72 C 75.00 93.27 74.48 88.72 75.43 84.30 Z" />
</g>
<g id="#828282ff">
<path fill="#828282" opacity="1.00" d=" M 311.66 86.52 C 311.89 86.42 312.34 86.23 312.56 86.13 C 314.48 86.41 316.40 86.69 318.31 87.06 C 319.41 87.32 320.51 87.58 321.62 87.85 C 320.65 90.89 320.37 94.10 320.77 97.27 C 317.95 97.24 315.13 97.36 312.33 97.56 C 312.04 97.38 311.46 97.02 311.16 96.84 C 311.26 93.40 311.52 89.96 311.66 86.52 Z" />
</g>
<g id="#e3e3e3ff">
<path fill="#e3e3e3" opacity="1.00" d=" M 301.74 94.98 C 301.54 90.95 307.49 89.66 310.29 91.74 C 310.18 92.51 309.97 94.04 309.86 94.80 C 307.15 94.95 304.45 95.04 301.74 94.98 Z" />
</g>
<g id="#dededeff">
<path fill="#dedede" opacity="1.00" d=" M 321.79 90.91 C 324.49 89.99 327.33 89.68 330.18 89.82 C 330.16 91.21 330.13 92.60 330.11 93.99 C 327.38 94.05 324.65 94.04 321.92 93.98 C 321.89 93.21 321.82 91.67 321.79 90.91 Z" />
</g>
<g id="#969696ff">
<path fill="#969696" opacity="1.00" d=" M 181.67 122.68 C 182.28 113.95 180.86 104.56 185.00 96.51 C 185.98 114.98 184.15 133.45 184.67 151.92 C 184.64 154.19 184.57 156.45 184.51 158.72 C 183.09 168.98 183.56 179.40 183.37 189.73 C 182.22 189.56 181.07 189.41 179.91 189.30 C 178.28 189.66 176.67 190.11 175.07 190.56 C 172.63 188.79 169.51 187.59 166.50 188.45 C 164.10 190.05 162.86 193.89 159.62 193.84 C 155.16 193.15 151.14 190.84 147.12 188.90 C 143.77 187.40 143.40 183.27 141.19 180.70 C 138.43 179.09 135.59 181.69 133.06 182.69 C 133.97 183.98 134.88 185.27 135.79 186.57 C 131.56 186.11 126.77 182.84 122.89 185.84 C 121.41 186.80 120.50 188.39 120.15 190.09 C 118.98 194.97 119.23 200.04 119.07 205.02 C 119.10 219.82 114.31 234.20 115.04 249.03 C 115.57 252.21 118.14 254.73 118.30 257.99 C 118.14 262.50 115.37 266.44 115.15 270.95 C 114.62 284.37 115.91 297.84 114.67 311.24 C 113.32 304.75 114.81 298.07 113.33 291.59 C 112.91 278.40 113.34 265.20 113.01 252.00 C 113.07 240.42 112.72 228.82 113.13 217.24 C 113.64 214.42 114.35 211.64 115.00 208.85 C 115.71 208.97 116.43 209.09 117.14 209.21 C 116.66 202.51 116.73 195.76 118.18 189.18 C 120.28 178.61 119.59 167.77 121.31 157.17 C 125.15 157.06 129.02 157.23 132.84 156.79 C 135.42 156.44 136.76 152.41 139.51 153.33 C 142.27 156.04 143.45 160.01 146.37 162.58 C 149.30 163.93 152.66 164.02 155.57 165.43 C 157.92 168.81 159.32 172.77 161.74 176.13 C 166.97 173.43 174.18 170.08 179.23 174.87 C 178.56 168.89 180.21 162.98 179.99 157.00 C 179.84 152.31 180.11 147.62 180.98 143.01 C 182.20 136.30 181.81 129.45 181.67 122.68 Z" />
</g>
<g id="#b8b8b8ff">
<path fill="#b8b8b8" opacity="1.00" d=" M 339.54 102.35 C 345.42 102.10 351.31 101.66 357.21 101.89 C 356.96 104.24 356.70 106.58 356.46 108.92 C 353.65 108.15 350.69 107.67 347.87 108.67 C 344.65 109.78 341.50 107.31 338.27 108.25 C 331.54 109.74 323.73 111.00 317.58 107.09 C 316.32 108.08 315.07 109.07 313.81 110.06 C 313.28 107.49 312.82 104.91 312.48 102.31 C 317.24 101.58 321.83 104.24 326.52 103.10 C 329.09 103.22 331.68 103.17 334.21 102.57 C 335.36 103.45 336.51 104.34 337.65 105.25 C 338.28 104.28 338.90 103.31 339.54 102.35 Z" />
</g>
<g id="#cbcbcbff">
<path fill="#cbcbcb" opacity="1.00" d=" M 111.29 135.24 C 112.67 126.42 111.76 117.22 114.82 108.70 C 114.85 114.29 115.00 119.89 115.19 125.48 C 114.22 133.12 114.45 140.86 113.15 148.47 C 111.39 152.94 110.94 157.74 111.43 162.50 C 109.29 163.72 107.17 165.53 104.55 165.35 C 101.16 165.15 98.04 163.67 94.91 162.47 C 94.61 160.92 94.30 159.39 93.99 157.85 C 91.75 157.55 89.33 157.68 87.30 156.61 C 85.47 154.79 84.34 152.38 82.36 150.71 C 80.01 149.51 77.27 149.97 74.73 149.97 L 74.55 151.88 C 73.83 150.09 72.99 148.37 72.14 146.65 C 72.08 145.93 71.95 144.49 71.89 143.76 C 71.59 136.95 72.05 130.09 73.20 123.36 C 73.85 119.62 74.12 115.83 74.15 112.04 C 75.18 114.51 76.06 117.12 77.75 119.24 C 80.20 121.88 83.87 122.87 86.56 125.22 C 87.47 127.20 87.43 129.45 87.71 131.58 C 89.09 132.07 90.47 132.60 91.90 132.93 C 94.29 132.18 94.59 129.17 95.78 127.28 C 97.01 129.10 98.26 130.90 99.51 132.71 C 102.16 132.52 104.81 132.35 107.46 132.18 C 107.95 134.97 108.52 137.75 109.20 140.50 C 110.04 138.82 111.01 137.14 111.29 135.24 Z" />
</g>
<g id="#9d9d9dff">
<path fill="#9d9d9d" opacity="1.00" d=" M 180.44 139.47 C 179.98 133.84 180.30 128.17 181.67 122.68 C 181.81 129.45 182.20 136.30 180.98 143.01 C 180.11 147.62 179.84 152.31 179.99 157.00 C 180.21 162.98 178.56 168.89 179.23 174.87 C 174.18 170.08 166.97 173.43 161.74 176.13 C 159.32 172.77 157.92 168.81 155.57 165.43 C 152.66 164.02 149.30 163.93 146.37 162.58 C 143.45 160.01 142.27 156.04 139.51 153.33 C 136.76 152.41 135.42 156.44 132.84 156.79 C 129.02 157.23 125.15 157.06 121.31 157.17 C 119.59 167.77 120.28 178.61 118.18 189.18 C 116.73 195.76 116.66 202.51 117.14 209.21 C 116.43 209.09 115.71 208.97 115.00 208.85 C 114.35 211.64 113.64 214.42 113.13 217.24 C 113.19 210.73 113.09 204.21 112.74 197.71 C 113.07 192.56 113.17 187.40 113.32 182.24 C 114.29 173.32 118.56 165.15 119.21 156.19 C 120.82 145.26 120.75 133.91 124.82 123.49 C 126.03 125.23 127.23 126.98 128.43 128.74 C 130.08 127.00 131.73 125.25 133.37 123.49 C 136.17 124.98 137.05 128.06 137.84 130.90 C 140.13 130.55 142.41 130.23 144.71 129.96 C 146.55 131.57 148.21 133.65 150.64 134.36 C 153.66 134.57 156.59 133.48 159.61 133.54 C 162.54 133.64 164.76 135.75 166.98 137.41 C 165.80 138.55 164.63 139.68 163.44 140.82 C 166.98 142.47 169.54 145.44 171.29 148.88 C 174.09 145.51 177.15 142.36 180.44 139.47 Z" />
</g>
<g id="#ddddddff">
<path fill="#dddddd" opacity="1.00" d=" M 71.09 160.05 C 71.61 154.63 70.73 149.13 71.89 143.76 C 71.95 144.49 72.08 145.93 72.14 146.65 C 71.63 156.96 71.46 167.31 72.21 177.62 C 71.90 188.28 71.33 198.96 71.94 209.62 C 71.89 215.31 71.70 221.01 72.11 226.70 C 71.85 232.80 71.29 238.89 71.36 245.01 C 71.59 270.40 71.57 295.81 72.53 321.19 C 72.54 334.86 73.09 348.53 72.88 362.20 C 72.19 359.18 72.04 356.08 72.10 353.00 C 71.96 342.65 71.80 332.29 71.39 321.95 C 71.21 290.96 71.65 259.96 70.82 228.98 C 69.20 212.37 69.88 195.65 69.96 179.00 C 69.88 172.66 70.54 166.36 71.09 160.05 Z" />
</g>
<g id="#c4c4c4ff">
<path fill="#c4c4c4" opacity="1.00" d=" M 72.14 146.65 C 72.99 148.37 73.83 150.09 74.55 151.88 L 74.73 149.97 C 77.27 149.97 80.01 149.51 82.36 150.71 C 84.34 152.38 85.47 154.79 87.30 156.61 C 89.33 157.68 91.75 157.55 93.99 157.85 C 94.30 159.39 94.61 160.92 94.91 162.47 C 98.04 163.67 101.16 165.15 104.55 165.35 C 107.17 165.53 109.29 163.72 111.43 162.50 C 110.94 157.74 111.39 152.94 113.15 148.47 C 113.66 155.88 113.30 163.31 112.77 170.71 C 112.35 174.38 111.85 178.04 111.66 181.73 C 111.31 188.52 109.47 195.11 108.88 201.87 C 106.11 201.14 103.20 200.69 100.66 199.30 C 98.41 197.56 97.15 194.90 95.11 192.96 C 90.70 191.95 86.07 192.50 81.61 191.68 C 81.03 189.81 80.45 187.94 79.86 186.08 C 78.21 185.76 76.56 185.44 74.91 185.12 C 74.02 182.61 73.06 180.13 72.21 177.62 C 71.46 167.31 71.63 156.96 72.14 146.65 Z" />
</g>
<g id="#cfcfcfff">
<path fill="#cfcfcf" opacity="1.00" d=" M 184.67 151.92 C 188.80 155.43 193.71 158.06 199.27 157.89 C 200.38 159.37 201.36 160.99 202.79 162.20 C 205.77 163.60 209.11 163.96 212.30 164.67 C 213.06 167.16 213.83 169.64 214.61 172.12 C 217.59 171.04 220.34 169.46 223.15 168.00 C 224.62 168.25 225.96 168.98 227.30 169.63 C 233.29 172.81 239.76 174.95 245.73 178.19 C 251.83 181.51 258.86 181.82 265.61 182.45 C 265.17 184.23 264.76 186.01 264.34 187.80 C 269.67 188.32 275.19 188.85 280.42 187.39 C 282.06 185.83 283.08 183.76 284.27 181.87 C 286.10 181.91 287.92 181.96 289.76 182.01 C 289.59 184.17 289.43 186.33 289.26 188.49 C 292.86 187.97 296.50 188.51 299.68 190.34 C 300.66 189.24 301.63 188.14 302.60 187.03 C 302.31 189.57 302.25 192.14 302.33 194.70 C 304.51 194.47 306.70 194.33 308.89 194.18 L 309.81 194.11 C 312.54 193.90 315.28 193.80 318.01 193.81 C 317.90 190.88 316.11 188.65 313.88 186.95 C 315.45 186.65 316.99 186.27 318.55 185.90 C 319.80 190.83 319.14 196.18 321.90 200.70 C 323.20 199.94 324.52 199.18 325.83 198.42 C 326.92 200.23 328.02 202.04 329.12 203.86 C 331.09 201.53 333.14 199.27 335.04 196.88 C 335.16 197.75 335.40 199.48 335.51 200.35 C 331.25 208.43 324.97 216.54 315.60 218.70 C 305.78 221.22 295.84 215.86 289.71 208.38 C 289.65 207.86 289.53 206.82 289.47 206.29 C 288.71 199.65 286.78 193.20 284.73 186.86 C 283.49 188.21 281.73 189.32 281.36 191.25 C 279.63 199.07 280.40 207.17 278.92 215.04 C 273.92 215.35 269.11 213.87 264.58 211.88 C 262.49 214.89 264.65 218.14 265.84 221.02 C 263.17 220.95 260.49 220.93 257.81 220.95 C 257.24 218.18 258.86 215.80 259.60 213.26 C 259.44 209.53 257.01 205.80 253.26 204.85 C 248.58 203.48 243.83 202.34 239.21 200.79 C 235.02 199.03 232.07 206.15 227.80 203.37 C 226.25 200.98 225.70 198.12 224.28 195.67 C 221.53 193.58 217.75 192.92 214.37 193.26 C 212.27 194.50 211.18 196.92 209.29 198.44 C 207.64 199.03 205.82 198.73 204.10 198.83 C 204.07 194.15 207.21 190.38 208.25 185.96 C 206.71 186.10 205.15 186.11 203.64 186.50 C 202.08 188.06 200.94 189.98 199.71 191.81 C 196.02 190.97 192.13 190.38 188.90 188.29 C 188.69 185.79 189.68 183.10 188.24 180.81 C 184.50 174.04 186.54 165.98 184.51 158.72 C 184.57 156.45 184.64 154.19 184.67 151.92 Z" />
</g>
<g id="#dadadaff">
<path fill="#dadada" opacity="1.00" d=" M 335.55 159.71 C 338.80 157.63 341.85 155.27 344.66 152.63 C 345.70 153.95 346.37 155.51 347.35 156.88 C 352.89 156.17 358.48 156.07 364.02 156.89 C 368.22 157.63 372.26 155.83 376.41 155.74 C 380.48 157.26 382.86 161.74 387.14 162.75 C 392.15 162.76 396.85 160.62 401.62 159.33 C 404.26 162.78 405.54 166.95 406.26 171.18 C 410.74 168.18 414.49 163.46 420.28 163.17 C 420.98 166.10 421.73 169.02 422.52 171.93 C 423.40 170.60 424.28 169.26 425.11 167.89 C 425.13 177.18 425.16 186.46 424.84 195.74 C 423.88 200.15 422.97 204.57 422.38 209.04 C 421.20 208.23 420.03 207.42 418.86 206.61 C 417.50 206.93 416.14 207.25 414.79 207.58 C 414.36 205.19 413.93 202.80 413.51 200.42 C 411.15 200.19 408.73 200.19 406.47 199.44 C 403.98 198.00 402.15 195.64 399.58 194.33 C 397.96 194.09 396.34 194.21 394.72 194.26 C 394.49 196.00 394.26 197.75 394.04 199.50 C 389.94 200.02 385.79 200.10 381.68 199.77 C 380.90 197.30 380.05 194.86 379.16 192.43 C 374.83 193.60 370.35 193.28 365.94 193.00 C 361.09 192.24 357.95 197.76 353.12 197.03 C 350.28 196.80 347.21 196.05 345.25 193.84 C 343.57 190.47 343.14 186.66 341.99 183.10 L 341.78 182.35 C 343.71 179.11 345.34 175.72 346.82 172.26 C 345.89 172.66 344.95 173.06 344.03 173.46 C 342.98 172.37 341.94 171.29 340.89 170.21 C 341.23 168.85 341.56 167.48 341.91 166.12 C 340.60 164.19 339.30 162.25 338.04 160.29 C 336.94 161.44 335.84 162.58 334.75 163.72 C 335.01 162.38 335.28 161.04 335.55 159.71 Z" />
<path fill="#dadada" opacity="1.00" d=" M 175.07 190.56 C 176.67 190.11 178.28 189.66 179.91 189.30 C 181.13 190.74 181.54 192.49 179.80 193.74 C 178.71 193.84 177.63 193.94 176.54 194.04 C 176.06 192.87 175.57 191.71 175.07 190.56 Z" />
</g>
<g id="#c7c7c7ff">
<path fill="#c7c7c7" opacity="1.00" d=" M 183.37 189.73 C 183.56 179.40 183.09 168.98 184.51 158.72 C 186.54 165.98 184.50 174.04 188.24 180.81 C 189.68 183.10 188.69 185.79 188.90 188.29 C 192.13 190.38 196.02 190.97 199.71 191.81 C 200.94 189.98 202.08 188.06 203.64 186.50 C 205.15 186.11 206.71 186.10 208.25 185.96 C 207.21 190.38 204.07 194.15 204.10 198.83 C 205.82 198.73 207.64 199.03 209.29 198.44 C 211.18 196.92 212.27 194.50 214.37 193.26 C 217.75 192.92 221.53 193.58 224.28 195.67 C 225.70 198.12 226.25 200.98 227.80 203.37 C 232.07 206.15 235.02 199.03 239.21 200.79 C 243.83 202.34 248.58 203.48 253.26 204.85 C 257.01 205.80 259.44 209.53 259.60 213.26 C 258.86 215.80 257.24 218.18 257.81 220.95 C 260.49 220.93 263.17 220.95 265.84 221.02 C 264.65 218.14 262.49 214.89 264.58 211.88 C 269.11 213.87 273.92 215.35 278.92 215.04 C 280.40 207.17 279.63 199.07 281.36 191.25 C 281.73 189.32 283.49 188.21 284.73 186.86 C 286.78 193.20 288.71 199.65 289.47 206.29 C 288.65 204.59 287.72 202.93 286.91 201.23 C 285.96 198.56 285.04 195.88 283.86 193.31 C 282.96 195.07 282.01 196.92 282.20 198.97 C 282.34 203.80 282.51 208.71 283.81 213.40 C 286.81 222.23 292.82 231.34 302.53 233.41 C 309.39 234.39 317.09 235.17 323.25 231.28 C 327.72 228.62 332.43 225.72 335.03 221.03 C 337.03 217.62 337.29 213.59 337.93 209.77 C 338.20 208.33 338.48 206.88 338.77 205.44 C 339.22 204.06 339.73 202.71 340.23 201.35 C 340.63 200.93 341.41 200.10 341.80 199.68 C 342.01 205.49 342.61 211.60 340.02 217.02 C 337.86 221.38 338.01 226.81 334.40 230.39 C 331.91 232.89 329.85 236.64 325.99 237.03 C 318.17 238.15 310.10 237.23 302.42 239.41 C 298.35 240.65 293.82 240.88 290.18 243.17 C 288.35 247.56 285.43 252.81 287.75 257.53 C 291.44 254.41 295.24 251.38 299.60 249.23 C 298.45 248.33 297.31 247.42 296.17 246.52 C 297.42 244.50 299.00 242.50 301.58 242.33 C 304.45 243.63 307.59 244.02 310.72 244.04 C 315.40 245.99 320.32 247.59 324.58 250.41 C 330.67 254.89 333.12 262.38 335.98 269.05 C 336.68 266.37 337.39 263.65 337.44 260.86 C 340.59 269.68 336.42 278.49 334.82 287.13 C 330.76 293.76 324.82 299.95 316.96 301.67 C 310.87 303.15 304.61 301.42 299.04 298.96 C 296.60 296.74 294.19 294.47 292.10 291.92 C 291.28 290.76 290.53 289.57 289.77 288.39 C 289.84 287.96 289.98 287.11 290.05 286.69 C 291.92 282.06 287.67 278.38 287.36 273.94 C 287.01 270.66 286.54 267.37 285.17 264.34 C 280.09 269.30 279.68 276.81 279.27 283.48 C 278.96 287.84 282.06 293.56 277.56 296.68 C 273.15 298.06 268.82 295.86 265.11 293.67 C 263.31 295.60 261.50 297.53 259.66 299.43 C 256.74 296.47 258.27 292.26 257.31 288.72 C 254.69 285.84 250.46 285.61 247.23 283.71 C 244.84 280.73 244.26 276.33 240.74 274.31 C 237.20 272.26 233.44 270.44 230.81 267.20 C 232.72 266.22 234.65 265.26 236.59 264.33 C 237.23 260.33 237.22 256.27 236.59 252.28 C 233.62 252.48 230.59 252.98 227.63 252.40 C 225.80 250.13 224.71 247.37 222.84 245.14 C 218.79 240.80 212.34 239.90 208.08 235.94 C 208.91 234.07 210.08 232.37 211.20 230.67 C 210.40 229.22 209.98 227.43 208.68 226.35 C 206.13 225.14 203.26 224.94 200.51 224.46 C 200.11 222.50 199.72 220.54 199.33 218.59 C 195.63 217.85 191.82 217.54 188.20 216.41 C 186.87 216.18 186.70 214.73 186.44 213.67 C 185.16 206.81 186.83 199.59 184.23 192.94 C 183.93 191.87 183.65 190.80 183.37 189.73 M 301.40 267.42 C 298.76 268.92 300.24 272.38 300.38 274.75 C 305.91 275.04 311.33 273.60 316.86 273.70 C 319.70 273.69 319.85 270.37 319.91 268.28 C 313.68 269.09 307.60 266.45 301.40 267.42 Z" />
</g>
<g id="#929292ff">
<path fill="#929292" opacity="1.00" d=" M 309.70 159.30 C 313.26 158.86 316.84 158.51 320.43 158.45 C 323.58 159.48 326.64 160.83 329.44 162.62 C 336.10 167.16 339.33 174.98 341.78 182.35 L 341.99 183.10 C 342.43 188.63 341.76 194.15 341.80 199.68 C 341.41 200.10 340.63 200.93 340.23 201.35 C 340.77 196.23 340.85 191.08 340.90 185.94 C 339.61 190.91 338.13 195.89 335.51 200.35 C 335.40 199.48 335.16 197.75 335.04 196.88 C 338.48 191.63 339.00 184.94 337.58 178.94 C 335.51 173.29 331.91 168.22 326.97 164.74 C 324.20 163.35 321.26 162.31 318.22 161.71 C 315.34 161.06 312.50 160.22 309.70 159.30 Z" />
</g>
<g id="#bababaff">
<path fill="#bababa" opacity="1.00" d=" M 111.66 181.73 C 111.85 178.04 112.35 174.38 112.77 170.71 C 112.87 174.56 113.26 178.39 113.32 182.24 C 113.17 187.40 113.07 192.56 112.74 197.71 C 111.60 204.85 112.22 212.11 111.35 219.28 C 110.61 225.52 111.21 231.80 110.98 238.06 C 110.82 243.08 108.93 247.79 107.30 252.47 C 103.62 253.01 99.93 252.47 96.61 250.74 C 97.04 246.34 97.20 241.86 96.08 237.54 C 94.16 237.51 92.23 237.49 90.31 237.45 C 90.27 234.43 90.29 231.40 90.32 228.37 C 87.21 225.81 84.65 222.68 82.70 219.16 C 80.60 219.46 78.07 221.02 76.14 220.01 C 74.54 216.64 74.80 212.42 71.94 209.62 C 71.33 198.96 71.90 188.28 72.21 177.62 C 73.06 180.13 74.02 182.61 74.91 185.12 C 76.56 185.44 78.21 185.76 79.86 186.08 C 80.45 187.94 81.03 189.81 81.61 191.68 C 86.07 192.50 90.70 191.95 95.11 192.96 C 97.15 194.90 98.41 197.56 100.66 199.30 C 103.20 200.69 106.11 201.14 108.88 201.87 C 109.47 195.11 111.31 188.52 111.66 181.73 Z" />
</g>
<g id="#8d8d8dff">
<path fill="#8d8d8d" opacity="1.00" d=" M 133.06 182.69 C 135.59 181.69 138.43 179.09 141.19 180.70 C 143.40 183.27 143.77 187.40 147.12 188.90 C 151.14 190.84 155.16 193.15 159.62 193.84 C 162.86 193.89 164.10 190.05 166.50 188.45 C 169.51 187.59 172.63 188.79 175.07 190.56 C 175.57 191.71 176.06 192.87 176.54 194.04 C 177.63 193.94 178.71 193.84 179.80 193.74 C 180.87 193.64 181.95 193.54 183.02 193.45 C 183.04 194.02 183.08 195.17 183.10 195.74 C 182.39 195.93 180.96 196.32 180.25 196.51 C 179.90 200.99 179.84 205.49 180.21 209.97 C 180.80 217.31 179.66 224.65 179.89 232.00 C 179.75 242.70 180.20 253.42 179.67 264.11 C 173.86 263.81 166.97 261.64 162.29 266.35 C 160.99 268.96 161.54 272.07 161.36 274.91 C 159.52 274.63 157.30 274.58 156.19 272.82 C 153.93 269.55 154.08 265.27 152.13 261.86 C 151.26 261.40 150.36 260.98 149.45 260.62 C 147.89 262.59 146.29 264.52 144.64 266.42 C 144.04 261.64 143.86 256.82 143.90 252.01 C 140.39 252.10 136.89 252.24 133.38 252.46 C 132.85 247.35 132.90 242.21 133.36 237.10 C 133.38 234.80 133.97 231.77 131.66 230.32 C 128.19 229.83 124.77 230.92 121.38 231.51 C 120.04 247.99 122.02 264.60 120.16 281.06 C 119.56 286.89 120.98 292.70 120.51 298.54 C 120.13 303.61 119.85 308.69 119.87 313.78 C 118.15 313.23 116.43 312.69 114.71 312.16 L 114.67 311.24 C 115.91 297.84 114.62 284.37 115.15 270.95 C 115.37 266.44 118.14 262.50 118.30 257.99 C 118.14 254.73 115.57 252.21 115.04 249.03 C 114.31 234.20 119.10 219.82 119.07 205.02 C 119.23 200.04 118.98 194.97 120.15 190.09 C 120.50 188.39 121.41 186.80 122.89 185.84 C 126.77 182.84 131.56 186.11 135.79 186.57 C 134.88 185.27 133.97 183.98 133.06 182.69 Z" />
<path fill="#8d8d8d" opacity="1.00" d=" M 290.08 377.68 C 292.32 380.18 294.51 382.74 296.85 385.16 C 303.33 391.72 313.87 394.03 322.39 390.37 C 325.69 389.12 327.95 386.34 329.74 383.42 C 331.51 381.83 333.35 380.32 335.12 378.74 C 334.69 381.42 334.35 384.31 332.28 386.29 C 326.43 394.00 315.53 396.43 306.54 393.57 C 300.50 392.11 295.95 387.57 291.90 383.14 C 290.49 381.68 290.53 379.53 290.08 377.68 Z" />
</g>
<g id="#d0d0d0ff">
<path fill="#d0d0d0" opacity="1.00" d=" M 341.99 183.10 C 343.14 186.66 343.57 190.47 345.25 193.84 C 347.21 196.05 350.28 196.80 353.12 197.03 C 357.95 197.76 361.09 192.24 365.94 193.00 C 370.35 193.28 374.83 193.60 379.16 192.43 C 380.05 194.86 380.90 197.30 381.68 199.77 C 385.79 200.10 389.94 200.02 394.04 199.50 C 394.26 197.75 394.49 196.00 394.72 194.26 C 396.34 194.21 397.96 194.09 399.58 194.33 C 402.15 195.64 403.98 198.00 406.47 199.44 C 408.73 200.19 411.15 200.19 413.51 200.42 C 413.93 202.80 414.36 205.19 414.79 207.58 C 416.14 207.25 417.50 206.93 418.86 206.61 C 420.03 207.42 421.20 208.23 422.38 209.04 C 422.97 204.57 423.88 200.15 424.84 195.74 C 425.57 206.49 424.66 217.24 425.04 228.00 C 425.00 262.33 424.92 296.67 425.14 331.00 C 425.09 341.10 425.43 351.20 424.82 361.29 C 423.02 352.62 424.28 343.75 423.93 334.98 C 423.31 317.85 420.84 300.85 417.59 284.04 C 416.98 285.08 416.39 286.13 415.79 287.18 C 410.81 280.94 402.11 286.63 396.06 283.04 C 393.86 280.31 394.15 276.45 393.54 273.16 C 391.80 272.74 390.08 272.11 388.28 272.10 C 386.35 273.20 384.88 274.98 382.83 275.87 C 380.34 276.38 377.79 276.32 375.27 276.42 C 374.35 275.02 373.43 273.63 372.52 272.25 C 368.74 272.09 364.94 272.18 361.18 271.68 C 360.17 271.60 358.86 271.07 358.81 269.89 C 358.95 267.34 359.57 264.86 359.97 262.35 C 355.61 261.99 351.23 262.12 346.93 262.91 C 348.08 265.03 348.95 267.31 349.41 269.68 C 349.18 273.91 347.11 277.78 344.63 281.13 C 344.38 275.95 343.82 270.75 341.90 265.89 C 339.41 257.58 335.01 249.34 327.30 244.83 C 323.76 242.85 320.03 240.98 315.98 240.40 C 311.08 239.73 306.30 241.26 301.58 242.33 C 299.00 242.50 297.42 244.50 296.17 246.52 C 297.31 247.42 298.45 248.33 299.60 249.23 C 295.24 251.38 291.44 254.41 287.75 257.53 C 285.43 252.81 288.35 247.56 290.18 243.17 C 293.82 240.88 298.35 240.65 302.42 239.41 C 310.10 237.23 318.17 238.15 325.99 237.03 C 329.85 236.64 331.91 232.89 334.40 230.39 C 338.01 226.81 337.86 221.38 340.02 217.02 C 342.61 211.60 342.01 205.49 341.80 199.68 C 341.76 194.15 342.43 188.63 341.99 183.10 Z" />
</g>
<g id="#696969ff">
<path fill="#696969" opacity="1.00" d=" M 335.51 200.35 C 338.13 195.89 339.61 190.91 340.90 185.94 C 340.85 191.08 340.77 196.23 340.23 201.35 C 339.73 202.71 339.22 204.06 338.77 205.44 L 338.68 204.62 C 338.43 203.12 338.11 201.63 337.78 200.16 C 332.62 209.56 324.70 218.87 313.46 220.47 C 306.08 222.16 299.36 218.06 292.89 215.19 C 296.43 221.56 303.75 225.01 310.85 225.13 C 315.70 224.68 320.31 222.95 325.00 221.73 C 321.74 227.88 313.89 227.34 307.96 227.01 C 299.76 226.49 293.30 220.27 289.38 213.51 C 288.15 211.89 288.95 209.99 289.71 208.38 C 295.84 215.86 305.78 221.22 315.60 218.70 C 324.97 216.54 331.25 208.43 335.51 200.35 Z" />
</g>
<g id="#a1a1a1ff">
<path fill="#a1a1a1" opacity="1.00" d=" M 302.60 187.03 C 306.35 187.17 310.13 187.38 313.88 186.95 C 316.11 188.65 317.90 190.88 318.01 193.81 C 315.28 193.80 312.54 193.90 309.81 194.11 C 311.13 192.59 312.30 190.95 313.43 189.29 C 311.29 189.27 309.15 189.27 307.02 189.29 C 307.63 190.92 308.25 192.56 308.89 194.18 C 306.70 194.33 304.51 194.47 302.33 194.70 C 302.25 192.14 302.31 189.57 302.60 187.03 Z" />
</g>
<g id="#8b8b8bff">
<path fill="#8b8b8b" opacity="1.00" d=" M 307.02 189.29 C 309.15 189.27 311.29 189.27 313.43 189.29 C 312.30 190.95 311.13 192.59 309.81 194.11 L 308.89 194.18 C 308.25 192.56 307.63 190.92 307.02 189.29 Z" />
<path fill="#8b8b8b" opacity="1.00" d=" M 301.94 323.86 C 308.41 321.87 315.69 321.01 322.02 323.95 C 332.51 328.37 340.27 338.59 342.26 349.74 C 341.77 349.65 340.78 349.48 340.29 349.40 C 340.49 353.13 340.14 356.92 338.43 360.31 C 338.78 354.16 340.44 347.56 337.16 341.88 C 332.35 332.20 321.77 324.19 310.50 325.93 C 306.98 326.20 303.48 326.67 299.98 327.12 C 300.63 326.03 301.28 324.95 301.94 323.86 Z" />
</g>
<g id="#c3c3c3ff">
<path fill="#c3c3c3" opacity="1.00" d=" M 184.23 192.94 C 186.83 199.59 185.16 206.81 186.44 213.67 C 186.70 214.73 186.87 216.18 188.20 216.41 C 191.82 217.54 195.63 217.85 199.33 218.59 C 199.72 220.54 200.11 222.50 200.51 224.46 C 203.26 224.94 206.13 225.14 208.68 226.35 C 209.98 227.43 210.40 229.22 211.20 230.67 C 210.08 232.37 208.91 234.07 208.08 235.94 C 212.34 239.90 218.79 240.80 222.84 245.14 C 224.71 247.37 225.80 250.13 227.63 252.40 C 230.59 252.98 233.62 252.48 236.59 252.28 C 237.22 256.27 237.23 260.33 236.59 264.33 C 234.65 265.26 232.72 266.22 230.81 267.20 C 233.44 270.44 237.20 272.26 240.74 274.31 C 244.26 276.33 244.84 280.73 247.23 283.71 C 250.46 285.61 254.69 285.84 257.31 288.72 C 258.27 292.26 256.74 296.47 259.66 299.43 C 261.50 297.53 263.31 295.60 265.11 293.67 C 268.82 295.86 273.15 298.06 277.56 296.68 C 282.06 293.56 278.96 287.84 279.27 283.48 C 279.68 276.81 280.09 269.30 285.17 264.34 C 286.54 267.37 287.01 270.66 287.36 273.94 C 287.67 278.38 291.92 282.06 290.05 286.69 C 287.84 281.97 286.45 276.91 283.99 272.31 C 281.13 278.69 281.97 286.06 283.23 292.74 C 286.46 300.74 290.57 309.11 298.12 313.89 C 301.77 316.75 306.67 316.26 311.03 316.24 C 316.58 315.93 322.45 315.23 327.24 312.18 C 330.87 309.17 333.77 305.36 336.62 301.63 C 339.86 297.50 339.72 292.06 340.28 287.11 C 340.72 286.23 341.15 285.35 341.58 284.46 C 345.28 289.46 342.39 295.89 344.64 301.39 C 343.12 301.62 341.61 301.86 340.09 302.10 C 339.26 305.05 338.89 308.37 336.70 310.69 C 334.27 313.28 331.68 315.70 329.44 318.45 C 321.93 318.35 314.54 319.81 307.06 320.18 C 303.64 320.42 299.85 320.71 297.25 323.25 C 292.71 327.49 288.51 332.08 284.04 336.41 C 285.13 337.71 285.74 340.09 287.81 339.90 C 291.37 337.94 295.05 334.77 294.98 330.36 C 295.00 326.61 298.97 325.00 301.94 323.86 C 301.28 324.95 300.63 326.03 299.98 327.12 C 303.48 326.67 306.98 326.20 310.50 325.93 C 314.28 328.41 319.14 328.49 322.74 331.28 C 326.72 334.31 330.10 338.20 332.29 342.72 C 333.86 345.97 335.53 349.18 337.63 352.13 C 337.64 348.71 337.58 345.28 337.16 341.88 C 340.44 347.56 338.78 354.16 338.43 360.31 C 336.09 367.16 332.02 373.18 327.76 378.96 C 321.94 383.46 314.46 385.08 307.23 383.91 C 302.23 380.97 296.99 378.25 292.87 374.08 C 291.71 371.87 290.70 369.59 289.72 367.30 C 289.73 364.71 289.92 362.07 289.29 359.53 C 288.08 354.82 287.99 349.85 286.12 345.31 C 284.20 346.61 281.87 347.83 281.29 350.29 C 279.75 355.05 279.20 360.10 277.06 364.68 C 273.41 358.44 271.88 351.32 269.16 344.71 C 265.71 343.11 262.06 346.76 258.44 345.66 C 256.61 345.18 254.86 344.46 253.10 343.82 C 252.53 339.72 252.64 335.44 255.68 332.28 C 252.80 332.10 249.88 332.19 247.12 333.09 C 244.43 333.70 241.30 334.96 238.75 333.27 C 235.93 329.71 236.97 324.84 237.40 320.69 C 239.50 320.22 241.60 319.74 243.70 319.28 C 244.32 316.05 244.00 312.73 241.19 310.62 C 240.80 310.99 240.02 311.72 239.64 312.09 C 239.73 314.25 239.81 316.40 239.90 318.56 C 236.15 317.67 232.30 317.34 228.46 317.48 C 225.97 313.73 223.69 309.12 219.09 307.64 C 217.22 306.69 214.12 306.53 213.91 303.89 C 213.34 299.66 219.26 298.64 219.88 294.78 C 220.11 292.62 219.84 290.45 219.71 288.29 C 217.95 288.21 216.20 288.14 214.45 288.08 C 213.45 290.76 212.47 293.45 211.54 296.16 C 209.29 295.87 207.08 295.37 204.95 294.60 C 205.76 293.11 206.57 291.64 207.38 290.15 C 206.72 287.59 205.68 284.93 206.37 282.27 C 206.54 280.41 207.61 278.52 207.17 276.67 C 203.33 274.39 198.17 275.10 194.67 272.27 C 192.60 266.49 196.48 260.10 194.25 254.31 C 192.49 253.00 190.37 252.32 188.37 251.48 C 186.81 242.32 186.29 233.03 185.17 223.82 C 183.62 213.59 184.45 203.23 184.23 192.94 M 308.09 349.31 C 307.52 353.10 306.33 357.71 309.00 360.98 C 310.89 357.14 310.04 352.75 310.00 348.64 C 309.52 348.81 308.56 349.14 308.09 349.31 M 311.94 349.14 C 311.56 352.71 311.54 356.32 311.75 359.91 C 312.38 360.36 313.65 361.26 314.28 361.71 C 315.54 357.64 315.11 353.38 314.68 349.22 C 314.00 349.20 312.62 349.16 311.94 349.14 M 299.78 351.48 C 299.81 353.49 299.82 355.51 299.83 357.54 C 301.91 357.35 303.75 356.42 305.31 355.06 C 304.03 353.05 302.36 351.35 299.78 351.48 M 317.58 353.66 C 317.60 354.51 317.63 356.21 317.64 357.06 C 318.90 357.48 320.16 357.90 321.42 358.34 C 321.43 356.74 321.44 355.16 321.45 353.57 C 320.48 353.60 318.55 353.64 317.58 353.66 Z" />
</g>
<g id="#b2b2b2ff">
<path fill="#b2b2b2" opacity="1.00" d=" M 282.20 198.97 C 282.01 196.92 282.96 195.07 283.86 193.31 C 285.04 195.88 285.96 198.56 286.91 201.23 C 284.23 204.48 285.22 208.75 286.74 212.27 C 289.62 219.77 296.07 225.64 303.51 228.43 C 310.98 230.47 319.65 229.84 325.95 224.99 C 331.56 221.41 334.72 215.38 337.93 209.77 C 337.29 213.59 337.03 217.62 335.03 221.03 C 332.43 225.72 327.72 228.62 323.25 231.28 C 317.09 235.17 309.39 234.39 302.53 233.41 C 292.82 231.34 286.81 222.23 283.81 213.40 C 282.51 208.71 282.34 203.80 282.20 198.97 Z" />
</g>
<g id="#878787ff">
<path fill="#878787" opacity="1.00" d=" M 180.25 196.51 C 180.96 196.32 182.39 195.93 183.10 195.74 C 183.60 220.58 183.18 245.43 183.49 270.27 C 182.50 271.74 181.10 273.12 181.07 275.02 C 180.46 283.33 180.57 291.67 180.94 299.99 C 180.83 314.25 181.30 328.51 180.58 342.77 C 176.12 342.56 171.66 341.61 167.19 341.96 C 164.10 342.65 165.04 346.61 164.47 348.93 C 163.04 347.74 161.61 346.57 160.16 345.41 C 160.91 344.36 161.66 343.33 162.42 342.29 C 161.62 341.42 160.82 340.55 160.03 339.69 C 162.48 339.50 164.93 339.28 167.38 339.02 C 165.91 337.64 164.47 335.59 162.15 336.14 C 156.31 336.78 151.01 339.80 145.12 340.28 C 145.63 339.06 146.14 337.85 146.66 336.64 C 148.42 336.55 150.18 336.46 151.95 336.36 C 152.30 335.12 152.65 333.88 153.01 332.64 C 150.16 330.51 147.84 327.78 146.17 324.63 C 142.94 324.79 139.69 325.10 136.47 324.68 C 134.79 322.72 133.75 320.33 132.58 318.06 C 128.76 317.88 124.95 318.29 121.24 319.22 C 120.77 335.14 121.21 351.08 120.97 367.00 C 120.93 374.47 121.35 381.97 120.43 389.41 C 119.18 398.15 122.79 407.18 119.55 415.69 C 117.81 419.97 116.59 424.46 116.69 429.12 C 116.59 432.42 116.62 435.72 116.73 439.03 C 116.28 438.98 115.37 438.89 114.92 438.84 C 114.52 432.56 115.07 426.28 115.07 420.00 C 115.04 384.06 114.78 348.11 114.71 312.16 C 116.43 312.69 118.15 313.23 119.87 313.78 C 119.85 308.69 120.13 303.61 120.51 298.54 C 120.98 292.70 119.56 286.89 120.16 281.06 C 122.02 264.60 120.04 247.99 121.38 231.51 C 124.77 230.92 128.19 229.83 131.66 230.32 C 133.97 231.77 133.38 234.80 133.36 237.10 C 132.90 242.21 132.85 247.35 133.38 252.46 C 136.89 252.24 140.39 252.10 143.90 252.01 C 143.86 256.82 144.04 261.64 144.64 266.42 C 146.29 264.52 147.89 262.59 149.45 260.62 C 150.36 260.98 151.26 261.40 152.13 261.86 C 154.08 265.27 153.93 269.55 156.19 272.82 C 157.30 274.58 159.52 274.63 161.36 274.91 C 161.54 272.07 160.99 268.96 162.29 266.35 C 166.97 261.64 173.86 263.81 179.67 264.11 C 180.20 253.42 179.75 242.70 179.89 232.00 C 179.66 224.65 180.80 217.31 180.21 209.97 C 179.84 205.49 179.90 200.99 180.25 196.51 M 167.98 270.31 C 172.75 270.91 177.58 270.59 182.37 270.38 C 182.36 269.50 182.33 267.76 182.32 266.89 C 177.55 266.90 172.76 266.33 168.01 266.85 C 165.82 267.23 166.05 269.71 167.98 270.31 Z" />
<path fill="#878787" opacity="1.00" d=" M 285.05 281.88 C 286.73 283.97 288.31 286.14 289.77 288.39 C 290.53 289.57 291.28 290.76 292.10 291.92 C 290.93 291.80 289.77 291.68 288.61 291.57 C 290.51 297.91 295.58 302.44 300.71 306.28 C 305.59 309.91 312.18 309.76 317.91 308.82 C 323.11 307.88 326.85 303.88 330.22 300.14 C 333.50 296.93 335.74 292.88 338.65 289.37 L 339.09 288.80 C 337.35 293.51 335.27 298.11 332.38 302.24 C 328.16 308.60 320.18 311.18 312.93 311.89 C 304.86 311.62 296.35 308.23 291.59 301.44 C 287.55 295.75 284.68 288.98 285.05 281.88 Z" />
</g>
<g id="#2e2e2eff">
<path fill="#2e2e2e" opacity="1.00" d=" M 313.46 220.47 C 324.70 218.87 332.62 209.56 337.78 200.16 C 338.11 201.63 338.43 203.12 338.68 204.62 C 336.79 207.76 335.25 211.13 332.95 214.01 C 330.53 216.81 327.57 219.08 325.00 221.73 C 320.31 222.95 315.70 224.68 310.85 225.13 C 303.75 225.01 296.43 221.56 292.89 215.19 C 299.36 218.06 306.08 222.16 313.46 220.47 Z" />
</g>
<g id="#8f8f8fff">
<path fill="#8f8f8f" opacity="1.00" d=" M 286.74 212.27 C 285.22 208.75 284.23 204.48 286.91 201.23 C 287.72 202.93 288.65 204.59 289.47 206.29 C 289.53 206.82 289.65 207.86 289.71 208.38 C 288.95 209.99 288.15 211.89 289.38 213.51 C 293.30 220.27 299.76 226.49 307.96 227.01 C 313.89 227.34 321.74 227.88 325.00 221.73 C 327.57 219.08 330.53 216.81 332.95 214.01 C 335.25 211.13 336.79 207.76 338.68 204.62 L 338.77 205.44 C 338.48 206.88 338.20 208.33 337.93 209.77 C 334.72 215.38 331.56 221.41 325.95 224.99 C 319.65 229.84 310.98 230.47 303.51 228.43 C 296.07 225.64 289.62 219.77 286.74 212.27 Z" />
</g>
<g id="#b1b1b1ff">
<path fill="#b1b1b1" opacity="1.00" d=" M 72.11 226.70 C 73.13 231.41 73.24 236.23 73.01 241.02 C 72.77 246.44 74.30 251.69 74.78 257.05 C 75.23 264.61 75.45 272.20 75.77 279.77 C 76.32 284.01 81.17 284.59 84.59 284.81 C 85.69 289.05 86.29 293.40 86.50 297.77 C 89.76 297.67 93.06 297.22 96.30 297.76 C 101.85 303.11 95.66 310.36 96.19 316.58 C 97.28 317.90 99.05 319.20 100.85 318.61 C 104.08 317.65 107.29 316.57 110.68 316.32 C 112.58 308.83 110.40 300.97 112.89 293.59 C 112.97 304.74 112.74 315.89 112.87 327.04 C 111.72 336.69 113.41 346.33 112.97 355.99 C 113.31 365.36 111.57 374.64 111.94 384.00 C 112.11 389.50 112.42 395.08 111.02 400.46 C 110.12 399.49 109.19 398.56 108.42 397.49 C 107.99 393.94 108.79 390.35 108.29 386.80 C 107.85 383.86 106.74 381.09 105.78 378.30 C 101.35 378.10 96.31 378.40 93.18 374.66 C 94.55 373.32 95.93 372.00 97.31 370.68 C 96.50 368.58 95.68 366.49 94.87 364.39 C 93.00 364.47 91.13 364.54 89.26 364.61 C 87.81 361.51 86.55 358.26 84.50 355.49 C 82.85 353.23 79.83 353.18 77.31 352.84 C 76.00 349.64 75.36 346.20 75.74 342.74 C 76.32 336.48 74.75 330.29 75.25 324.04 C 75.50 321.55 75.29 319.05 74.56 316.66 C 73.85 318.15 73.16 319.66 72.53 321.19 C 71.57 295.81 71.59 270.40 71.36 245.01 C 71.29 238.89 71.85 232.80 72.11 226.70 Z" />
</g>
<g id="#747474ff">
<path fill="#747474" opacity="1.00" d=" M 301.58 242.33 C 306.30 241.26 311.08 239.73 315.98 240.40 C 320.03 240.98 323.76 242.85 327.30 244.83 C 327.13 245.75 326.96 246.68 326.80 247.61 C 322.22 244.01 316.33 243.45 310.72 244.04 C 307.59 244.02 304.45 243.63 301.58 242.33 Z" />
<path fill="#747474" opacity="1.00" d=" M 340.29 349.40 C 340.78 349.48 341.77 349.65 342.26 349.74 C 343.46 355.73 342.86 361.84 342.03 367.83 C 341.52 368.15 340.51 368.79 340.01 369.12 C 339.89 367.39 339.75 365.67 339.62 363.95 C 335.90 369.11 333.48 375.60 327.76 378.96 C 332.02 373.18 336.09 367.16 338.43 360.31 C 340.14 356.92 340.49 353.13 340.29 349.40 Z" />
</g>
<g id="#7b7b7bff">
<path fill="#7b7b7b" opacity="1.00" d=" M 327.30 244.83 C 335.01 249.34 339.41 257.58 341.90 265.89 C 342.52 272.06 342.32 278.30 341.58 284.46 C 341.15 285.35 340.72 286.23 340.28 287.11 C 339.98 287.53 339.39 288.38 339.09 288.80 L 338.65 289.37 C 338.48 287.91 338.31 286.44 338.14 284.98 C 337.03 285.69 335.91 286.38 334.82 287.13 C 336.42 278.49 340.59 269.68 337.44 260.86 C 335.51 255.38 331.55 250.86 326.80 247.61 C 326.96 246.68 327.13 245.75 327.30 244.83 Z" />
</g>
<g id="#c9c9c9ff">
<path fill="#c9c9c9" opacity="1.00" d=" M 346.93 262.91 C 351.23 262.12 355.61 261.99 359.97 262.35 C 359.57 264.86 358.95 267.34 358.81 269.89 C 358.86 271.07 360.17 271.60 361.18 271.68 C 364.94 272.18 368.74 272.09 372.52 272.25 C 373.43 273.63 374.35 275.02 375.27 276.42 C 377.79 276.32 380.34 276.38 382.83 275.87 C 384.88 274.98 386.35 273.20 388.28 272.10 C 390.08 272.11 391.80 272.74 393.54 273.16 C 394.15 276.45 393.86 280.31 396.06 283.04 C 402.11 286.63 410.81 280.94 415.79 287.18 C 416.39 286.13 416.98 285.08 417.59 284.04 C 420.84 300.85 423.31 317.85 423.93 334.98 C 424.28 343.75 423.02 352.62 424.82 361.29 C 425.73 380.16 424.73 399.09 425.14 417.98 C 425.33 423.09 425.12 428.20 424.84 433.31 C 423.17 423.95 423.03 414.40 422.91 404.92 C 422.67 400.70 419.86 397.25 418.72 393.27 C 417.93 395.50 417.01 397.70 415.98 399.83 C 414.76 394.77 414.79 389.42 412.66 384.60 C 412.08 386.58 411.53 388.58 410.99 390.58 C 407.04 390.57 403.18 389.74 399.35 388.84 C 394.84 387.77 389.91 388.51 385.67 386.42 C 382.62 384.93 381.81 381.35 380.48 378.53 C 378.16 378.47 375.59 378.90 373.62 377.38 C 369.92 374.49 365.06 375.01 360.66 374.61 C 360.19 372.53 359.72 370.45 359.25 368.38 C 355.24 368.18 351.22 368.08 347.23 368.54 C 346.30 366.50 345.38 364.47 344.53 362.42 C 343.88 364.30 343.19 366.19 342.03 367.83 C 342.86 361.84 343.46 355.73 342.26 349.74 C 340.27 338.59 332.51 328.37 322.02 323.95 C 315.69 321.01 308.41 321.87 301.94 323.86 C 298.97 325.00 295.00 326.61 294.98 330.36 C 295.05 334.77 291.37 337.94 287.81 339.90 C 285.74 340.09 285.13 337.71 284.04 336.41 C 288.51 332.08 292.71 327.49 297.25 323.25 C 299.85 320.71 303.64 320.42 307.06 320.18 C 314.54 319.81 321.93 318.35 329.44 318.45 C 331.68 315.70 334.27 313.28 336.70 310.69 C 338.89 308.37 339.26 305.05 340.09 302.10 C 341.61 301.86 343.12 301.62 344.64 301.39 C 342.39 295.89 345.28 289.46 341.58 284.46 C 342.32 278.30 342.52 272.06 341.90 265.89 C 343.82 270.75 344.38 275.95 344.63 281.13 C 347.11 277.78 349.18 273.91 349.41 269.68 C 348.95 267.31 348.08 265.03 346.93 262.91 Z" />
</g>
<g id="#1d1d1dff">
<path fill="#1d1d1d" opacity="1.00" d=" M 167.98 270.31 C 166.05 269.71 165.82 267.23 168.01 266.85 C 172.76 266.33 177.55 266.90 182.32 266.89 C 182.33 267.76 182.36 269.50 182.37 270.38 C 177.58 270.59 172.75 270.91 167.98 270.31 Z" />
</g>
<g id="#949494ff">
<path fill="#949494" opacity="1.00" d=" M 301.40 267.42 C 307.60 266.45 313.68 269.09 319.91 268.28 C 319.85 270.37 319.70 273.69 316.86 273.70 C 311.33 273.60 305.91 275.04 300.38 274.75 C 300.24 272.38 298.76 268.92 301.40 267.42 Z" />
</g>
<g id="#818181ff">
<path fill="#818181" opacity="1.00" d=" M 183.49 270.27 C 185.40 278.05 184.40 286.07 184.62 293.99 C 184.80 302.17 184.31 310.37 185.01 318.54 C 184.16 331.01 185.25 343.51 185.07 355.99 C 185.25 370.25 185.16 384.50 185.43 398.76 C 184.98 410.85 185.41 422.95 185.00 435.05 C 176.90 434.15 168.70 434.52 160.65 433.19 C 152.75 431.83 144.70 431.73 136.79 430.44 C 131.10 429.48 125.34 429.20 119.58 429.21 C 118.86 429.19 117.42 429.14 116.69 429.12 C 116.59 424.46 117.81 419.97 119.55 415.69 C 122.79 407.18 119.18 398.15 120.43 389.41 C 121.35 381.97 120.93 374.47 120.97 367.00 C 121.21 351.08 120.77 335.14 121.24 319.22 C 124.95 318.29 128.76 317.88 132.58 318.06 C 133.75 320.33 134.79 322.72 136.47 324.68 C 139.69 325.10 142.94 324.79 146.17 324.63 C 147.84 327.78 150.16 330.51 153.01 332.64 C 152.65 333.88 152.30 335.12 151.95 336.36 C 150.18 336.46 148.42 336.55 146.66 336.64 C 146.14 337.85 145.63 339.06 145.12 340.28 C 151.01 339.80 156.31 336.78 162.15 336.14 C 164.47 335.59 165.91 337.64 167.38 339.02 C 164.93 339.28 162.48 339.50 160.03 339.69 C 160.82 340.55 161.62 341.42 162.42 342.29 C 161.66 343.33 160.91 344.36 160.16 345.41 C 161.61 346.57 163.04 347.74 164.47 348.93 C 165.04 346.61 164.10 342.65 167.19 341.96 C 171.66 341.61 176.12 342.56 180.58 342.77 C 181.30 328.51 180.83 314.25 180.94 299.99 C 180.57 291.67 180.46 283.33 181.07 275.02 C 181.10 273.12 182.50 271.74 183.49 270.27 M 166.19 344.86 C 167.33 345.79 168.38 347.10 170.00 347.12 C 174.41 347.66 178.87 347.45 183.29 347.25 C 183.26 346.47 183.20 344.92 183.17 344.15 C 177.53 344.27 171.56 342.56 166.19 344.86 Z" />
<path fill="#818181" opacity="1.00" d=" M 308.09 349.31 C 308.56 349.14 309.52 348.81 310.00 348.64 C 310.04 352.75 310.89 357.14 309.00 360.98 C 306.33 357.71 307.52 353.10 308.09 349.31 Z" />
</g>
<g id="#adadadff">
<path fill="#adadad" opacity="1.00" d=" M 283.23 292.74 C 281.97 286.06 281.13 278.69 283.99 272.31 C 286.45 276.91 287.84 281.97 290.05 286.69 C 289.98 287.11 289.84 287.96 289.77 288.39 C 288.31 286.14 286.73 283.97 285.05 281.88 C 284.68 288.98 287.55 295.75 291.59 301.44 C 296.35 308.23 304.86 311.62 312.93 311.89 C 320.18 311.18 328.16 308.60 332.38 302.24 C 335.27 298.11 337.35 293.51 339.09 288.80 C 339.39 288.38 339.98 287.53 340.28 287.11 C 339.72 292.06 339.86 297.50 336.62 301.63 C 333.77 305.36 330.87 309.17 327.24 312.18 C 322.45 315.23 316.58 315.93 311.03 316.24 C 306.67 316.26 301.77 316.75 298.12 313.89 C 290.57 309.11 286.46 300.74 283.23 292.74 Z" />
</g>
<g id="#2c2c2cff">
<path fill="#2c2c2c" opacity="1.00" d=" M 334.82 287.13 C 335.91 286.38 337.03 285.69 338.14 284.98 C 338.31 286.44 338.48 287.91 338.65 289.37 C 335.74 292.88 333.50 296.93 330.22 300.14 C 324.33 303.53 318.07 307.19 311.01 306.85 C 304.40 307.36 298.74 303.17 294.53 298.53 C 296.03 298.65 297.54 298.77 299.04 298.96 C 304.61 301.42 310.87 303.15 316.96 301.67 C 324.82 299.95 330.76 293.76 334.82 287.13 Z" />
<path fill="#2c2c2c" opacity="1.00" d=" M 327.76 378.96 C 333.48 375.60 335.90 369.11 339.62 363.95 C 339.75 365.67 339.89 367.39 340.01 369.12 L 340.04 369.96 C 338.39 372.88 336.59 375.72 335.12 378.74 C 333.35 380.32 331.51 381.83 329.74 383.42 C 326.46 384.76 323.33 386.42 320.09 387.86 C 310.42 391.22 298.96 387.09 293.73 378.25 C 298.16 380.30 302.14 383.75 307.23 383.91 C 314.46 385.08 321.94 383.46 327.76 378.96 Z" />
</g>
<g id="#636363ff">
<path fill="#636363" opacity="1.00" d=" M 288.61 291.57 C 289.77 291.68 290.93 291.80 292.10 291.92 C 294.19 294.47 296.60 296.74 299.04 298.96 C 297.54 298.77 296.03 298.65 294.53 298.53 C 298.74 303.17 304.40 307.36 311.01 306.85 C 318.07 307.19 324.33 303.53 330.22 300.14 C 326.85 303.88 323.11 307.88 317.91 308.82 C 312.18 309.76 305.59 309.91 300.71 306.28 C 295.58 302.44 290.51 297.91 288.61 291.57 Z" />
<path fill="#636363" opacity="1.00" d=" M 287.47 373.02 C 287.91 372.56 288.78 371.64 289.22 371.19 C 290.44 372.13 291.68 373.08 292.87 374.08 C 296.99 378.25 302.23 380.97 307.23 383.91 C 302.14 383.75 298.16 380.30 293.73 378.25 C 298.96 387.09 310.42 391.22 320.09 387.86 C 323.33 386.42 326.46 384.76 329.74 383.42 C 327.95 386.34 325.69 389.12 322.39 390.37 C 313.87 394.03 303.33 391.72 296.85 385.16 C 294.51 382.74 292.32 380.18 290.08 377.68 C 289.24 376.10 288.36 374.55 287.47 373.02 Z" />
</g>
<g id="#abababff">
<path fill="#ababab" opacity="1.00" d=" M 113.33 291.59 C 114.81 298.07 113.32 304.75 114.67 311.24 L 114.71 312.16 C 114.78 348.11 115.04 384.06 115.07 420.00 C 115.07 426.28 114.52 432.56 114.92 438.84 C 115.37 438.89 116.28 438.98 116.73 439.03 C 128.63 440.09 140.60 441.21 152.31 443.63 C 145.44 444.66 138.59 443.02 131.78 442.28 C 126.41 441.49 120.91 441.69 115.65 440.24 C 110.26 438.71 104.57 439.12 99.11 437.98 C 93.72 436.83 88.13 437.31 82.75 436.18 C 79.52 435.49 77.65 432.50 76.20 429.80 C 74.59 426.81 73.17 423.57 73.31 420.10 C 73.47 400.80 73.12 381.49 72.88 362.20 C 73.09 348.53 72.54 334.86 72.53 321.19 C 73.16 319.66 73.85 318.15 74.56 316.66 C 75.29 319.05 75.50 321.55 75.25 324.04 C 74.75 330.29 76.32 336.48 75.74 342.74 C 75.36 346.20 76.00 349.64 77.31 352.84 C 79.83 353.18 82.85 353.23 84.50 355.49 C 86.55 358.26 87.81 361.51 89.26 364.61 C 91.13 364.54 93.00 364.47 94.87 364.39 C 95.68 366.49 96.50 368.58 97.31 370.68 C 95.93 372.00 94.55 373.32 93.18 374.66 C 96.31 378.40 101.35 378.10 105.78 378.30 C 106.74 381.09 107.85 383.86 108.29 386.80 C 108.79 390.35 107.99 393.94 108.42 397.49 C 109.19 398.56 110.12 399.49 111.02 400.46 C 112.42 395.08 112.11 389.50 111.94 384.00 C 111.57 374.64 113.31 365.36 112.97 355.99 C 113.41 346.33 111.72 336.69 112.87 327.04 C 112.74 315.89 112.97 304.74 112.89 293.59 C 113.00 293.09 113.22 292.09 113.33 291.59 Z" />
</g>
<g id="#b7b7b7ff">
<path fill="#b7b7b7" opacity="1.00" d=" M 185.01 318.54 C 187.47 322.37 187.16 327.02 187.33 331.38 C 188.67 332.16 190.02 332.95 191.37 333.74 C 191.53 335.03 191.69 336.32 191.86 337.62 C 194.49 338.03 197.11 338.49 199.72 339.00 C 196.76 339.60 193.78 340.12 190.80 340.61 C 194.51 344.82 200.39 345.18 205.45 346.67 C 205.45 350.62 205.18 354.56 204.64 358.47 C 203.00 359.67 201.38 360.89 199.78 362.14 C 203.24 362.84 206.94 363.83 210.39 362.55 C 211.87 360.73 212.90 358.60 214.04 356.56 C 215.69 358.47 217.78 360.34 217.94 363.05 C 219.06 368.43 217.68 375.52 222.92 379.07 C 228.39 381.39 234.70 378.67 240.25 380.75 C 241.63 381.73 242.38 383.33 243.39 384.66 C 241.58 386.13 239.60 387.46 238.18 389.34 C 237.03 391.42 236.94 394.41 238.71 396.19 C 242.58 397.18 246.61 397.35 250.55 398.00 C 250.02 402.07 250.06 406.19 250.34 410.28 C 255.39 411.14 260.49 411.95 265.63 411.50 C 265.22 413.07 264.80 414.64 264.41 416.22 C 266.77 416.81 269.14 417.36 271.50 417.97 C 269.19 418.64 266.87 419.31 264.56 419.99 C 266.88 420.71 269.22 421.38 271.55 422.09 C 269.40 422.54 267.26 423.00 265.13 423.48 C 266.65 425.26 268.16 427.05 269.68 428.84 C 272.77 427.46 276.11 426.81 279.49 427.19 C 280.44 433.03 280.97 438.93 281.28 444.84 C 291.54 445.52 302.18 443.70 312.09 447.16 C 309.27 448.91 306.94 451.27 304.30 453.26 C 301.30 454.81 297.96 455.53 294.80 456.67 C 297.38 456.70 300.02 456.96 302.56 456.36 C 308.64 454.75 312.52 448.80 318.75 447.57 C 322.96 446.85 327.23 447.84 331.46 447.41 C 333.02 447.47 334.78 446.90 336.21 447.74 C 336.98 449.24 337.53 450.85 338.13 452.44 C 333.55 452.55 328.89 452.35 324.42 453.53 C 321.61 454.29 319.56 456.50 317.43 458.35 C 318.24 458.93 319.05 459.51 319.87 460.10 C 315.24 460.21 310.24 460.82 306.17 458.11 C 305.04 458.39 303.90 458.68 302.77 458.94 C 290.45 460.08 278.27 456.94 266.00 456.27 C 261.90 456.13 257.96 454.94 253.90 454.51 C 245.59 453.92 237.21 454.08 228.96 452.79 C 221.29 451.98 213.67 450.39 205.93 450.67 C 202.54 450.86 199.40 449.36 196.06 449.11 C 189.92 448.70 183.73 448.31 177.71 446.95 C 178.33 446.86 179.56 446.70 180.18 446.61 C 181.75 446.69 183.32 446.79 184.89 446.90 C 185.55 446.94 186.87 447.03 187.53 447.08 C 186.83 430.97 187.29 414.81 185.43 398.76 C 185.16 384.50 185.25 370.25 185.07 355.99 C 185.25 343.51 184.16 331.01 185.01 318.54 Z" />
</g>
<g id="#1c1c1cff">
<path fill="#1c1c1c" opacity="1.00" d=" M 166.19 344.86 C 171.56 342.56 177.53 344.27 183.17 344.15 C 183.20 344.92 183.26 346.47 183.29 347.25 C 178.87 347.45 174.41 347.66 170.00 347.12 C 168.38 347.10 167.33 345.79 166.19 344.86 Z" />
</g>
<g id="#8e8e8eff">
<path fill="#8e8e8e" opacity="1.00" d=" M 311.94 349.14 C 312.62 349.16 314.00 349.20 314.68 349.22 C 315.11 353.38 315.54 357.64 314.28 361.71 C 313.65 361.26 312.38 360.36 311.75 359.91 C 311.54 356.32 311.56 352.71 311.94 349.14 Z" />
<path fill="#8e8e8e" opacity="1.00" d=" M 284.85 361.99 C 285.91 362.67 286.98 363.34 288.03 364.05 C 288.60 365.13 289.17 366.20 289.72 367.30 C 290.70 369.59 291.71 371.87 292.87 374.08 C 291.68 373.08 290.44 372.13 289.22 371.19 C 288.78 371.64 287.91 372.56 287.47 373.02 C 285.18 369.80 284.75 365.84 284.85 361.99 Z" />
</g>
<g id="#6d6d6dff">
<path fill="#6d6d6d" opacity="1.00" d=" M 299.78 351.48 C 302.36 351.35 304.03 353.05 305.31 355.06 C 303.75 356.42 301.91 357.35 299.83 357.54 C 299.82 355.51 299.81 353.49 299.78 351.48 Z" />
<path fill="#6d6d6d" opacity="1.00" d=" M 485.01 491.25 C 486.35 490.65 487.52 492.91 485.83 493.22 C 484.44 493.84 483.31 491.57 485.01 491.25 Z" />
</g>
<g id="#a9a9a9ff">
<path fill="#a9a9a9" opacity="1.00" d=" M 282.75 366.06 C 282.45 361.37 282.42 356.43 285.00 352.30 C 286.55 356.06 287.27 360.07 288.03 364.05 C 286.98 363.34 285.91 362.67 284.85 361.99 C 284.75 365.84 285.18 369.80 287.47 373.02 C 288.36 374.55 289.24 376.10 290.08 377.68 C 290.53 379.53 290.49 381.68 291.90 383.14 C 295.95 387.57 300.50 392.11 306.54 393.57 C 315.53 396.43 326.43 394.00 332.28 386.29 C 334.35 384.31 334.69 381.42 335.12 378.74 C 336.59 375.72 338.39 372.88 340.04 369.96 C 340.14 373.96 340.63 378.20 338.95 381.97 C 336.37 387.97 331.32 392.37 326.27 396.28 C 321.74 399.96 315.56 400.28 309.97 400.14 C 302.71 399.91 297.20 394.43 292.25 389.73 C 286.78 383.11 282.87 374.77 282.75 366.06 Z" />
</g>
<g id="#676767ff">
<path fill="#676767" opacity="1.00" d=" M 317.58 353.66 C 318.55 353.64 320.48 353.60 321.45 353.57 C 321.44 355.16 321.43 356.74 321.42 358.34 C 320.16 357.90 318.90 357.48 317.64 357.06 C 317.63 356.21 317.60 354.51 317.58 353.66 Z" />
</g>
<g id="#9e9e9eff">
<path fill="#9e9e9e" opacity="1.00" d=" M 185.43 398.76 C 187.29 414.81 186.83 430.97 187.53 447.08 C 186.87 447.03 185.55 446.94 184.89 446.90 C 184.92 445.28 184.96 443.68 184.98 442.07 C 184.99 439.73 184.96 437.39 185.00 435.05 C 185.41 422.95 184.98 410.85 185.43 398.76 Z" />
</g>
<g id="#1e1e1eff">
<path fill="#1e1e1e" opacity="1.00" d=" M 116.69 429.12 C 117.42 429.14 118.86 429.19 119.58 429.21 C 121.13 431.34 122.54 433.98 125.26 434.77 C 132.33 437.21 139.76 434.80 147.00 435.31 C 158.38 436.28 169.68 438.16 181.09 438.65 C 183.06 438.62 183.79 440.86 184.98 442.07 C 184.96 443.68 184.92 445.28 184.89 446.90 C 183.32 446.79 181.75 446.69 180.18 446.61 C 175.80 445.80 171.38 445.63 166.95 445.43 C 162.18 444.07 157.19 444.30 152.31 443.63 C 140.60 441.21 128.63 440.09 116.73 439.03 C 116.62 435.72 116.59 432.42 116.69 429.12 Z" />
</g>
<g id="#3a3a3aff">
<path fill="#3a3a3a" opacity="1.00" d=" M 119.58 429.21 C 125.34 429.20 131.10 429.48 136.79 430.44 C 144.70 431.73 152.75 431.83 160.65 433.19 C 168.70 434.52 176.90 434.15 185.00 435.05 C 184.96 437.39 184.99 439.73 184.98 442.07 C 183.79 440.86 183.06 438.62 181.09 438.65 C 169.68 438.16 158.38 436.28 147.00 435.31 C 139.76 434.80 132.33 437.21 125.26 434.77 C 122.54 433.98 121.13 431.34 119.58 429.21 Z" />
</g>
<g id="#808080ff">
<path fill="#808080" opacity="1.00" d=" M 443.22 452.14 C 451.83 449.48 459.86 445.31 468.34 442.30 L 468.36 443.29 L 468.16 444.07 C 460.41 449.66 450.89 451.83 442.14 455.34 C 437.85 457.16 433.33 458.33 429.06 460.18 C 425.96 461.51 423.85 464.25 421.81 466.82 C 422.67 466.99 424.38 467.31 425.24 467.47 C 424.24 468.15 423.31 468.97 422.15 469.34 C 420.72 469.07 419.30 468.77 417.88 468.48 C 420.69 465.71 423.21 462.66 425.38 459.37 C 431.35 457.03 437.09 454.08 443.22 452.14 Z" />
</g>
<g id="#565656ff">
<path fill="#565656" opacity="1.00" d=" M 442.14 455.34 C 450.89 451.83 460.41 449.66 468.16 444.07 C 467.73 445.87 467.39 447.69 467.00 449.51 C 466.89 449.80 466.66 450.36 466.55 450.65 C 452.72 456.11 439.24 462.47 425.24 467.47 C 424.38 467.31 422.67 466.99 421.81 466.82 C 423.85 464.25 425.96 461.51 429.06 460.18 C 433.33 458.33 437.85 457.16 442.14 455.34 Z" />
</g>
<g id="#7d4796ff">
<path fill="#7d4796" opacity="1.00" d=" M 470.02 470.02 C 480.01 469.93 490.01 469.98 500.00 470.02 L 500.00 500.00 L 470.01 500.00 C 469.99 490.01 469.92 480.01 470.02 470.02 M 472.84 490.01 C 474.53 488.28 475.98 486.32 477.79 484.72 C 480.05 482.66 483.68 482.82 485.56 480.30 C 480.02 480.62 473.37 483.82 472.84 490.01 M 475.65 491.09 C 478.46 488.10 481.89 485.88 485.43 483.85 C 481.00 483.54 476.28 486.50 475.65 491.09 M 478.03 492.27 C 480.77 490.89 483.35 489.13 485.41 486.82 C 481.89 486.68 479.28 489.21 478.03 492.27 M 481.57 495.33 C 482.61 498.51 486.46 498.01 488.67 496.77 C 486.81 496.17 484.94 495.65 483.09 495.07 C 485.08 494.64 487.09 494.28 489.10 493.92 C 488.56 492.51 488.72 490.33 486.77 490.14 C 483.53 488.81 480.16 492.08 481.57 495.33 M 490.07 490.74 C 491.43 491.26 492.81 491.76 494.20 492.24 C 492.73 493.86 491.30 495.51 489.95 497.24 C 492.72 497.42 495.86 498.38 498.31 496.55 C 496.82 496.25 495.33 495.98 493.84 495.73 C 495.37 493.98 496.89 492.21 498.22 490.29 C 495.50 490.02 492.70 489.81 490.07 490.74 Z" />
</g>
<g id="#f1d8f6ff">
<path fill="#f1d8f6" opacity="1.00" d=" M 478.03 492.27 C 479.28 489.21 481.89 486.68 485.41 486.82 C 483.35 489.13 480.77 490.89 478.03 492.27 Z" />
</g>
</svg>
