<?xml version="1.0" encoding="UTF-8" ?>
<!DOCTYPE svg PUBLIC "-//W3C//DTD SVG 1.1//EN" "http://www.w3.org/Graphics/SVG/1.1/DTD/svg11.dtd">
<svg width="500pt" height="106pt" viewBox="0 0 500 106" version="1.1" xmlns="http://www.w3.org/2000/svg">
<g id="#ffffffff">
<path fill="#ffffff" opacity="1.00" d=" M 0.00 0.00 L 500.00 0.00 L 500.00 106.00 L 0.00 106.00 L 0.00 0.00 M 176.13 25.66 C 176.88 26.01 177.64 26.36 178.40 26.70 C 180.71 30.98 178.03 35.50 177.10 39.76 C 171.26 40.19 166.22 37.07 161.05 34.92 C 161.93 38.66 164.88 41.18 167.60 43.64 C 165.35 43.31 163.12 42.80 160.87 42.48 C 163.61 46.36 168.06 48.95 172.87 48.92 C 172.35 49.52 171.32 50.72 170.80 51.32 C 174.82 51.56 179.02 51.55 182.72 49.74 C 188.27 47.48 191.52 41.77 192.83 36.17 C 190.94 37.08 189.06 38.00 187.16 38.88 C 187.78 35.25 188.64 31.56 187.25 27.97 C 184.14 25.34 180.01 24.90 176.13 25.66 M 34.67 58.78 C 30.97 72.99 26.79 87.06 23.36 101.34 C 29.62 100.89 36.20 102.46 42.20 100.20 C 44.04 94.65 45.62 89.01 46.86 83.29 C 50.84 83.19 54.81 83.19 58.78 83.26 C 57.29 89.30 55.51 95.27 54.29 101.36 C 60.54 100.85 67.11 102.48 73.10 100.19 C 77.24 86.01 80.90 71.70 84.72 57.44 C 79.01 57.58 73.26 57.11 67.58 57.64 C 63.57 60.04 64.20 65.77 62.57 69.70 C 58.71 69.71 54.85 69.73 50.99 69.71 C 51.34 65.48 53.14 61.58 53.82 57.42 C 48.54 57.51 43.27 57.35 38.00 57.45 C 36.74 57.40 35.75 58.29 34.67 58.78 M 98.39 57.51 C 93.45 57.76 88.09 60.13 86.27 65.06 C 83.14 73.45 81.46 82.30 78.90 90.86 C 78.10 93.88 77.71 98.25 81.20 99.71 C 87.47 102.32 94.43 101.05 101.03 101.33 C 108.31 101.11 116.19 102.38 122.91 98.90 C 128.67 95.66 128.94 88.51 130.70 82.89 C 132.13 76.55 134.90 70.50 135.60 64.03 C 135.96 59.39 130.65 57.44 126.83 57.47 C 117.35 57.43 107.86 57.33 98.39 57.51 M 140.74 57.51 C 140.03 61.44 138.54 65.20 138.07 69.18 C 143.18 72.53 149.17 74.25 155.24 74.63 C 157.53 69.34 160.37 63.15 157.08 57.64 C 151.64 57.28 146.19 57.42 140.74 57.51 M 162.51 57.67 C 164.73 58.45 167.13 59.45 168.26 61.68 C 169.55 65.48 168.21 69.44 167.25 73.15 C 169.20 72.55 170.94 71.48 172.58 70.29 C 171.85 76.05 168.07 81.29 163.21 84.37 C 159.33 86.99 154.48 86.94 150.01 87.54 C 150.24 86.54 150.47 85.54 150.71 84.55 C 145.35 83.98 140.60 81.21 136.76 77.55 C 139.48 77.78 142.13 78.54 144.88 78.56 C 142.14 76.15 139.67 73.46 137.11 70.87 C 135.17 81.19 131.34 91.05 129.28 101.35 C 135.48 101.23 141.70 101.54 147.90 101.20 C 149.16 98.51 149.48 95.52 149.91 92.62 C 150.36 92.52 151.25 92.32 151.70 92.23 C 153.76 95.34 156.02 98.31 158.22 101.33 C 164.90 101.33 171.57 101.38 178.25 101.29 C 175.61 95.63 170.60 91.47 168.06 85.80 C 174.08 86.36 179.51 82.20 181.67 76.77 C 183.24 72.72 184.66 68.43 184.50 64.05 C 184.31 60.11 180.43 57.74 176.83 57.55 C 172.06 57.27 167.27 57.36 162.51 57.67 M 190.30 66.15 C 188.40 70.95 186.30 76.43 188.66 81.46 C 194.45 86.48 202.45 83.49 209.33 84.69 C 210.08 87.11 209.79 90.24 206.92 91.05 C 201.88 92.26 196.61 90.98 191.51 91.77 C 187.25 92.94 184.37 96.52 181.42 99.56 C 181.37 100.02 181.28 100.94 181.24 101.40 C 190.16 101.26 199.08 101.34 208.00 101.35 C 213.01 101.15 218.78 100.28 222.00 95.97 C 224.88 91.93 226.35 86.91 226.62 81.99 C 226.98 78.62 224.60 75.50 221.38 74.66 C 215.80 73.60 209.91 75.43 204.50 73.28 C 204.50 72.40 204.49 70.63 204.49 69.75 C 208.03 65.94 213.45 67.61 218.02 67.20 C 224.17 67.08 229.14 62.43 232.15 57.45 C 222.43 57.46 212.71 57.32 203.00 57.50 C 197.55 57.61 192.32 61.04 190.30 66.15 M 228.21 67.22 C 233.81 67.26 239.40 67.21 245.00 67.29 C 242.37 78.49 239.77 89.75 236.27 100.72 C 241.10 101.99 246.18 101.13 251.12 101.34 C 252.89 101.79 253.34 99.69 253.72 98.49 C 256.52 88.21 259.71 78.00 261.86 67.57 C 265.26 67.02 268.71 67.38 272.13 67.14 C 277.15 66.18 280.22 61.60 282.66 57.52 C 267.84 57.37 253.01 57.39 238.19 57.49 C 233.46 58.48 230.04 62.99 228.21 67.22 M 283.65 61.42 C 280.11 74.79 275.78 87.95 272.34 101.35 C 277.01 101.34 281.68 101.30 286.35 101.41 C 288.46 96.12 289.69 90.54 291.00 85.02 C 291.78 90.47 291.11 96.04 292.40 101.42 C 295.96 101.30 299.53 101.31 303.10 101.38 C 306.07 96.63 308.33 91.47 311.43 86.79 C 310.59 91.73 308.17 96.32 308.06 101.40 C 312.09 101.15 316.21 101.80 320.18 100.94 C 322.62 100.33 322.63 97.45 323.36 95.52 C 326.71 82.78 331.12 70.29 333.86 57.41 C 327.73 57.42 321.60 57.42 315.47 57.44 C 312.24 63.89 308.23 69.89 304.94 76.30 C 304.72 76.95 303.46 78.75 303.16 77.06 C 302.10 70.59 300.93 64.07 300.14 57.53 C 296.42 57.48 292.70 57.24 288.99 57.49 C 286.68 57.67 284.14 58.96 283.65 61.42 M 355.67 57.74 C 349.48 59.73 347.16 66.41 343.56 71.18 C 337.02 81.23 330.10 91.05 323.96 101.34 C 328.98 101.36 334.00 101.32 339.02 101.37 C 340.78 98.38 342.64 95.44 344.59 92.57 C 348.53 92.64 352.47 92.64 356.41 92.60 C 356.86 95.48 357.26 98.37 357.47 101.27 C 362.24 101.41 367.01 101.32 371.78 101.35 C 370.72 86.70 368.44 72.15 367.37 57.51 C 363.47 57.55 359.52 57.04 355.67 57.74 M 384.76 60.65 C 382.17 65.75 381.53 71.59 379.88 77.03 C 378.18 85.19 374.98 93.06 374.14 101.38 C 378.46 101.33 382.78 101.38 387.11 101.29 C 388.24 93.87 391.56 86.93 391.94 79.38 C 394.20 86.83 396.84 94.17 399.82 101.36 C 403.47 101.21 407.26 101.81 410.82 100.78 C 414.09 99.78 415.33 96.25 416.04 93.25 C 419.13 81.31 422.15 69.36 425.57 57.51 C 420.99 57.41 416.40 57.32 411.83 57.59 C 410.14 64.78 408.71 72.13 406.01 79.01 C 404.70 71.45 401.12 64.55 398.45 57.41 C 393.88 57.70 387.75 56.11 384.76 60.65 M 431.13 58.20 C 427.60 59.67 426.87 63.76 426.00 67.04 C 423.27 78.53 419.55 89.78 417.28 101.37 C 421.62 101.35 425.96 101.33 430.30 101.36 C 432.36 94.22 434.23 87.04 435.97 79.83 C 437.47 87.33 440.61 94.39 443.49 101.44 C 447.28 101.20 451.24 101.83 454.91 100.60 C 457.97 99.36 458.88 95.89 459.56 92.99 C 462.36 81.07 466.21 69.43 468.72 57.45 C 464.37 57.42 460.02 57.45 455.67 57.41 C 453.56 64.63 451.58 71.90 450.01 79.27 C 448.18 71.75 444.43 64.90 442.18 57.51 C 438.51 57.57 434.63 56.87 431.13 58.20 Z" />
</g>
<g id="#588197ff">
<path fill="#588197" opacity="1.00" d=" M 176.13 25.66 C 180.01 24.90 184.14 25.34 187.25 27.97 C 188.64 31.56 187.78 35.25 187.16 38.88 C 189.06 38.00 190.94 37.08 192.83 36.17 C 191.52 41.77 188.27 47.48 182.72 49.74 C 179.02 51.55 174.82 51.56 170.80 51.32 C 171.32 50.72 172.35 49.52 172.87 48.92 C 168.06 48.95 163.61 46.36 160.87 42.48 C 163.12 42.80 165.35 43.31 167.60 43.64 C 164.88 41.18 161.93 38.66 161.05 34.92 C 166.22 37.07 171.26 40.19 177.10 39.76 C 178.03 35.50 180.71 30.98 178.40 26.70 C 177.64 26.36 176.88 26.01 176.13 25.66 Z" />
<path fill="#588197" opacity="1.00" d=" M 140.74 57.51 C 146.19 57.42 151.64 57.28 157.08 57.64 C 160.37 63.15 157.53 69.34 155.24 74.63 C 149.17 74.25 143.18 72.53 138.07 69.18 C 138.54 65.20 140.03 61.44 140.74 57.51 Z" />
<path fill="#588197" opacity="1.00" d=" M 162.51 57.67 C 167.27 57.36 172.06 57.27 176.83 57.55 C 180.43 57.74 184.31 60.11 184.50 64.05 C 184.66 68.43 183.24 72.72 181.67 76.77 C 179.51 82.20 174.08 86.36 168.06 85.80 C 170.60 91.47 175.61 95.63 178.25 101.29 C 171.57 101.38 164.90 101.33 158.22 101.33 C 156.02 98.31 153.76 95.34 151.70 92.23 C 151.25 92.32 150.36 92.52 149.91 92.62 C 149.48 95.52 149.16 98.51 147.90 101.20 C 141.70 101.54 135.48 101.23 129.28 101.35 C 131.34 91.05 135.17 81.19 137.11 70.87 C 139.67 73.46 142.14 76.15 144.88 78.56 C 142.13 78.54 139.48 77.78 136.76 77.55 C 140.60 81.21 145.35 83.98 150.71 84.55 C 150.47 85.54 150.24 86.54 150.01 87.54 C 154.48 86.94 159.33 86.99 163.21 84.37 C 168.07 81.29 171.85 76.05 172.58 70.29 C 170.94 71.48 169.20 72.55 167.25 73.15 C 168.21 69.44 169.55 65.48 168.26 61.68 C 167.13 59.45 164.73 58.45 162.51 57.67 Z" />
</g>
<g id="#598298ff">
<path fill="#598298" opacity="1.00" d=" M 34.67 58.78 C 35.75 58.29 36.74 57.40 38.00 57.45 C 43.27 57.35 48.54 57.51 53.82 57.42 C 53.14 61.58 51.34 65.48 50.99 69.71 C 54.85 69.73 58.71 69.71 62.57 69.70 C 64.20 65.77 63.57 60.04 67.58 57.64 C 73.26 57.11 79.01 57.58 84.72 57.44 C 80.90 71.70 77.24 86.01 73.10 100.19 C 67.11 102.48 60.54 100.85 54.29 101.36 C 55.51 95.27 57.29 89.30 58.78 83.26 C 54.81 83.19 50.84 83.19 46.86 83.29 C 45.62 89.01 44.04 94.65 42.20 100.20 C 36.20 102.46 29.62 100.89 23.36 101.34 C 26.79 87.06 30.97 72.99 34.67 58.78 Z" />
<path fill="#598298" opacity="1.00" d=" M 190.30 66.15 C 192.32 61.04 197.55 57.61 203.00 57.50 C 212.71 57.32 222.43 57.46 232.15 57.45 C 229.14 62.43 224.17 67.08 218.02 67.20 C 213.45 67.61 208.03 65.94 204.49 69.75 C 204.49 70.63 204.50 72.40 204.50 73.28 C 209.91 75.43 215.80 73.60 221.38 74.66 C 224.60 75.50 226.98 78.62 226.62 81.99 C 226.35 86.91 224.88 91.93 222.00 95.97 C 218.78 100.28 213.01 101.15 208.00 101.35 C 199.08 101.34 190.16 101.26 181.24 101.40 C 181.28 100.94 181.37 100.02 181.42 99.56 C 184.37 96.52 187.25 92.94 191.51 91.77 C 196.61 90.98 201.88 92.26 206.92 91.05 C 209.79 90.24 210.08 87.11 209.33 84.69 C 202.45 83.49 194.45 86.48 188.66 81.46 C 186.30 76.43 188.40 70.95 190.30 66.15 Z" />
<path fill="#598298" opacity="1.00" d=" M 228.21 67.22 C 230.04 62.99 233.46 58.48 238.19 57.49 C 253.01 57.39 267.84 57.37 282.66 57.52 C 280.22 61.60 277.15 66.18 272.13 67.14 C 268.71 67.38 265.26 67.02 261.86 67.57 C 259.71 78.00 256.52 88.21 253.72 98.49 C 253.34 99.69 252.89 101.79 251.12 101.34 C 246.18 101.13 241.10 101.99 236.27 100.72 C 239.77 89.75 242.37 78.49 245.00 67.29 C 239.40 67.21 233.81 67.26 228.21 67.22 Z" />
<path fill="#598298" opacity="1.00" d=" M 283.65 61.42 C 284.14 58.96 286.68 57.67 288.99 57.49 C 292.70 57.24 296.42 57.48 300.14 57.53 C 300.93 64.07 302.10 70.59 303.16 77.06 C 303.46 78.75 304.72 76.95 304.94 76.30 C 308.23 69.89 312.24 63.89 315.47 57.44 C 321.60 57.42 327.73 57.42 333.86 57.41 C 331.12 70.29 326.71 82.78 323.36 95.52 C 322.63 97.45 322.62 100.33 320.18 100.94 C 316.21 101.80 312.09 101.15 308.06 101.40 C 308.17 96.32 310.59 91.73 311.43 86.79 C 308.33 91.47 306.07 96.63 303.10 101.38 C 299.53 101.31 295.96 101.30 292.40 101.42 C 291.11 96.04 291.78 90.47 291.00 85.02 C 289.69 90.54 288.46 96.12 286.35 101.41 C 281.68 101.30 277.01 101.34 272.34 101.35 C 275.78 87.95 280.11 74.79 283.65 61.42 Z" />
</g>
<g id="#588298ff">
<path fill="#588298" opacity="1.00" d=" M 98.39 57.51 C 107.86 57.33 117.35 57.43 126.83 57.47 C 130.65 57.44 135.96 59.39 135.60 64.03 C 134.90 70.50 132.13 76.55 130.70 82.89 C 128.94 88.51 128.67 95.66 122.91 98.90 C 116.19 102.38 108.31 101.11 101.03 101.33 C 94.43 101.05 87.47 102.32 81.20 99.71 C 77.71 98.25 78.10 93.88 78.90 90.86 C 81.46 82.30 83.14 73.45 86.27 65.06 C 88.09 60.13 93.45 57.76 98.39 57.51 M 103.46 70.52 C 101.85 77.79 98.18 84.74 98.33 92.30 C 102.68 94.73 109.74 93.37 110.59 87.79 C 112.09 80.68 115.17 73.87 115.62 66.59 C 111.51 64.11 104.26 64.87 103.46 70.52 Z" />
</g>
<g id="#588198ff">
<path fill="#588198" opacity="1.00" d=" M 355.67 57.74 C 359.52 57.04 363.47 57.55 367.37 57.51 C 368.44 72.15 370.72 86.70 371.78 101.35 C 367.01 101.32 362.24 101.41 357.47 101.27 C 357.26 98.37 356.86 95.48 356.41 92.60 C 352.47 92.64 348.53 92.64 344.59 92.57 C 342.64 95.44 340.78 98.38 339.02 101.37 C 334.00 101.32 328.98 101.36 323.96 101.34 C 330.10 91.05 337.02 81.23 343.56 71.18 C 347.16 66.41 349.48 59.73 355.67 57.74 M 350.30 82.39 C 350.34 82.85 350.42 83.78 350.46 84.24 C 352.18 84.23 353.91 84.24 355.63 84.25 C 355.76 81.06 355.72 77.86 355.36 74.69 C 353.33 77.02 352.04 79.86 350.30 82.39 Z" />
<path fill="#588198" opacity="1.00" d=" M 384.76 60.65 C 387.75 56.11 393.88 57.70 398.45 57.41 C 401.12 64.55 404.70 71.45 406.01 79.01 C 408.71 72.13 410.14 64.78 411.83 57.59 C 416.40 57.32 420.99 57.41 425.57 57.51 C 422.15 69.36 419.13 81.31 416.04 93.25 C 415.33 96.25 414.09 99.78 410.82 100.78 C 407.26 101.81 403.47 101.21 399.82 101.36 C 396.84 94.17 394.20 86.83 391.94 79.38 C 391.56 86.93 388.24 93.87 387.11 101.29 C 382.78 101.38 378.46 101.33 374.14 101.38 C 374.98 93.06 378.18 85.19 379.88 77.03 C 381.53 71.59 382.17 65.75 384.76 60.65 Z" />
<path fill="#588198" opacity="1.00" d=" M 431.13 58.20 C 434.63 56.87 438.51 57.57 442.18 57.51 C 444.43 64.90 448.18 71.75 450.01 79.27 C 451.58 71.90 453.56 64.63 455.67 57.41 C 460.02 57.45 464.37 57.42 468.72 57.45 C 466.21 69.43 462.36 81.07 459.56 92.99 C 458.88 95.89 457.97 99.36 454.91 100.60 C 451.24 101.83 447.28 101.20 443.49 101.44 C 440.61 94.39 437.47 87.33 435.97 79.83 C 434.23 87.04 432.36 94.22 430.30 101.36 C 425.96 101.33 421.62 101.35 417.28 101.37 C 419.55 89.78 423.27 78.53 426.00 67.04 C 426.87 63.76 427.60 59.67 431.13 58.20 Z" />
</g>
<g id="#fcfdfdff">
<path fill="#fcfdfd" opacity="1.00" d=" M 103.46 70.52 C 104.26 64.87 111.51 64.11 115.62 66.59 C 115.17 73.87 112.09 80.68 110.59 87.79 C 109.74 93.37 102.68 94.73 98.33 92.30 C 98.18 84.74 101.85 77.79 103.46 70.52 Z" />
</g>
<g id="#f7fdffff">
<path fill="#f7fdff" opacity="1.00" d=" M 350.30 82.39 C 352.04 79.86 353.33 77.02 355.36 74.69 C 355.72 77.86 355.76 81.06 355.63 84.25 C 353.91 84.24 352.18 84.23 350.46 84.24 C 350.42 83.78 350.34 82.85 350.30 82.39 Z" />
</g>
</svg>
