<?xml version="1.0" encoding="UTF-8" ?>
<!DOCTYPE svg PUBLIC "-//W3C//DTD SVG 1.1//EN" "http://www.w3.org/Graphics/SVG/1.1/DTD/svg11.dtd">
<svg width="500pt" height="500pt" viewBox="0 0 500 500" version="1.1" xmlns="http://www.w3.org/2000/svg">
<g id="#fefefeff">
<path fill="#fefefe" opacity="1.00" d=" M 0.00 0.00 L 500.00 0.00 L 500.00 500.00 L 0.00 500.00 L 0.00 0.00 M 31.82 26.89 C 44.24 27.01 56.59 28.56 69.03 28.01 C 78.98 25.08 72.80 30.32 70.00 30.01 C 56.10 28.27 42.05 29.12 28.08 29.08 C 21.71 30.45 18.62 36.33 17.13 42.09 C 14.54 176.56 19.70 310.92 22.62 445.34 C 24.20 450.43 25.85 456.47 31.11 458.89 C 45.78 462.68 60.99 462.84 76.00 464.01 L 76.99 463.93 C 78.79 466.18 84.60 465.87 88.03 465.47 C 89.95 466.81 92.93 466.71 94.91 465.53 C 96.98 465.97 99.10 466.16 101.22 466.09 C 101.60 467.74 104.73 467.53 105.90 466.62 C 108.64 467.29 111.48 466.99 114.25 466.79 L 115.10 466.87 C 115.82 469.67 122.87 466.92 125.09 467.66 C 126.41 468.77 128.61 468.47 129.95 467.52 C 131.33 467.95 132.76 468.14 134.22 468.10 C 134.97 469.83 138.40 469.51 139.90 468.65 C 143.38 469.42 146.96 468.89 150.47 468.67 L 151.25 469.08 C 152.30 470.97 156.21 470.46 157.97 469.41 C 159.49 470.86 162.32 470.81 163.91 469.50 C 164.67 469.65 166.19 469.94 166.94 470.09 L 168.00 469.85 C 192.07 472.43 216.24 473.28 240.39 474.55 C 245.20 475.08 251.35 475.49 255.23 472.05 C 255.63 471.98 256.43 471.83 256.83 471.76 C 267.97 473.08 276.94 480.44 287.64 483.46 C 312.84 493.92 341.24 494.64 367.61 488.52 C 383.66 485.86 397.61 476.86 412.04 470.38 C 413.18 471.32 414.42 471.48 415.75 470.87 C 418.83 471.09 421.88 470.89 425.00 470.98 C 425.92 473.31 430.81 471.51 433.26 471.67 C 433.62 471.64 434.33 471.59 434.69 471.57 C 439.18 472.01 446.50 473.29 448.92 470.97 L 449.77 470.90 C 454.24 470.86 457.14 466.53 458.96 462.99 C 463.68 453.68 469.48 444.84 472.89 434.92 C 473.07 418.49 471.56 402.15 472.85 385.75 C 472.86 385.35 472.87 384.56 472.88 384.17 C 478.25 377.84 478.66 367.95 480.98 360.00 C 485.63 340.32 484.37 317.06 481.08 299.13 C 479.71 294.14 479.05 288.96 477.53 284.04 C 477.97 282.33 477.62 279.01 476.04 278.23 C 476.09 277.37 476.19 275.66 476.25 274.80 C 478.06 273.46 474.11 265.56 475.58 262.64 C 476.69 257.29 475.69 251.49 475.98 246.00 C 478.79 242.96 476.05 234.47 476.73 229.74 C 477.45 222.86 476.84 215.91 477.01 209.01 C 480.16 203.06 476.89 191.34 477.74 183.74 C 478.40 174.10 477.95 164.40 477.77 154.75 L 477.86 153.90 C 480.52 147.69 478.34 136.14 478.95 127.98 C 479.22 119.91 479.00 111.82 478.75 103.75 C 478.79 103.31 478.88 102.43 478.92 101.99 C 482.32 93.07 478.72 77.75 479.96 66.98 C 480.22 60.90 479.97 54.81 479.74 48.74 C 480.24 44.15 480.08 39.50 480.02 34.89 C 479.50 32.86 479.07 30.81 478.74 28.75 C 474.57 17.99 460.47 18.74 451.00 18.97 C 323.62 17.33 196.25 15.40 69.00 11.02 C 55.60 12.49 43.33 20.71 31.82 26.89 Z" />
<path fill="#fefefe" opacity="1.00" d=" M 82.34 14.24 C 87.24 11.97 84.81 17.55 82.34 14.24 Z" />
<path fill="#fefefe" opacity="1.00" d=" M 95.22 14.05 C 100.69 14.66 91.52 18.00 95.22 14.05 Z" />
<path fill="#fefefe" opacity="1.00" d=" M 106.34 15.24 C 111.24 12.97 108.81 18.55 106.34 15.24 Z" />
<path fill="#fefefe" opacity="1.00" d=" M 119.27 15.35 C 125.79 12.72 119.42 19.35 119.27 15.35 Z" />
<path fill="#fefefe" opacity="1.00" d=" M 131.23 15.33 C 137.89 12.48 131.84 20.56 131.23 15.33 Z" />
<path fill="#fefefe" opacity="1.00" d=" M 144.22 15.05 C 149.69 15.66 140.52 19.00 144.22 15.05 Z" />
<path fill="#fefefe" opacity="1.00" d=" M 155.34 16.24 C 160.24 13.97 157.81 19.55 155.34 16.24 Z" />
<path fill="#fefefe" opacity="1.00" d=" M 168.23 16.33 C 174.89 13.48 168.84 21.56 168.23 16.33 Z" />
<path fill="#fefefe" opacity="1.00" d=" M 181.18 16.17 C 187.94 16.28 178.06 20.40 181.18 16.17 Z" />
<path fill="#fefefe" opacity="1.00" d=" M 192.33 17.28 C 193.60 16.56 195.39 16.56 196.67 17.28 C 196.41 18.68 192.59 18.68 192.33 17.28 Z" />
<path fill="#fefefe" opacity="1.00" d=" M 205.23 17.33 C 211.89 14.48 205.84 22.56 205.23 17.33 Z" />
<path fill="#fefefe" opacity="1.00" d=" M 218.20 17.23 C 224.02 15.22 218.06 22.52 218.20 17.23 Z" />
<path fill="#fefefe" opacity="1.00" d=" M 230.20 17.34 C 236.42 16.10 231.03 22.22 230.20 17.34 Z" />
<path fill="#fefefe" opacity="1.00" d=" M 242.33 18.30 C 243.94 17.58 246.05 17.58 247.67 18.30 C 247.01 19.66 242.98 19.66 242.33 18.30 Z" />
<path fill="#fefefe" opacity="1.00" d=" M 255.41 18.22 C 260.77 16.01 257.39 22.46 255.41 18.22 Z" />
<path fill="#fefefe" opacity="1.00" d=" M 268.23 18.33 C 274.89 15.48 268.84 23.56 268.23 18.33 Z" />
<path fill="#fefefe" opacity="1.00" d=" M 281.19 18.12 C 288.52 17.48 277.99 22.88 281.19 18.12 Z" />
<path fill="#fefefe" opacity="1.00" d=" M 296.37 18.28 C 298.23 21.87 289.43 18.96 296.37 18.28 Z" />
<path fill="#fefefe" opacity="1.00" d=" M 305.38 19.25 C 306.65 18.60 308.39 18.57 309.64 19.29 C 310.05 21.76 305.47 21.11 305.38 19.25 Z" />
<path fill="#fefefe" opacity="1.00" d=" M 318.23 19.33 C 324.89 16.48 318.84 24.56 318.23 19.33 Z" />
<path fill="#fefefe" opacity="1.00" d=" M 331.01 19.02 C 332.73 19.11 336.00 18.06 334.99 20.98 C 333.26 20.89 329.99 21.94 331.01 19.02 Z" />
<path fill="#fefefe" opacity="1.00" d=" M 344.34 20.24 C 349.24 17.97 346.81 23.55 344.34 20.24 Z" />
<path fill="#fefefe" opacity="1.00" d=" M 357.01 20.05 C 362.82 18.72 362.38 22.10 357.02 22.06 C 357.02 21.56 357.01 20.55 357.01 20.05 Z" />
<path fill="#fefefe" opacity="1.00" d=" M 369.01 20.04 C 370.35 20.31 375.65 18.96 373.26 21.30 C 372.11 22.47 367.80 22.86 369.01 20.04 Z" />
<path fill="#fefefe" opacity="1.00" d=" M 384.22 20.05 C 389.69 20.66 380.51 24.00 384.22 20.05 Z" />
<path fill="#fefefe" opacity="1.00" d=" M 396.19 20.12 C 403.52 19.48 392.99 24.88 396.19 20.12 Z" />
<path fill="#fefefe" opacity="1.00" d=" M 411.28 20.36 C 416.36 21.13 406.31 25.01 408.15 21.23 C 409.18 20.91 410.22 20.62 411.28 20.36 Z" />
<path fill="#fefefe" opacity="1.00" d=" M 421.01 21.05 C 426.82 19.72 426.38 23.10 421.02 23.06 C 421.02 22.56 421.01 21.55 421.01 21.05 Z" />
<path fill="#fefefe" opacity="1.00" d=" M 434.01 21.02 C 435.73 21.11 439.00 20.06 437.99 22.98 C 436.26 22.89 432.99 23.94 434.01 21.02 Z" />
<path fill="#fefefe" opacity="1.00" d=" M 165.94 26.89 C 166.91 25.32 169.04 25.41 170.23 26.68 C 168.82 27.17 167.39 27.24 165.94 26.89 Z" />
<path fill="#fefefe" opacity="1.00" d=" M 169.01 30.09 L 170.00 29.82 C 170.47 29.83 171.40 29.84 171.87 29.85 C 191.18 31.89 210.62 30.72 230.00 30.97 C 304.18 33.86 378.40 34.77 452.62 36.31 C 455.84 36.98 456.73 40.49 457.98 43.06 C 445.12 36.06 430.00 38.47 416.00 38.02 C 333.82 35.44 251.64 33.82 169.42 31.88 C 169.32 31.43 169.11 30.54 169.01 30.09 Z" />
<path fill="#fefefe" opacity="1.00" d=" M 77.70 36.09 C 80.39 36.09 83.08 36.14 85.78 36.22 C 89.58 36.57 93.40 36.78 97.22 36.83 C 102.05 37.13 106.88 36.88 111.71 36.68 C 116.07 36.84 120.43 37.03 124.78 37.24 C 128.60 37.62 132.44 37.80 136.28 37.78 C 145.18 38.15 154.09 38.01 163.00 37.89 C 163.86 38.53 164.70 39.21 165.52 39.92 C 155.30 40.02 145.04 40.43 134.86 39.23 C 116.00 37.96 95.63 41.04 77.70 36.09 Z" />
<path fill="#fefefe" opacity="1.00" d=" M 312.08 221.27 C 312.82 221.15 314.32 220.90 315.06 220.78 C 316.99 221.04 318.95 221.03 320.88 220.83 C 322.68 220.84 326.27 220.87 328.06 220.88 C 329.80 220.86 333.27 220.80 335.01 220.77 C 335.47 220.86 336.40 221.03 336.86 221.12 C 337.87 222.51 339.70 222.36 341.12 221.77 C 361.91 224.66 381.95 231.57 399.99 242.30 C 399.94 242.68 399.83 243.45 399.78 243.83 C 372.57 228.63 340.99 219.72 309.67 223.65 C 297.51 224.11 286.09 229.01 274.20 230.60 L 274.82 230.02 C 283.16 226.62 292.00 224.72 300.76 222.72 C 302.64 223.61 304.47 222.33 306.05 221.42 L 306.77 221.59 C 308.46 222.45 310.52 222.41 312.08 221.27 Z" />
<path fill="#fefefe" opacity="1.00" d=" M 266.92 233.18 C 267.97 232.64 269.09 232.32 270.27 232.24 C 270.28 234.20 267.91 234.89 266.92 233.18 Z" />
</g>
<g id="#d8d4d6ff">
<path fill="#d8d4d6" opacity="1.00" d=" M 31.82 26.89 C 43.33 20.71 55.60 12.49 69.00 11.02 C 196.25 15.40 323.62 17.33 451.00 18.97 C 460.47 18.74 474.57 17.99 478.74 28.75 C 471.52 31.58 467.85 39.32 462.29 44.40 C 461.77 50.68 461.83 57.00 462.31 63.29 C 462.10 64.78 461.92 66.27 461.77 67.77 C 460.49 77.20 460.94 86.75 461.24 96.24 C 461.05 99.08 460.98 101.93 460.79 104.78 C 459.41 115.87 459.97 127.09 460.24 138.24 C 460.05 141.07 459.98 143.94 459.79 146.79 C 459.57 186.73 456.03 226.91 460.17 266.75 C 463.72 268.78 468.90 267.32 472.64 269.85 C 473.41 267.37 474.18 264.85 475.58 262.64 C 474.11 265.56 478.06 273.46 476.25 274.80 C 476.19 273.31 475.53 272.79 474.27 273.24 C 471.68 280.79 467.72 287.73 464.34 294.94 C 468.17 298.44 467.12 307.07 471.18 312.05 C 477.09 310.51 480.97 305.10 481.08 299.13 C 484.37 317.06 485.63 340.32 480.98 360.00 C 478.66 367.95 478.25 377.84 472.88 384.17 C 471.57 384.56 469.73 385.13 469.95 386.86 C 469.21 389.83 472.52 388.62 472.28 386.43 L 472.85 385.75 C 471.56 402.15 473.07 418.49 472.89 434.92 C 469.48 444.84 463.68 453.68 458.96 462.99 C 457.14 466.53 454.24 470.86 449.77 470.90 C 456.24 468.16 454.39 460.00 448.87 457.19 C 444.96 454.69 440.71 450.69 442.59 445.73 C 432.00 450.97 425.73 461.75 415.59 467.74 L 414.87 468.20 C 413.83 468.80 412.94 469.60 412.04 470.38 C 397.61 476.86 383.66 485.86 367.61 488.52 C 341.24 494.64 312.84 493.92 287.64 483.46 C 276.94 480.44 267.97 473.08 256.83 471.76 C 261.23 470.74 255.54 468.56 254.07 467.14 C 250.26 464.60 246.46 462.04 243.12 458.91 C 243.40 456.99 241.74 455.57 239.89 456.10 C 213.24 432.93 195.78 399.33 192.75 364.10 C 193.38 362.39 193.58 360.33 192.19 358.93 C 192.06 353.98 192.03 349.06 191.86 344.13 L 191.99 343.18 C 193.63 341.87 193.36 339.65 192.71 337.91 C 195.22 312.04 205.96 287.28 222.42 267.30 C 224.19 266.48 225.18 264.75 225.88 263.02 C 228.98 261.57 231.97 259.37 233.22 256.07 C 235.25 255.70 236.13 253.72 236.96 252.07 C 246.66 245.47 256.04 238.08 266.92 233.18 C 267.91 234.89 270.28 234.20 270.27 232.24 C 270.47 231.91 270.87 231.25 271.07 230.92 C 272.11 230.82 273.16 230.72 274.20 230.60 C 286.09 229.01 297.51 224.11 309.67 223.65 C 340.99 219.72 372.57 228.63 399.78 243.83 C 399.83 243.45 399.94 242.68 399.99 242.30 C 402.09 243.35 404.07 244.63 406.11 245.81 C 407.63 246.99 409.22 248.09 410.85 249.13 C 410.65 250.98 412.21 252.35 414.03 252.01 C 414.50 252.27 415.43 252.79 415.90 253.05 C 415.57 254.97 417.23 256.42 419.10 255.89 C 420.68 257.26 422.22 258.68 423.74 260.13 C 425.07 263.40 428.13 265.26 431.05 266.94 C 431.70 267.97 432.38 268.99 433.06 270.02 C 432.85 272.29 434.58 274.06 436.83 274.08 C 437.79 276.29 439.17 278.25 441.07 279.77 C 443.11 283.04 445.47 286.08 447.85 289.13 L 448.19 289.74 C 448.20 291.05 448.74 292.31 449.77 293.15 C 450.20 294.06 450.66 294.96 451.15 295.86 C 456.33 304.03 458.70 313.54 463.18 322.04 C 471.52 320.15 459.78 311.60 464.31 306.32 C 466.22 301.77 462.97 306.61 460.94 307.18 C 460.85 303.93 462.58 301.07 463.13 297.95 C 461.35 298.56 459.67 299.41 457.92 300.07 C 461.62 295.25 465.26 288.97 462.94 282.95 C 461.34 283.95 459.63 285.04 458.83 286.82 C 458.21 287.90 457.62 288.99 457.05 290.10 C 455.94 290.41 454.88 290.83 453.85 291.34 C 450.16 287.22 447.94 282.02 444.18 277.97 C 442.27 275.79 440.57 273.45 438.95 271.06 C 439.36 269.27 438.05 267.66 436.21 267.81 L 435.90 267.17 C 433.75 262.36 429.73 258.18 424.97 255.89 C 424.49 255.65 423.55 255.18 423.08 254.94 C 423.39 253.05 421.80 251.60 419.96 252.01 C 398.59 234.97 373.24 222.93 346.12 218.81 C 345.04 217.56 343.31 217.60 341.90 218.15 C 340.29 218.03 338.68 217.92 337.08 217.79 C 335.66 216.46 333.64 216.61 331.93 217.17 C 326.64 217.07 321.37 216.95 316.09 217.07 C 314.65 216.58 312.97 216.60 311.91 217.82 C 284.89 219.59 259.49 230.99 238.14 247.12 C 236.61 247.38 235.48 248.45 234.94 249.87 L 234.22 250.06 C 231.41 250.22 229.65 252.50 228.92 255.01 C 227.06 254.61 225.55 256.16 225.92 258.01 C 223.59 257.83 221.74 259.77 222.10 262.10 L 222.01 262.87 C 220.52 263.33 218.97 264.15 218.79 265.87 C 217.24 265.89 215.85 266.94 215.70 268.54 C 215.58 269.17 215.34 270.41 215.22 271.03 L 214.94 271.74 C 212.47 272.72 211.68 275.03 211.45 277.50 C 210.80 278.79 209.92 279.93 208.85 280.90 C 206.60 281.07 206.38 283.48 206.29 285.24 C 204.89 288.12 203.52 291.02 201.96 293.82 C 195.08 303.81 193.97 316.42 190.77 327.87 C 189.55 328.98 189.60 330.71 190.19 332.13 C 190.05 332.84 189.78 334.25 189.64 334.95 C 188.14 337.42 188.01 339.78 189.25 342.02 C 189.14 346.90 188.82 351.82 189.24 356.71 C 189.19 359.89 188.63 363.24 189.75 366.32 C 189.86 366.73 190.08 367.54 190.19 367.94 C 189.63 369.66 189.46 371.69 190.78 373.13 L 191.14 373.84 C 190.59 375.28 190.58 377.03 191.82 378.14 L 192.18 378.85 C 191.60 380.27 191.57 381.95 192.68 383.14 C 193.13 385.87 193.94 388.53 195.03 391.07 C 194.71 393.21 195.57 395.22 196.74 396.97 L 196.93 397.75 C 197.06 401.04 198.98 403.73 200.96 406.19 C 201.30 407.07 201.65 407.95 202.01 408.84 C 203.89 414.72 206.12 421.02 210.77 425.26 L 211.27 425.73 C 213.52 430.24 214.61 436.18 219.95 438.06 L 220.32 438.67 C 226.71 450.01 237.55 458.71 248.03 466.07 C 248.49 466.31 249.41 466.80 249.87 467.04 C 251.47 468.90 253.25 470.60 255.23 472.05 C 251.35 475.49 245.20 475.08 240.39 474.55 C 216.24 473.28 192.07 472.43 168.00 469.85 C 167.92 465.81 167.84 461.78 167.75 457.77 C 168.01 445.92 168.34 434.06 167.78 422.23 C 167.79 391.75 168.85 361.19 167.25 330.76 C 166.63 315.26 167.36 299.74 166.75 284.24 C 166.83 258.76 167.82 233.20 166.25 207.76 C 165.83 191.92 165.87 176.06 166.20 160.21 C 167.71 147.79 166.90 135.25 166.78 122.78 C 167.24 110.26 166.77 97.73 167.19 85.22 C 168.76 69.13 167.94 52.90 167.73 36.75 C 166.96 33.60 167.39 31.37 169.01 30.09 C 169.11 30.54 169.32 31.43 169.42 31.88 C 251.64 33.82 333.82 35.44 416.00 38.02 C 430.00 38.47 445.12 36.06 457.98 43.06 C 456.73 40.49 455.84 36.98 452.62 36.31 C 378.40 34.77 304.18 33.86 230.00 30.97 C 210.62 30.72 191.18 31.89 171.87 29.85 C 172.42 28.60 172.13 27.68 170.98 27.09 L 170.23 26.68 C 169.04 25.41 166.91 25.32 165.94 26.89 C 154.57 26.99 143.20 27.02 131.83 27.11 C 129.87 26.03 127.86 25.15 126.11 27.12 L 125.20 26.97 C 123.84 25.44 121.70 25.63 119.94 26.19 C 112.03 25.97 104.12 26.15 96.22 25.74 C 89.87 25.23 82.65 24.08 77.03 27.97 C 71.99 29.71 74.42 35.68 74.20 39.69 C 74.12 40.19 73.96 41.21 73.89 41.71 C 72.38 51.31 72.88 61.10 73.21 70.78 C 73.10 75.11 72.97 79.45 72.77 83.78 C 71.23 99.21 72.15 114.76 72.25 130.24 C 71.88 151.05 71.75 171.90 72.29 192.71 C 72.22 207.22 71.13 221.85 72.66 236.30 C 73.04 242.78 72.87 249.29 73.22 255.77 C 73.10 267.92 72.36 280.13 73.74 292.24 C 73.98 299.39 73.99 306.55 74.34 313.71 C 74.05 326.22 73.33 338.81 74.67 351.29 C 75.11 358.08 74.70 364.92 75.29 371.72 C 75.40 384.87 73.90 398.23 75.68 411.29 C 76.16 420.42 75.83 429.58 76.28 438.72 C 75.98 447.14 75.96 455.57 76.00 464.01 C 60.99 462.84 45.78 462.68 31.11 458.89 C 25.85 456.47 24.20 450.43 22.62 445.34 C 19.70 310.92 14.54 176.56 17.13 42.09 C 18.62 36.33 21.71 30.45 28.08 29.08 C 42.05 29.12 56.10 28.27 70.00 30.01 C 72.80 30.32 78.98 25.08 69.03 28.01 C 56.59 28.56 44.24 27.01 31.82 26.89 M 82.34 14.24 C 84.81 17.55 87.24 11.97 82.34 14.24 M 95.22 14.05 C 91.52 18.00 100.69 14.66 95.22 14.05 M 106.34 15.24 C 108.81 18.55 111.24 12.97 106.34 15.24 M 119.27 15.35 C 119.42 19.35 125.79 12.72 119.27 15.35 M 131.23 15.33 C 131.84 20.56 137.89 12.48 131.23 15.33 M 144.22 15.05 C 140.52 19.00 149.69 15.66 144.22 15.05 M 155.34 16.24 C 157.81 19.55 160.24 13.97 155.34 16.24 M 168.23 16.33 C 168.84 21.56 174.89 13.48 168.23 16.33 M 181.18 16.17 C 178.06 20.40 187.94 16.28 181.18 16.17 M 192.33 17.28 C 192.59 18.68 196.41 18.68 196.67 17.28 C 195.39 16.56 193.60 16.56 192.33 17.28 M 205.23 17.33 C 205.84 22.56 211.89 14.48 205.23 17.33 M 218.20 17.23 C 218.06 22.52 224.02 15.22 218.20 17.23 M 230.20 17.34 C 231.03 22.22 236.42 16.10 230.20 17.34 M 242.33 18.30 C 242.98 19.66 247.01 19.66 247.67 18.30 C 246.05 17.58 243.94 17.58 242.33 18.30 M 255.41 18.22 C 257.39 22.46 260.77 16.01 255.41 18.22 M 268.23 18.33 C 268.84 23.56 274.89 15.48 268.23 18.33 M 281.19 18.12 C 277.99 22.88 288.52 17.48 281.19 18.12 M 296.37 18.28 C 289.43 18.96 298.23 21.87 296.37 18.28 M 305.38 19.25 C 305.47 21.11 310.05 21.76 309.64 19.29 C 308.39 18.57 306.65 18.60 305.38 19.25 M 318.23 19.33 C 318.84 24.56 324.89 16.48 318.23 19.33 M 331.01 19.02 C 329.99 21.94 333.26 20.89 334.99 20.98 C 336.00 18.06 332.73 19.11 331.01 19.02 M 344.34 20.24 C 346.81 23.55 349.24 17.97 344.34 20.24 M 357.01 20.05 C 357.01 20.55 357.02 21.56 357.02 22.06 C 362.38 22.10 362.82 18.72 357.01 20.05 M 369.01 20.04 C 367.80 22.86 372.11 22.47 373.26 21.30 C 375.65 18.96 370.35 20.31 369.01 20.04 M 384.22 20.05 C 380.51 24.00 389.69 20.66 384.22 20.05 M 396.19 20.12 C 392.99 24.88 403.52 19.48 396.19 20.12 M 411.28 20.36 C 410.22 20.62 409.18 20.91 408.15 21.23 C 406.31 25.01 416.36 21.13 411.28 20.36 M 421.01 21.05 C 421.01 21.55 421.02 22.56 421.02 23.06 C 426.38 23.10 426.82 19.72 421.01 21.05 M 434.01 21.02 C 432.99 23.94 436.26 22.89 437.99 22.98 C 439.00 20.06 435.73 21.11 434.01 21.02 M 421.46 57.92 C 421.77 62.21 417.39 61.23 414.68 59.71 C 412.67 57.40 412.08 62.98 414.52 63.21 C 413.11 64.24 416.20 65.09 417.01 65.33 C 416.21 67.46 420.67 68.03 420.94 66.14 L 421.99 65.77 C 423.72 67.11 426.97 65.18 425.78 63.02 L 426.13 62.13 C 428.22 61.42 425.98 58.96 424.54 59.02 C 425.44 57.13 424.84 55.43 422.91 54.64 C 421.40 52.22 419.73 56.82 421.46 57.92 M 315.00 74.06 C 311.56 82.44 321.44 78.93 324.57 80.77 C 324.83 85.82 315.38 80.14 316.16 84.07 C 314.85 85.22 313.08 85.82 311.86 87.04 C 315.16 88.54 325.80 89.92 329.10 86.13 C 335.71 82.04 329.40 72.03 322.00 75.87 C 321.01 70.91 328.16 73.51 331.07 71.72 C 332.91 72.91 336.52 67.34 333.18 68.03 C 326.65 67.73 317.50 66.34 315.00 74.06 M 337.19 69.04 C 335.65 75.36 333.62 81.55 332.03 87.86 C 336.99 87.92 342.09 89.44 346.98 87.94 C 351.35 85.67 353.05 81.50 344.74 84.30 C 344.02 84.20 342.58 83.99 341.86 83.89 C 340.64 79.42 346.85 82.80 347.03 80.01 L 348.05 79.99 C 352.31 77.50 354.07 73.65 345.73 76.27 C 343.52 76.33 344.01 74.30 344.22 72.79 C 346.10 73.38 349.67 73.84 350.80 72.10 L 351.86 72.12 C 353.31 71.15 355.32 70.15 355.06 68.08 C 349.38 68.27 340.63 66.77 337.19 69.04 M 361.97 69.01 C 354.09 69.88 351.17 85.12 354.98 88.03 C 358.18 89.91 367.50 90.84 370.82 86.75 C 372.24 81.94 365.11 84.02 361.90 83.07 C 362.59 77.57 365.43 71.09 372.26 72.21 C 376.37 69.43 374.12 68.34 370.00 68.98 C 369.32 67.31 362.68 67.29 361.97 69.01 M 374.39 82.33 C 370.29 94.14 386.68 87.43 392.20 88.78 C 394.39 90.23 397.23 87.39 395.76 85.21 C 397.45 80.29 399.75 75.19 400.00 69.92 C 398.89 68.10 390.19 67.28 391.08 72.05 C 390.80 75.23 389.89 78.30 389.16 81.40 C 387.85 81.52 385.63 83.22 386.05 84.76 C 385.52 84.77 384.44 84.77 383.91 84.77 C 384.54 83.45 383.34 82.01 382.51 81.08 C 383.58 77.49 387.65 71.46 385.00 68.99 C 375.66 65.76 376.89 76.67 374.39 82.33 M 403.24 69.98 C 403.18 70.74 403.07 72.26 403.02 73.02 C 401.17 74.77 400.17 78.48 400.21 81.24 C 399.71 82.82 399.20 84.40 398.88 86.04 C 393.46 89.97 407.20 93.02 407.16 88.07 L 407.15 86.81 C 409.86 89.60 413.05 91.30 417.23 89.81 C 421.22 90.83 416.74 86.71 416.36 85.09 C 417.44 84.26 417.93 83.22 417.82 81.96 L 418.85 81.72 C 420.46 83.09 423.07 80.58 421.65 78.96 C 422.66 76.98 425.34 71.56 422.12 70.90 C 421.38 67.16 412.15 68.98 415.66 70.65 C 415.77 73.48 416.68 76.17 417.11 78.95 C 415.02 79.79 412.93 80.93 411.91 83.05 C 409.72 83.99 407.47 84.27 405.84 82.30 C 404.39 80.43 402.82 78.20 403.61 75.72 C 407.90 79.47 415.40 74.63 409.81 69.95 C 408.97 68.11 404.01 68.08 403.24 69.98 M 426.19 71.74 C 425.27 77.90 422.26 83.69 421.97 89.93 C 426.71 90.20 431.47 90.09 436.22 89.81 C 438.28 91.46 441.35 87.21 439.19 86.20 C 436.48 85.24 429.90 88.33 430.99 83.68 C 432.17 83.93 434.62 83.36 434.79 81.99 C 435.36 81.92 436.50 81.78 437.07 81.71 C 438.73 83.20 442.07 81.14 440.69 79.06 C 440.24 77.55 437.91 77.14 433.69 77.85 C 433.95 74.30 438.18 75.89 439.08 73.86 C 439.53 73.79 440.43 73.63 440.88 73.56 C 442.66 74.40 446.70 69.54 443.18 70.02 C 438.69 69.90 434.19 69.81 429.72 69.74 C 429.00 67.47 424.43 69.39 426.19 71.74 Z" />
<path fill="#d8d4d6" opacity="1.00" d=" M 84.22 31.08 C 85.98 30.58 87.47 31.24 88.15 32.95 C 86.19 32.85 80.94 33.95 84.22 31.08 Z" />
<path fill="#d8d4d6" opacity="1.00" d=" M 91.22 31.23 C 96.33 33.40 85.45 33.55 91.22 31.23 Z" />
<path fill="#d8d4d6" opacity="1.00" d=" M 94.33 32.28 C 95.60 31.56 97.40 31.56 98.67 32.28 C 98.41 33.68 94.59 33.68 94.33 32.28 Z" />
<path fill="#d8d4d6" opacity="1.00" d=" M 103.88 31.92 C 108.62 33.56 120.28 28.26 121.03 35.95 C 119.77 35.91 118.52 35.83 117.27 35.73 C 113.93 31.47 107.04 34.64 103.88 31.92 Z" />
<path fill="#d8d4d6" opacity="1.00" d=" M 123.33 33.28 C 124.60 32.56 126.40 32.56 127.67 33.28 C 127.41 34.68 123.59 34.68 123.33 33.28 Z" />
<path fill="#d8d4d6" opacity="1.00" d=" M 131.97 33.00 C 141.30 33.03 150.63 32.84 159.95 33.04 C 153.31 34.25 138.87 35.77 131.97 33.00 Z" />
<path fill="#d8d4d6" opacity="1.00" d=" M 75.11 38.82 C 74.38 36.51 75.39 35.51 77.70 36.09 C 95.63 41.04 116.00 37.96 134.86 39.23 C 145.04 40.43 155.30 40.02 165.52 39.92 C 165.02 43.60 159.52 39.36 158.04 41.30 C 150.39 41.97 142.69 42.33 135.01 41.93 C 115.29 37.67 94.61 44.68 75.11 38.82 Z" />
<path fill="#d8d4d6" opacity="1.00" d=" M 85.78 36.22 C 89.60 36.18 93.42 36.38 97.22 36.83 C 93.40 36.78 89.58 36.57 85.78 36.22 Z" />
<path fill="#d8d4d6" opacity="1.00" d=" M 124.78 37.24 C 127.59 37.08 130.41 36.91 133.23 36.75 C 134.26 37.05 135.28 37.39 136.28 37.78 C 132.44 37.80 128.60 37.62 124.78 37.24 Z" />
<path fill="#d8d4d6" opacity="1.00" d=" M 478.98 67.02 L 479.96 66.98 C 478.72 77.75 482.32 93.07 478.92 101.99 C 479.15 90.33 478.91 78.67 478.98 67.02 Z" />
<path fill="#d8d4d6" opacity="1.00" d=" M 478.00 128.01 L 478.95 127.98 C 478.34 136.14 480.52 147.69 477.86 153.90 C 478.22 145.27 477.88 136.64 478.00 128.01 Z" />
<path fill="#d8d4d6" opacity="1.00" d=" M 477.01 209.01 C 476.96 200.58 476.63 192.11 477.74 183.74 C 476.89 191.34 480.16 203.06 477.01 209.01 Z" />
<path fill="#d8d4d6" opacity="1.00" d=" M 320.86 220.27 C 322.66 220.27 326.26 220.28 328.07 220.29 L 328.06 220.88 C 326.27 220.87 322.68 220.84 320.88 220.83 L 320.86 220.27 Z" />
<path fill="#d8d4d6" opacity="1.00" d=" M 307.06 221.06 C 308.71 220.62 310.43 220.88 312.08 221.27 C 310.52 222.41 308.46 222.45 306.77 221.59 L 307.06 221.06 Z" />
<path fill="#d8d4d6" opacity="1.00" d=" M 336.86 221.12 C 338.29 220.59 339.99 220.59 341.12 221.77 C 339.70 222.36 337.87 222.51 336.86 221.12 Z" />
<path fill="#d8d4d6" opacity="1.00" d=" M 475.98 246.00 C 475.91 240.57 475.94 235.12 476.73 229.74 C 476.05 234.47 478.79 242.96 475.98 246.00 Z" />
<path fill="#d8d4d6" opacity="1.00" d=" M 82.28 231.04 C 106.57 233.18 130.99 233.36 155.35 233.59 C 160.76 233.43 162.42 239.11 163.82 243.24 C 164.04 252.06 163.89 260.89 164.33 269.71 C 164.07 280.55 163.32 291.47 164.70 302.27 C 165.70 322.39 164.32 342.57 165.33 362.70 C 165.20 378.87 164.08 395.20 165.71 411.29 C 166.33 427.17 165.96 443.09 165.94 458.99 C 162.01 458.97 158.09 458.84 154.17 458.61 C 143.47 458.19 132.79 457.27 122.08 456.94 C 120.45 456.87 118.82 456.78 117.19 456.69 C 113.39 456.37 109.59 456.18 105.79 456.11 C 104.26 456.02 102.73 455.99 101.21 455.95 C 97.09 455.38 92.94 454.86 88.78 455.16 C 87.54 455.13 86.30 455.10 85.06 455.07 C 83.70 453.65 81.80 452.20 82.05 450.00 C 80.03 397.86 81.99 345.57 80.42 293.37 C 82.66 272.80 78.83 250.91 82.28 231.04 Z" />
<path fill="#d8d4d6" opacity="1.00" d=" M 476.04 278.23 C 477.62 279.01 477.97 282.33 477.53 284.04 C 475.70 282.65 475.64 280.30 476.04 278.23 Z" />
<path fill="#d8d4d6" opacity="1.00" d=" M 101.22 466.09 C 102.76 465.97 104.30 465.88 105.84 466.01 L 105.90 466.62 C 104.73 467.53 101.60 467.74 101.22 466.09 Z" />
<path fill="#d8d4d6" opacity="1.00" d=" M 115.10 466.87 C 118.45 467.03 121.80 466.97 125.17 467.02 L 125.09 467.66 C 122.87 466.92 115.82 469.67 115.10 466.87 Z" />
<path fill="#d8d4d6" opacity="1.00" d=" M 134.22 468.10 C 136.09 467.98 137.98 467.96 139.86 468.07 L 139.90 468.65 C 138.40 469.51 134.97 469.83 134.22 468.10 Z" />
<path fill="#d8d4d6" opacity="1.00" d=" M 151.25 469.08 C 152.94 469.05 156.30 468.98 157.99 468.94 L 157.97 469.41 C 156.21 470.46 152.30 470.97 151.25 469.08 Z" />
<path fill="#d8d4d6" opacity="1.00" d=" M 425.00 470.98 C 427.77 471.03 430.47 471.37 433.26 471.67 C 430.81 471.51 425.92 473.31 425.00 470.98 Z" />
<path fill="#d8d4d6" opacity="1.00" d=" M 434.69 471.57 C 439.36 470.60 444.17 471.12 448.92 470.97 C 446.50 473.29 439.18 472.01 434.69 471.57 Z" />
</g>
<g id="#9aacbaff">
<path fill="#9aacba" opacity="1.00" d=" M 77.03 27.97 C 82.65 24.08 89.87 25.23 96.22 25.74 C 92.65 24.41 82.82 27.85 93.98 27.01 C 104.56 25.93 115.90 29.93 126.11 27.12 C 127.86 25.15 129.87 26.03 131.83 27.11 C 142.95 29.36 157.13 27.09 166.94 28.87 C 159.34 26.97 168.67 35.51 163.00 37.89 C 154.09 38.01 145.18 38.15 136.28 37.78 C 135.28 37.39 134.26 37.05 133.23 36.75 C 129.19 36.08 125.10 36.15 121.03 35.95 C 120.28 28.26 108.62 33.56 103.88 31.92 C 107.04 34.64 113.93 31.47 117.27 35.73 C 115.41 35.99 113.56 36.31 111.71 36.68 C 106.88 36.88 102.05 37.13 97.22 36.83 C 93.42 36.38 89.60 36.18 85.78 36.22 C 83.08 36.14 80.39 36.09 77.70 36.09 C 75.39 35.51 74.38 36.51 75.11 38.82 C 94.61 44.68 115.29 37.67 135.01 41.93 C 142.69 42.33 150.39 41.97 158.04 41.30 C 159.52 39.36 165.02 43.60 165.52 39.92 C 164.79 57.18 165.53 74.62 163.82 91.89 C 158.78 92.05 153.73 91.91 148.71 92.33 C 146.21 92.15 143.72 91.96 141.23 91.78 C 131.79 90.52 122.24 90.93 112.76 91.24 C 110.25 91.09 107.74 90.94 105.23 90.79 C 98.79 89.83 92.26 89.91 85.78 90.17 C 83.87 90.11 81.96 90.11 80.05 90.15 C 73.34 90.24 81.77 82.88 76.85 82.31 C 71.13 81.99 77.36 73.81 73.21 70.78 C 72.88 61.10 72.38 51.31 73.89 41.71 C 74.66 48.33 72.50 57.99 74.99 62.98 C 74.61 55.27 76.20 47.24 74.20 39.69 C 74.42 35.68 71.99 29.71 77.03 27.97 M 84.22 31.08 C 80.94 33.95 86.19 32.85 88.15 32.95 C 87.47 31.24 85.98 30.58 84.22 31.08 M 91.22 31.23 C 85.45 33.55 96.33 33.40 91.22 31.23 M 94.33 32.28 C 94.59 33.68 98.41 33.68 98.67 32.28 C 97.40 31.56 95.60 31.56 94.33 32.28 M 123.33 33.28 C 123.59 34.68 127.41 34.68 127.67 33.28 C 126.40 32.56 124.60 32.56 123.33 33.28 M 131.97 33.00 C 138.87 35.77 153.31 34.25 159.95 33.04 C 150.63 32.84 141.30 33.03 131.97 33.00 M 92.06 68.01 C 91.85 71.01 91.99 74.00 92.03 77.01 C 96.80 78.32 90.53 67.82 98.81 73.02 C 100.62 90.16 102.29 59.07 98.72 70.93 C 91.45 75.96 96.28 66.72 92.06 68.01 M 103.02 68.00 C 103.33 69.67 101.81 82.72 104.86 75.92 C 106.31 70.57 109.51 77.57 111.96 78.10 C 110.18 74.82 112.68 71.27 110.81 68.14 C 108.22 67.87 105.62 67.82 103.02 68.00 M 113.97 68.03 C 115.39 71.09 119.66 71.69 117.09 78.00 C 122.00 78.57 115.64 68.18 122.00 69.93 C 126.36 66.88 114.63 68.14 113.97 68.03 M 127.25 69.21 C 124.54 71.19 120.35 77.01 126.58 76.38 C 128.55 82.47 131.38 72.16 135.70 76.05 C 134.96 81.18 146.75 80.78 145.05 75.03 C 148.35 66.79 135.22 66.74 135.80 73.91 C 128.46 78.66 131.29 68.79 127.25 69.21 Z" />
<path fill="#9aacba" opacity="1.00" d=" M 119.94 26.19 C 121.70 25.63 123.84 25.44 125.20 26.97 C 123.42 27.36 121.41 27.47 119.94 26.19 Z" />
<path fill="#9aacba" opacity="1.00" d=" M 170.98 27.09 C 172.13 27.68 172.42 28.60 171.87 29.85 C 171.40 29.84 170.47 29.83 170.00 29.82 C 170.30 28.90 170.62 27.99 170.98 27.09 Z" />
<path fill="#9aacba" opacity="1.00" d=" M 462.29 44.40 C 467.85 39.32 471.52 31.58 478.74 28.75 C 479.07 30.81 479.50 32.86 480.02 34.89 C 474.72 32.92 471.73 41.07 467.88 43.92 C 461.02 48.50 463.88 56.55 462.31 63.29 C 461.83 57.00 461.77 50.68 462.29 44.40 Z" />
<path fill="#9aacba" opacity="1.00" d=" M 167.19 85.22 C 167.13 69.07 166.28 52.86 167.73 36.75 C 167.94 52.90 168.76 69.13 167.19 85.22 Z" />
<path fill="#9aacba" opacity="1.00" d=" M 478.98 67.02 C 478.93 60.92 478.86 54.79 479.74 48.74 C 479.97 54.81 480.22 60.90 479.96 66.98 L 478.98 67.02 Z" />
<path fill="#9aacba" opacity="1.00" d=" M 421.46 57.92 C 419.73 56.82 421.40 52.22 422.91 54.64 C 422.41 55.73 421.94 56.83 421.46 57.92 Z" />
<path fill="#9aacba" opacity="1.00" d=" M 414.52 63.21 C 412.08 62.98 412.67 57.40 414.68 59.71 C 414.74 60.88 416.16 62.58 414.52 63.21 Z" />
<path fill="#9aacba" opacity="1.00" d=" M 426.13 62.13 C 425.18 61.36 423.76 60.43 424.54 59.02 C 425.98 58.96 428.22 61.42 426.13 62.13 Z" />
<path fill="#9aacba" opacity="1.00" d=" M 421.99 65.77 C 423.23 64.83 424.50 63.91 425.78 63.02 C 426.97 65.18 423.72 67.11 421.99 65.77 Z" />
<path fill="#9aacba" opacity="1.00" d=" M 417.01 65.33 C 418.32 65.60 419.62 65.87 420.94 66.14 C 420.67 68.03 416.21 67.46 417.01 65.33 Z" />
<path fill="#9aacba" opacity="1.00" d=" M 333.18 68.03 C 336.52 67.34 332.91 72.91 331.07 71.72 C 331.72 70.46 332.37 69.20 333.18 68.03 Z" />
<path fill="#9aacba" opacity="1.00" d=" M 337.19 69.04 C 340.63 66.77 349.38 68.27 355.06 68.08 C 355.32 70.15 353.31 71.15 351.86 72.12 C 355.68 64.69 340.62 71.04 337.19 69.04 Z" />
<path fill="#9aacba" opacity="1.00" d=" M 361.97 69.01 C 362.68 67.29 369.32 67.31 370.00 68.98 C 367.31 69.01 364.64 69.02 361.97 69.01 Z" />
<path fill="#9aacba" opacity="1.00" d=" M 461.24 96.24 C 460.94 86.75 460.49 77.20 461.77 67.77 C 462.06 77.26 462.45 86.79 461.24 96.24 Z" />
<path fill="#9aacba" opacity="1.00" d=" M 391.08 72.05 C 390.19 67.28 398.89 68.10 400.00 69.92 C 396.88 70.20 393.42 69.61 391.08 72.05 Z" />
<path fill="#9aacba" opacity="1.00" d=" M 403.24 69.98 C 404.01 68.08 408.97 68.11 409.81 69.95 C 408.16 69.96 404.88 69.97 403.24 69.98 Z" />
<path fill="#9aacba" opacity="1.00" d=" M 415.66 70.65 C 412.15 68.98 421.38 67.16 422.12 70.90 C 420.00 70.39 417.77 69.70 415.66 70.65 Z" />
<path fill="#9aacba" opacity="1.00" d=" M 426.19 71.74 C 424.43 69.39 429.00 67.47 429.72 69.74 C 428.41 70.15 427.20 70.81 426.19 71.74 Z" />
<path fill="#9aacba" opacity="1.00" d=" M 104.85 70.05 C 106.73 70.35 111.02 68.66 109.99 72.01 C 107.98 72.15 105.63 72.35 104.85 70.05 Z" />
<path fill="#9aacba" opacity="1.00" d=" M 443.18 70.02 C 446.70 69.54 442.66 74.40 440.88 73.56 C 441.44 72.26 442.20 71.05 443.18 70.02 Z" />
<path fill="#9aacba" opacity="1.00" d=" M 139.34 71.14 C 144.52 69.50 139.78 76.00 139.34 71.14 Z" />
<path fill="#9aacba" opacity="1.00" d=" M 344.22 72.79 C 345.44 71.13 347.64 70.90 350.80 72.10 C 349.67 73.84 346.10 73.38 344.22 72.79 Z" />
<path fill="#9aacba" opacity="1.00" d=" M 400.21 81.24 C 400.17 78.48 401.17 74.77 403.02 73.02 C 403.21 73.92 403.40 74.82 403.61 75.72 C 402.82 78.20 404.39 80.43 405.84 82.30 C 403.39 82.24 401.06 76.93 400.21 81.24 Z" />
<path fill="#9aacba" opacity="1.00" d=" M 433.69 77.85 C 430.71 75.56 436.31 72.80 439.08 73.86 C 438.18 75.89 433.95 74.30 433.69 77.85 Z" />
<path fill="#9aacba" opacity="1.00" d=" M 139.01 75.02 C 140.73 75.11 144.00 74.06 142.99 76.98 C 141.27 76.88 138.00 77.94 139.01 75.02 Z" />
<path fill="#9aacba" opacity="1.00" d=" M 345.73 76.27 C 354.07 73.65 352.31 77.50 348.05 79.99 C 349.28 77.65 348.11 76.55 345.73 76.27 Z" />
<path fill="#9aacba" opacity="1.00" d=" M 411.91 83.05 C 412.93 80.93 415.02 79.79 417.11 78.95 C 417.02 81.56 413.92 82.27 411.91 83.05 Z" />
<path fill="#9aacba" opacity="1.00" d=" M 418.85 81.72 C 419.69 80.71 420.63 79.79 421.65 78.96 C 423.07 80.58 420.46 83.09 418.85 81.72 Z" />
<path fill="#9aacba" opacity="1.00" d=" M 437.07 81.71 C 438.25 80.81 439.46 79.92 440.69 79.06 C 442.07 81.14 438.73 83.20 437.07 81.71 Z" />
<path fill="#9aacba" opacity="1.00" d=" M 341.86 83.89 C 338.68 81.52 342.99 77.44 347.03 80.01 C 346.85 82.80 340.64 79.42 341.86 83.89 Z" />
<path fill="#9aacba" opacity="1.00" d=" M 324.57 80.77 C 327.13 86.21 318.87 83.24 316.16 84.07 C 315.38 80.14 324.83 85.82 324.57 80.77 Z" />
<path fill="#9aacba" opacity="1.00" d=" M 383.91 84.77 C 381.92 84.98 381.52 82.35 382.51 81.08 C 383.34 82.01 384.54 83.45 383.91 84.77 Z" />
<path fill="#9aacba" opacity="1.00" d=" M 386.05 84.76 C 385.63 83.22 387.85 81.52 389.16 81.40 C 389.20 83.17 388.00 84.97 386.05 84.76 Z" />
<path fill="#9aacba" opacity="1.00" d=" M 416.36 85.09 C 414.44 83.73 415.72 81.78 417.82 81.96 C 417.93 83.22 417.44 84.26 416.36 85.09 Z" />
<path fill="#9aacba" opacity="1.00" d=" M 430.99 83.68 C 430.63 81.51 433.45 81.95 434.79 81.99 C 434.62 83.36 432.17 83.93 430.99 83.68 Z" />
<path fill="#9aacba" opacity="1.00" d=" M 361.90 83.07 C 365.11 84.02 372.24 81.94 370.82 86.75 C 367.50 90.84 358.18 89.91 354.98 88.03 C 360.02 87.30 367.01 90.34 370.14 85.20 C 367.33 84.61 363.29 86.23 361.90 83.07 Z" />
<path fill="#9aacba" opacity="1.00" d=" M 72.25 130.24 C 72.15 114.76 71.23 99.21 72.77 83.78 C 72.84 99.25 73.76 114.80 72.25 130.24 Z" />
<path fill="#9aacba" opacity="1.00" d=" M 344.74 84.30 C 353.05 81.50 351.35 85.67 346.98 87.94 C 348.31 85.61 347.21 84.48 344.74 84.30 Z" />
<path fill="#9aacba" opacity="1.00" d=" M 392.20 88.78 C 393.45 87.65 394.64 86.47 395.76 85.21 C 397.23 87.39 394.39 90.23 392.20 88.78 Z" />
<path fill="#9aacba" opacity="1.00" d=" M 407.15 86.81 C 407.14 82.21 413.72 93.06 417.23 89.81 C 413.05 91.30 409.86 89.60 407.15 86.81 Z" />
<path fill="#9aacba" opacity="1.00" d=" M 311.86 87.04 C 317.62 87.05 323.39 86.96 329.10 86.13 C 325.80 89.92 315.16 88.54 311.86 87.04 Z" />
<path fill="#9aacba" opacity="1.00" d=" M 407.16 88.07 C 407.20 93.02 393.46 89.97 398.88 86.04 C 398.01 91.17 403.93 88.41 407.16 88.07 Z" />
<path fill="#9aacba" opacity="1.00" d=" M 439.19 86.20 C 441.35 87.21 438.28 91.46 436.22 89.81 C 437.25 88.64 438.20 87.40 439.19 86.20 Z" />
<path fill="#9aacba" opacity="1.00" d=" M 93.81 95.21 C 93.47 91.78 104.58 95.35 107.76 94.22 C 114.54 95.17 121.40 95.15 128.22 94.81 C 135.07 95.17 141.93 94.96 148.79 95.14 C 152.56 95.67 156.36 96.15 160.13 96.74 L 159.03 96.77 C 155.68 97.33 151.74 96.07 148.63 97.71 C 152.97 97.38 157.20 98.10 161.07 100.01 C 163.32 100.81 162.96 98.56 163.13 97.07 L 163.24 96.07 L 164.24 96.26 C 164.18 98.84 164.18 101.42 164.22 104.01 C 164.03 104.72 163.66 106.14 163.48 106.84 C 162.18 114.88 163.36 123.12 163.21 131.22 C 162.94 131.75 162.39 132.80 162.11 133.33 C 161.61 133.25 160.61 133.10 160.11 133.02 C 158.43 132.76 156.76 132.48 155.08 132.24 C 153.54 131.94 152.20 131.17 151.13 130.03 C 148.88 126.51 144.79 129.32 145.81 132.96 C 144.91 132.43 144.04 131.87 143.12 131.39 C 140.59 130.21 137.78 129.96 135.07 129.50 C 132.68 128.11 130.61 128.12 128.86 129.55 C 125.95 130.23 122.56 131.11 125.96 133.93 C 127.23 137.04 130.25 137.28 133.22 136.93 C 135.07 136.98 136.93 137.01 138.78 137.04 C 139.01 138.77 139.27 140.49 139.55 142.21 C 139.85 147.14 140.01 152.08 140.09 157.02 L 139.86 157.69 L 139.12 157.66 C 135.70 157.11 132.29 157.19 128.90 157.89 L 128.15 157.98 C 126.33 151.03 131.60 140.97 125.19 135.80 C 125.14 134.63 124.43 132.42 122.86 133.15 C 118.65 137.67 122.01 146.07 121.06 151.83 C 119.65 155.42 121.87 161.91 126.03 158.59 C 126.32 158.65 126.90 158.78 127.18 158.84 C 126.87 159.12 126.24 159.69 125.92 159.97 C 124.00 160.82 124.80 163.33 126.79 163.24 C 127.32 163.44 128.37 163.83 128.89 164.03 C 132.52 165.53 136.35 164.90 140.08 164.36 L 140.73 164.29 L 140.94 164.96 L 140.86 165.76 C 139.83 172.12 140.00 178.57 139.87 184.98 C 134.19 184.73 126.66 183.80 124.90 190.83 C 130.36 192.58 136.27 192.01 141.94 192.03 C 143.94 192.30 145.28 191.44 145.61 189.43 C 146.28 188.78 146.82 188.04 147.24 187.22 C 148.55 181.78 148.07 176.17 147.35 170.70 C 147.28 169.02 147.14 165.64 147.07 163.96 C 147.64 161.89 145.21 161.15 143.95 162.50 L 143.33 162.78 L 143.06 161.98 L 142.85 161.15 L 143.12 160.52 C 151.02 160.32 145.21 147.67 146.93 143.07 C 148.10 140.17 147.83 137.74 146.10 135.79 L 145.97 134.87 C 146.28 134.61 146.89 134.09 147.19 133.83 C 147.92 133.92 149.36 134.09 150.09 134.18 L 149.97 135.07 C 149.50 138.05 149.45 141.10 149.86 144.10 C 149.57 146.43 151.95 147.75 153.98 146.94 C 156.42 146.67 158.85 146.33 161.27 145.93 C 161.65 146.23 162.42 146.84 162.80 147.15 C 163.32 168.10 162.83 189.06 163.01 210.02 C 161.19 209.91 159.58 210.86 158.08 211.77 L 157.34 211.72 C 152.35 208.51 146.41 207.29 140.98 205.02 C 135.31 202.55 128.72 206.90 123.26 203.77 C 120.21 199.76 120.30 191.88 112.82 195.08 C 106.89 195.01 100.95 194.80 95.03 195.03 C 92.94 196.25 93.41 203.56 94.78 206.22 C 95.97 207.74 98.56 206.72 100.30 207.14 C 99.92 209.35 97.48 209.02 95.81 209.42 C 93.29 208.73 90.89 206.85 91.02 204.00 C 90.77 176.41 91.36 148.82 90.76 121.24 C 90.95 114.43 91.08 107.63 90.81 100.83 C 91.61 99.33 92.73 98.03 93.87 96.77 C 98.92 96.89 103.98 97.06 109.04 97.01 C 113.04 97.00 117.04 97.00 121.05 97.00 C 124.02 96.70 128.29 99.40 130.32 96.15 C 127.18 96.03 124.09 95.95 120.96 96.00 C 116.95 96.00 112.95 96.01 108.95 96.02 C 103.92 95.50 98.87 95.06 93.81 95.21 M 111.17 138.35 C 110.71 141.11 110.98 143.93 111.36 146.69 C 110.48 151.31 110.67 156.37 114.44 159.64 C 119.84 162.91 120.67 151.82 118.04 151.02 C 118.05 146.07 118.11 141.11 117.91 136.17 C 119.64 129.68 111.44 134.82 111.17 138.35 M 116.36 161.51 L 115.31 161.89 C 108.71 162.63 110.29 173.45 111.94 175.98 C 111.16 181.42 112.67 186.32 117.79 189.05 C 119.69 185.41 118.99 181.17 118.71 177.26 C 119.07 172.47 120.50 159.77 116.36 161.51 Z" />
<path fill="#9aacba" opacity="1.00" d=" M 478.00 128.01 C 477.97 119.92 477.63 111.78 478.75 103.75 C 479.00 111.82 479.22 119.91 478.95 127.98 L 478.00 128.01 Z" />
<path fill="#9aacba" opacity="1.00" d=" M 460.24 138.24 C 459.97 127.09 459.41 115.87 460.79 104.78 C 461.00 115.93 461.56 127.13 460.24 138.24 Z" />
<path fill="#9aacba" opacity="1.00" d=" M 166.20 160.21 C 166.11 147.74 165.31 135.20 166.78 122.78 C 166.90 135.25 167.71 147.79 166.20 160.21 Z" />
<path fill="#9aacba" opacity="1.00" d=" M 154.10 141.91 C 153.61 139.40 153.78 134.76 157.53 136.35 C 158.55 138.36 161.02 137.87 162.87 138.16 C 162.91 139.35 162.86 140.54 162.73 141.73 C 162.09 141.86 160.82 142.11 160.18 142.24 C 159.63 142.47 158.55 142.94 158.00 143.17 C 156.73 142.66 155.46 142.11 154.10 141.91 Z" />
<path fill="#9aacba" opacity="1.00" d=" M 460.17 266.75 C 456.03 226.91 459.57 186.73 459.79 146.79 C 460.46 155.85 459.02 165.71 460.74 174.28 C 467.13 175.49 470.71 182.09 476.92 182.00 C 477.30 172.92 476.41 163.77 477.77 154.75 C 477.95 164.40 478.40 174.10 477.74 183.74 C 476.63 192.11 476.96 200.58 477.01 209.01 C 476.84 215.91 477.45 222.86 476.73 229.74 C 475.94 235.12 475.91 240.57 475.98 246.00 C 475.69 251.49 476.69 257.29 475.58 262.64 C 474.18 264.85 473.41 267.37 472.64 269.85 C 468.90 267.32 463.72 268.78 460.17 266.75 Z" />
<path fill="#9aacba" opacity="1.00" d=" M 72.29 192.71 C 73.92 207.13 72.78 221.80 72.66 236.30 C 71.13 221.85 72.22 207.22 72.29 192.71 Z" />
<path fill="#9aacba" opacity="1.00" d=" M 99.17 197.30 C 101.91 195.23 104.26 199.08 100.00 198.22 C 99.80 197.99 99.38 197.53 99.17 197.30 Z" />
<path fill="#9aacba" opacity="1.00" d=" M 97.59 199.82 C 98.38 199.69 99.17 199.59 99.96 199.52 L 100.76 199.90 C 102.03 200.95 104.27 202.42 101.11 202.06 C 99.34 202.51 98.42 201.10 97.59 199.82 Z" />
<path fill="#9aacba" opacity="1.00" d=" M 105.23 201.24 C 105.83 201.93 106.44 202.63 107.05 203.33 L 107.18 204.22 L 106.86 204.89 C 105.40 205.19 104.68 204.50 104.72 202.82 L 104.87 201.89 L 105.23 201.24 Z" />
<path fill="#9aacba" opacity="1.00" d=" M 166.25 207.76 C 167.82 233.20 166.83 258.76 166.75 284.24 C 165.18 258.80 166.17 233.24 166.25 207.76 Z" />
<path fill="#9aacba" opacity="1.00" d=" M 74.79 243.03 C 74.26 234.43 72.34 225.13 75.44 216.93 C 76.04 218.83 76.66 220.94 79.00 221.13 L 79.81 221.43 C 81.38 221.54 84.53 221.75 86.11 221.85 C 91.66 221.96 97.21 222.03 102.76 222.19 C 107.21 222.89 111.73 222.91 116.22 222.83 C 119.74 223.01 123.24 223.07 126.76 223.20 C 131.21 223.91 135.73 223.92 140.23 223.79 C 142.06 223.93 143.89 224.11 145.71 224.34 C 151.68 225.68 157.88 224.68 163.93 225.08 C 164.23 231.12 163.88 237.18 163.82 243.24 C 162.42 239.11 160.76 233.43 155.35 233.59 C 130.99 233.36 106.57 233.18 82.28 231.04 C 78.83 250.91 82.66 272.80 80.42 293.37 C 81.99 345.57 80.03 397.86 82.05 450.00 C 81.80 452.20 83.70 453.65 85.06 455.07 C 82.70 455.03 80.25 454.94 78.13 453.77 C 77.00 383.52 75.40 313.29 74.79 243.03 Z" />
<path fill="#9aacba" opacity="1.00" d=" M 315.09 220.16 C 315.76 220.02 317.10 219.73 317.77 219.58 C 318.54 219.75 320.09 220.10 320.86 220.27 L 320.88 220.83 C 318.95 221.03 316.99 221.04 315.06 220.78 L 315.09 220.16 Z" />
<path fill="#9aacba" opacity="1.00" d=" M 328.07 220.29 C 330.10 219.80 332.21 219.67 334.30 219.83 L 335.06 220.02 L 335.01 220.77 C 333.27 220.80 329.80 220.86 328.06 220.88 L 328.07 220.29 Z" />
<path fill="#9aacba" opacity="1.00" d=" M 410.85 249.13 C 412.41 249.39 413.58 250.50 414.03 252.01 C 412.21 252.35 410.65 250.98 410.85 249.13 Z" />
<path fill="#9aacba" opacity="1.00" d=" M 228.92 255.01 C 229.65 252.50 231.41 250.22 234.22 250.06 C 232.60 251.87 230.85 253.55 228.92 255.01 Z" />
<path fill="#9aacba" opacity="1.00" d=" M 415.90 253.05 C 417.38 253.43 418.49 254.50 419.10 255.89 C 417.23 256.42 415.57 254.97 415.90 253.05 Z" />
<path fill="#9aacba" opacity="1.00" d=" M 73.22 255.77 C 74.68 267.87 73.91 280.09 73.74 292.24 C 72.36 280.13 73.10 267.92 73.22 255.77 Z" />
<path fill="#9aacba" opacity="1.00" d=" M 225.88 263.02 C 228.03 260.41 230.54 258.13 233.22 256.07 C 231.97 259.37 228.98 261.57 225.88 263.02 Z" />
<path fill="#9aacba" opacity="1.00" d=" M 424.97 255.89 C 429.73 258.18 433.75 262.36 435.90 267.17 C 432.04 263.62 428.32 259.91 424.97 255.89 Z" />
<path fill="#9aacba" opacity="1.00" d=" M 222.10 262.10 C 221.74 259.77 223.59 257.83 225.92 258.01 C 225.18 259.80 223.79 261.18 222.10 262.10 Z" />
<path fill="#9aacba" opacity="1.00" d=" M 423.74 260.13 C 425.75 261.51 427.74 262.94 429.82 264.23 C 430.15 264.65 430.79 265.50 431.11 265.92 L 431.05 266.94 C 428.13 265.26 425.07 263.40 423.74 260.13 Z" />
<path fill="#9aacba" opacity="1.00" d=" M 215.70 268.54 C 215.85 266.94 217.24 265.89 218.79 265.87 C 218.63 266.46 218.32 267.63 218.16 268.22 C 217.54 268.30 216.31 268.46 215.70 268.54 Z" />
<path fill="#9aacba" opacity="1.00" d=" M 164.33 269.71 C 165.63 280.52 164.93 291.43 164.70 302.27 C 163.32 291.47 164.07 280.55 164.33 269.71 Z" />
<path fill="#9aacba" opacity="1.00" d=" M 433.06 270.02 C 434.84 270.78 436.32 272.15 436.83 274.08 C 434.58 274.06 432.85 272.29 433.06 270.02 Z" />
<path fill="#9aacba" opacity="1.00" d=" M 474.27 273.24 C 475.53 272.79 476.19 273.31 476.25 274.80 C 476.19 275.66 476.09 277.37 476.04 278.23 C 475.64 280.30 475.70 282.65 477.53 284.04 C 479.05 288.96 479.71 294.14 481.08 299.13 C 480.97 305.10 477.09 310.51 471.18 312.05 C 467.12 307.07 468.17 298.44 464.34 294.94 C 467.72 287.73 471.68 280.79 474.27 273.24 Z" />
<path fill="#9aacba" opacity="1.00" d=" M 441.07 279.77 C 445.21 281.03 445.83 285.87 447.85 289.13 C 445.47 286.08 443.11 283.04 441.07 279.77 Z" />
<path fill="#9aacba" opacity="1.00" d=" M 458.83 286.82 C 459.63 285.04 461.34 283.95 462.94 282.95 C 465.26 288.97 461.62 295.25 457.92 300.07 C 459.67 299.41 461.35 298.56 463.13 297.95 C 462.58 301.07 460.85 303.93 460.94 307.18 C 462.97 306.61 466.22 301.77 464.31 306.32 C 459.78 311.60 471.52 320.15 463.18 322.04 C 458.70 313.54 456.33 304.03 451.15 295.86 C 453.89 297.69 456.68 298.90 456.45 294.35 C 459.21 292.42 466.11 284.83 458.83 286.82 Z" />
<path fill="#9aacba" opacity="1.00" d=" M 448.19 289.74 C 450.09 289.68 450.56 291.74 449.77 293.15 C 448.74 292.31 448.20 291.05 448.19 289.74 Z" />
<path fill="#9aacba" opacity="1.00" d=" M 453.85 291.34 C 454.88 290.83 455.94 290.41 457.05 290.10 C 457.37 292.01 454.79 293.21 453.85 291.34 Z" />
<path fill="#9aacba" opacity="1.00" d=" M 74.34 313.71 C 75.66 326.19 74.95 338.77 74.67 351.29 C 73.33 338.81 74.05 326.22 74.34 313.71 Z" />
<path fill="#9aacba" opacity="1.00" d=" M 190.19 332.13 C 189.60 330.71 189.55 328.98 190.77 327.87 C 191.37 329.28 191.49 331.06 190.19 332.13 Z" />
<path fill="#9aacba" opacity="1.00" d=" M 167.25 330.76 C 168.85 361.19 167.79 391.75 167.78 422.23 C 166.13 391.80 167.19 361.24 167.25 330.76 Z" />
<path fill="#9aacba" opacity="1.00" d=" M 189.25 342.02 C 188.01 339.78 188.14 337.42 189.64 334.95 C 191.02 337.18 190.89 339.54 189.25 342.02 Z" />
<path fill="#9aacba" opacity="1.00" d=" M 191.99 343.18 C 191.65 341.39 191.58 339.44 192.71 337.91 C 193.36 339.65 193.63 341.87 191.99 343.18 Z" />
<path fill="#9aacba" opacity="1.00" d=" M 189.24 356.71 C 190.27 359.83 189.80 363.07 189.75 366.32 C 188.63 363.24 189.19 359.89 189.24 356.71 Z" />
<path fill="#9aacba" opacity="1.00" d=" M 192.19 358.93 C 193.58 360.33 193.38 362.39 192.75 364.10 C 191.48 362.64 191.61 360.64 192.19 358.93 Z" />
<path fill="#9aacba" opacity="1.00" d=" M 165.33 362.70 C 166.86 378.81 165.78 395.11 165.71 411.29 C 164.08 395.20 165.20 378.87 165.33 362.70 Z" />
<path fill="#9aacba" opacity="1.00" d=" M 190.19 367.94 C 191.56 369.35 191.38 371.41 190.78 373.13 C 189.46 371.69 189.63 369.66 190.19 367.94 Z" />
<path fill="#9aacba" opacity="1.00" d=" M 75.29 371.72 C 77.14 384.76 75.60 398.14 75.68 411.29 C 73.90 398.23 75.40 384.87 75.29 371.72 Z" />
<path fill="#9aacba" opacity="1.00" d=" M 191.14 373.84 C 192.44 374.91 192.39 376.69 191.82 378.14 C 190.58 377.03 190.59 375.28 191.14 373.84 Z" />
<path fill="#9aacba" opacity="1.00" d=" M 192.18 378.85 C 193.50 379.92 193.38 381.74 192.68 383.14 C 191.57 381.95 191.60 380.27 192.18 378.85 Z" />
<path fill="#9aacba" opacity="1.00" d=" M 469.95 386.86 C 469.73 385.13 471.57 384.56 472.88 384.17 C 472.87 384.56 472.86 385.35 472.85 385.75 L 472.28 386.43 C 471.70 386.54 470.53 386.75 469.95 386.86 Z" />
<path fill="#9aacba" opacity="1.00" d=" M 195.03 391.07 C 197.08 392.37 197.64 394.76 196.74 396.97 C 195.57 395.22 194.71 393.21 195.03 391.07 Z" />
<path fill="#9aacba" opacity="1.00" d=" M 196.93 397.75 C 198.66 400.35 200.83 402.91 200.96 406.19 C 198.98 403.73 197.06 401.04 196.93 397.75 Z" />
<path fill="#9aacba" opacity="1.00" d=" M 202.01 408.84 C 206.00 413.60 207.66 419.91 210.77 425.26 C 206.12 421.02 203.89 414.72 202.01 408.84 Z" />
<path fill="#9aacba" opacity="1.00" d=" M 211.27 425.73 C 215.22 429.03 216.31 434.43 219.95 438.06 C 214.61 436.18 213.52 430.24 211.27 425.73 Z" />
<path fill="#9aacba" opacity="1.00" d=" M 76.28 438.72 C 78.17 446.96 76.48 455.56 76.99 463.93 L 76.00 464.01 C 75.96 455.57 75.98 447.14 76.28 438.72 Z" />
<path fill="#9aacba" opacity="1.00" d=" M 220.32 438.67 C 228.91 448.44 238.90 456.83 248.03 466.07 C 237.55 458.71 226.71 450.01 220.32 438.67 Z" />
<path fill="#9aacba" opacity="1.00" d=" M 415.59 467.74 C 425.73 461.75 432.00 450.97 442.59 445.73 C 440.71 450.69 444.96 454.69 448.87 457.19 C 454.39 460.00 456.24 468.16 449.77 470.90 L 448.92 470.97 C 444.17 471.12 439.36 470.60 434.69 471.57 C 434.33 471.59 433.62 471.64 433.26 471.67 C 430.47 471.37 427.77 471.03 425.00 470.98 C 421.88 470.89 418.83 471.09 415.75 470.87 L 416.00 470.18 C 426.95 472.37 420.56 465.23 415.59 467.74 Z" />
<path fill="#9aacba" opacity="1.00" d=" M 88.78 455.16 C 92.94 454.86 97.09 455.38 101.21 455.95 C 100.31 457.38 99.42 458.83 98.36 460.17 C 99.29 454.24 92.48 456.10 88.78 455.16 Z" />
<path fill="#9aacba" opacity="1.00" d=" M 105.79 456.11 C 109.59 456.18 113.39 456.37 117.19 456.69 C 114.02 456.22 111.98 457.89 111.50 461.00 C 110.32 458.52 108.64 456.56 105.79 456.11 Z" />
<path fill="#9aacba" opacity="1.00" d=" M 239.89 456.10 C 241.74 455.57 243.40 456.99 243.12 458.91 C 241.61 458.56 240.48 457.50 239.89 456.10 Z" />
<path fill="#9aacba" opacity="1.00" d=" M 122.08 456.94 C 132.79 457.27 143.47 458.19 154.17 458.61 C 148.88 456.83 147.51 471.16 147.72 459.09 C 143.35 459.16 136.99 456.99 136.43 463.07 C 136.22 456.14 125.29 455.56 123.23 462.00 C 122.88 460.30 122.54 458.61 122.08 456.94 Z" />
<path fill="#9aacba" opacity="1.00" d=" M 166.94 470.09 C 167.10 465.97 167.32 461.85 167.75 457.77 C 167.84 461.78 167.92 465.81 168.00 469.85 L 166.94 470.09 Z" />
<path fill="#9aacba" opacity="1.00" d=" M 88.03 465.47 C 90.17 464.24 92.59 464.83 94.91 465.53 C 92.93 466.71 89.95 466.81 88.03 465.47 Z" />
<path fill="#9aacba" opacity="1.00" d=" M 105.84 466.01 C 108.66 466.11 111.45 466.43 114.25 466.79 C 111.48 466.99 108.64 467.29 105.90 466.62 L 105.84 466.01 Z" />
<path fill="#9aacba" opacity="1.00" d=" M 125.17 467.02 C 126.78 466.82 128.42 466.93 129.95 467.52 C 128.61 468.47 126.41 468.77 125.09 467.66 L 125.17 467.02 Z" />
<path fill="#9aacba" opacity="1.00" d=" M 139.86 468.07 C 143.39 468.18 147.46 466.17 150.47 468.67 C 146.96 468.89 143.38 469.42 139.90 468.65 L 139.86 468.07 Z" />
<path fill="#9aacba" opacity="1.00" d=" M 249.87 467.04 C 251.34 467.20 254.56 470.25 254.07 467.14 C 255.54 468.56 261.23 470.74 256.83 471.76 C 256.43 471.83 255.63 471.98 255.23 472.05 C 253.25 470.60 251.47 468.90 249.87 467.04 Z" />
<path fill="#9aacba" opacity="1.00" d=" M 412.04 470.38 C 412.94 469.60 413.83 468.80 414.87 468.20 C 415.15 468.70 415.72 469.69 416.00 470.18 L 415.75 470.87 C 414.42 471.48 413.18 471.32 412.04 470.38 Z" />
<path fill="#9aacba" opacity="1.00" d=" M 157.99 468.94 C 159.47 469.08 162.43 469.36 163.91 469.50 C 162.32 470.81 159.49 470.86 157.97 469.41 L 157.99 468.94 Z" />
</g>
<g id="#777c86ff">
<path fill="#777c86" opacity="1.00" d=" M 93.98 27.01 C 82.82 27.85 92.65 24.41 96.22 25.74 C 104.12 26.15 112.03 25.97 119.94 26.19 C 121.41 27.47 123.42 27.36 125.20 26.97 L 126.11 27.12 C 115.90 29.93 104.56 25.93 93.98 27.01 Z" />
<path fill="#777c86" opacity="1.00" d=" M 131.83 27.11 C 143.20 27.02 154.57 26.99 165.94 26.89 C 167.39 27.24 168.82 27.17 170.23 26.68 L 170.98 27.09 C 170.62 27.99 170.30 28.90 170.00 29.82 L 169.01 30.09 C 167.39 31.37 166.96 33.60 167.73 36.75 C 166.28 52.86 167.13 69.07 167.19 85.22 C 166.77 97.73 167.24 110.26 166.78 122.78 C 165.31 135.20 166.11 147.74 166.20 160.21 C 165.87 176.06 165.83 191.92 166.25 207.76 C 166.17 233.24 165.18 258.80 166.75 284.24 C 167.36 299.74 166.63 315.26 167.25 330.76 C 167.19 361.24 166.13 391.80 167.78 422.23 C 168.34 434.06 168.01 445.92 167.75 457.77 C 167.32 461.85 167.10 465.97 166.94 470.09 C 166.19 469.94 164.67 469.65 163.91 469.50 C 162.43 469.36 159.47 469.08 157.99 468.94 C 156.30 468.98 152.94 469.05 151.25 469.08 L 150.47 468.67 C 147.46 466.17 143.39 468.18 139.86 468.07 C 137.98 467.96 136.09 467.98 134.22 468.10 C 132.76 468.14 131.33 467.95 129.95 467.52 C 128.42 466.93 126.78 466.82 125.17 467.02 C 121.80 466.97 118.45 467.03 115.10 466.87 L 114.25 466.79 C 111.45 466.43 108.66 466.11 105.84 466.01 C 104.30 465.88 102.76 465.97 101.22 466.09 C 99.10 466.16 96.98 465.97 94.91 465.53 C 92.59 464.83 90.17 464.24 88.03 465.47 C 84.60 465.87 78.79 466.18 76.99 463.93 C 76.48 455.56 78.17 446.96 76.28 438.72 C 75.83 429.58 76.16 420.42 75.68 411.29 C 75.60 398.14 77.14 384.76 75.29 371.72 C 74.70 364.92 75.11 358.08 74.67 351.29 C 74.95 338.77 75.66 326.19 74.34 313.71 C 73.99 306.55 73.98 299.39 73.74 292.24 C 73.91 280.09 74.68 267.87 73.22 255.77 C 72.87 249.29 73.04 242.78 72.66 236.30 C 72.78 221.80 73.92 207.13 72.29 192.71 C 71.75 171.90 71.88 151.05 72.25 130.24 C 73.76 114.80 72.84 99.25 72.77 83.78 C 72.97 79.45 73.10 75.11 73.21 70.78 C 77.36 73.81 71.13 81.99 76.85 82.31 C 81.77 82.88 73.34 90.24 80.05 90.15 C 77.96 91.78 74.68 93.08 77.01 97.00 C 77.00 137.00 76.98 177.00 77.01 217.00 C 76.97 218.61 78.25 219.81 79.00 221.13 C 76.66 220.94 76.04 218.83 75.44 216.93 C 72.34 225.13 74.26 234.43 74.79 243.03 C 75.40 313.29 77.00 383.52 78.13 453.77 C 80.25 454.94 82.70 455.03 85.06 455.07 C 86.30 455.10 87.54 455.13 88.78 455.16 C 92.48 456.10 99.29 454.24 98.36 460.17 C 99.42 458.83 100.31 457.38 101.21 455.95 C 102.73 455.99 104.26 456.02 105.79 456.11 C 108.64 456.56 110.32 458.52 111.50 461.00 C 111.98 457.89 114.02 456.22 117.19 456.69 C 118.82 456.78 120.45 456.87 122.08 456.94 C 122.54 458.61 122.88 460.30 123.23 462.00 C 125.29 455.56 136.22 456.14 136.43 463.07 C 136.99 456.99 143.35 459.16 147.72 459.09 C 147.51 471.16 148.88 456.83 154.17 458.61 C 158.09 458.84 162.01 458.97 165.94 458.99 C 165.96 443.09 166.33 427.17 165.71 411.29 C 165.78 395.11 166.86 378.81 165.33 362.70 C 164.32 342.57 165.70 322.39 164.70 302.27 C 164.93 291.43 165.63 280.52 164.33 269.71 C 163.89 260.89 164.04 252.06 163.82 243.24 C 163.88 237.18 164.23 231.12 163.93 225.08 C 157.88 224.68 151.68 225.68 145.71 224.34 C 152.11 224.00 158.53 224.27 164.93 223.88 C 165.27 190.60 164.63 157.31 165.22 124.04 C 165.05 120.84 167.55 116.65 164.16 114.68 C 163.41 120.09 165.06 126.02 163.21 131.22 C 163.36 123.12 162.18 114.88 163.48 106.84 C 165.52 109.07 165.70 104.90 164.22 104.01 C 164.18 101.42 164.18 98.84 164.24 96.26 C 167.42 88.92 152.55 95.01 148.71 92.33 C 153.73 91.91 158.78 92.05 163.82 91.89 C 165.53 74.62 164.79 57.18 165.52 39.92 C 164.70 39.21 163.86 38.53 163.00 37.89 C 168.67 35.51 159.34 26.97 166.94 28.87 C 157.13 27.09 142.95 29.36 131.83 27.11 Z" />
<path fill="#777c86" opacity="1.00" d=" M 467.88 43.92 C 471.73 41.07 474.72 32.92 480.02 34.89 C 480.08 39.50 480.24 44.15 479.74 48.74 C 478.86 54.79 478.93 60.92 478.98 67.02 C 478.91 78.67 479.15 90.33 478.92 101.99 C 478.88 102.43 478.79 103.31 478.75 103.75 C 477.63 111.78 477.97 119.92 478.00 128.01 C 477.88 136.64 478.22 145.27 477.86 153.90 L 477.77 154.75 C 476.41 163.77 477.30 172.92 476.92 182.00 C 470.71 182.09 467.13 175.49 460.74 174.28 C 459.02 165.71 460.46 155.85 459.79 146.79 C 459.98 143.94 460.05 141.07 460.24 138.24 C 461.56 127.13 461.00 115.93 460.79 104.78 C 460.98 101.93 461.05 99.08 461.24 96.24 C 462.45 86.79 462.06 77.26 461.77 67.77 C 461.92 66.27 462.10 64.78 462.31 63.29 C 463.88 56.55 461.02 48.50 467.88 43.92 Z" />
<path fill="#777c86" opacity="1.00" d=" M 111.71 36.68 C 113.56 36.31 115.41 35.99 117.27 35.73 C 118.52 35.83 119.77 35.91 121.03 35.95 C 125.10 36.15 129.19 36.08 133.23 36.75 C 130.41 36.91 127.59 37.08 124.78 37.24 C 120.43 37.03 116.07 36.84 111.71 36.68 Z" />
<path fill="#777c86" opacity="1.00" d=" M 74.20 39.69 C 76.20 47.24 74.61 55.27 74.99 62.98 C 72.50 57.99 74.66 48.33 73.89 41.71 C 73.96 41.21 74.12 40.19 74.20 39.69 Z" />
<path fill="#777c86" opacity="1.00" d=" M 421.46 57.92 C 421.94 56.83 422.41 55.73 422.91 54.64 C 424.84 55.43 425.44 57.13 424.54 59.02 C 423.76 60.43 425.18 61.36 426.13 62.13 L 425.78 63.02 C 424.50 63.91 423.23 64.83 421.99 65.77 L 420.94 66.14 C 419.62 65.87 418.32 65.60 417.01 65.33 C 416.20 65.09 413.11 64.24 414.52 63.21 C 416.16 62.58 414.74 60.88 414.68 59.71 C 417.39 61.23 421.77 62.21 421.46 57.92 Z" />
<path fill="#777c86" opacity="1.00" d=" M 92.06 68.01 C 96.28 66.72 91.45 75.96 98.72 70.93 C 102.29 59.07 100.62 90.16 98.81 73.02 C 90.53 67.82 96.80 78.32 92.03 77.01 C 91.99 74.00 91.85 71.01 92.06 68.01 Z" />
<path fill="#777c86" opacity="1.00" d=" M 103.02 68.00 C 105.62 67.82 108.22 67.87 110.81 68.14 C 112.68 71.27 110.18 74.82 111.96 78.10 C 109.51 77.57 106.31 70.57 104.86 75.92 C 101.81 82.72 103.33 69.67 103.02 68.00 M 104.85 70.05 C 105.63 72.35 107.98 72.15 109.99 72.01 C 111.02 68.66 106.73 70.35 104.85 70.05 Z" />
<path fill="#777c86" opacity="1.00" d=" M 113.97 68.03 C 114.63 68.14 126.36 66.88 122.00 69.93 C 115.64 68.18 122.00 78.57 117.09 78.00 C 119.66 71.69 115.39 71.09 113.97 68.03 Z" />
<path fill="#777c86" opacity="1.00" d=" M 315.00 74.06 C 317.50 66.34 326.65 67.73 333.18 68.03 C 332.37 69.20 331.72 70.46 331.07 71.72 C 328.16 73.51 321.01 70.91 322.00 75.87 C 329.40 72.03 335.71 82.04 329.10 86.13 C 323.39 86.96 317.62 87.05 311.86 87.04 C 313.08 85.82 314.85 85.22 316.16 84.07 C 318.87 83.24 327.13 86.21 324.57 80.77 C 321.44 78.93 311.56 82.44 315.00 74.06 Z" />
<path fill="#777c86" opacity="1.00" d=" M 127.25 69.21 C 131.29 68.79 128.46 78.66 135.80 73.91 C 135.22 66.74 148.35 66.79 145.05 75.03 C 146.75 80.78 134.96 81.18 135.70 76.05 C 131.38 72.16 128.55 82.47 126.58 76.38 C 120.35 77.01 124.54 71.19 127.25 69.21 M 139.34 71.14 C 139.78 76.00 144.52 69.50 139.34 71.14 M 139.01 75.02 C 138.00 77.94 141.27 76.88 142.99 76.98 C 144.00 74.06 140.73 75.11 139.01 75.02 Z" />
<path fill="#777c86" opacity="1.00" d=" M 337.19 69.04 C 340.62 71.04 355.68 64.69 351.86 72.12 L 350.80 72.10 C 347.64 70.90 345.44 71.13 344.22 72.79 C 344.01 74.30 343.52 76.33 345.73 76.27 C 348.11 76.55 349.28 77.65 348.05 79.99 L 347.03 80.01 C 342.99 77.44 338.68 81.52 341.86 83.89 C 342.58 83.99 344.02 84.20 344.74 84.30 C 347.21 84.48 348.31 85.61 346.98 87.94 C 342.09 89.44 336.99 87.92 332.03 87.86 C 333.62 81.55 335.65 75.36 337.19 69.04 Z" />
<path fill="#777c86" opacity="1.00" d=" M 354.98 88.03 C 351.17 85.12 354.09 69.88 361.97 69.01 C 364.64 69.02 367.31 69.01 370.00 68.98 C 374.12 68.34 376.37 69.43 372.26 72.21 C 365.43 71.09 362.59 77.57 361.90 83.07 C 363.29 86.23 367.33 84.61 370.14 85.20 C 367.01 90.34 360.02 87.30 354.98 88.03 Z" />
<path fill="#777c86" opacity="1.00" d=" M 374.39 82.33 C 376.89 76.67 375.66 65.76 385.00 68.99 C 387.65 71.46 383.58 77.49 382.51 81.08 C 381.52 82.35 381.92 84.98 383.91 84.77 C 384.44 84.77 385.52 84.77 386.05 84.76 C 388.00 84.97 389.20 83.17 389.16 81.40 C 389.89 78.30 390.80 75.23 391.08 72.05 C 393.42 69.61 396.88 70.20 400.00 69.92 C 399.75 75.19 397.45 80.29 395.76 85.21 C 394.64 86.47 393.45 87.65 392.20 88.78 C 386.68 87.43 370.29 94.14 374.39 82.33 Z" />
<path fill="#777c86" opacity="1.00" d=" M 403.24 69.98 C 404.88 69.97 408.16 69.96 409.81 69.95 C 415.40 74.63 407.90 79.47 403.61 75.72 C 403.40 74.82 403.21 73.92 403.02 73.02 C 403.07 72.26 403.18 70.74 403.24 69.98 Z" />
<path fill="#777c86" opacity="1.00" d=" M 415.66 70.65 C 417.77 69.70 420.00 70.39 422.12 70.90 C 425.34 71.56 422.66 76.98 421.65 78.96 C 420.63 79.79 419.69 80.71 418.85 81.72 L 417.82 81.96 C 415.72 81.78 414.44 83.73 416.36 85.09 C 416.74 86.71 421.22 90.83 417.23 89.81 C 413.72 93.06 407.14 82.21 407.15 86.81 L 407.16 88.07 C 403.93 88.41 398.01 91.17 398.88 86.04 C 399.20 84.40 399.71 82.82 400.21 81.24 C 401.06 76.93 403.39 82.24 405.84 82.30 C 407.47 84.27 409.72 83.99 411.91 83.05 C 413.92 82.27 417.02 81.56 417.11 78.95 C 416.68 76.17 415.77 73.48 415.66 70.65 Z" />
<path fill="#777c86" opacity="1.00" d=" M 426.19 71.74 C 427.20 70.81 428.41 70.15 429.72 69.74 C 434.19 69.81 438.69 69.90 443.18 70.02 C 442.20 71.05 441.44 72.26 440.88 73.56 C 440.43 73.63 439.53 73.79 439.08 73.86 C 436.31 72.80 430.71 75.56 433.69 77.85 C 437.91 77.14 440.24 77.55 440.69 79.06 C 439.46 79.92 438.25 80.81 437.07 81.71 C 436.50 81.78 435.36 81.92 434.79 81.99 C 433.45 81.95 430.63 81.51 430.99 83.68 C 429.90 88.33 436.48 85.24 439.19 86.20 C 438.20 87.40 437.25 88.64 436.22 89.81 C 431.47 90.09 426.71 90.20 421.97 89.93 C 422.26 83.69 425.27 77.90 426.19 71.74 Z" />
<path fill="#777c86" opacity="1.00" d=" M 85.78 90.17 C 92.26 89.91 98.79 89.83 105.23 90.79 C 98.74 91.12 92.21 91.20 85.78 90.17 Z" />
<path fill="#777c86" opacity="1.00" d=" M 112.76 91.24 C 122.24 90.93 131.79 90.52 141.23 91.78 C 131.74 92.06 122.20 92.46 112.76 91.24 Z" />
<path fill="#777c86" opacity="1.00" d=" M 107.76 94.22 C 114.58 93.82 121.45 93.81 128.22 94.81 C 121.40 95.15 114.54 95.17 107.76 94.22 Z" />
<path fill="#777c86" opacity="1.00" d=" M 93.81 95.21 C 98.87 95.06 103.92 95.50 108.95 96.02 L 109.04 97.01 C 103.98 97.06 98.92 96.89 93.87 96.77 C 93.85 96.38 93.82 95.60 93.81 95.21 Z" />
<path fill="#777c86" opacity="1.00" d=" M 148.79 95.14 C 153.61 95.06 158.50 94.99 163.24 96.07 L 163.13 97.07 C 162.38 96.99 160.88 96.82 160.13 96.74 C 156.36 96.15 152.56 95.67 148.79 95.14 Z" />
<path fill="#777c86" opacity="1.00" d=" M 120.96 96.00 C 124.09 95.95 127.18 96.03 130.32 96.15 C 128.29 99.40 124.02 96.70 121.05 97.00 L 120.96 96.00 Z" />
<path fill="#777c86" opacity="1.00" d=" M 148.63 97.71 C 151.74 96.07 155.68 97.33 159.03 96.77 C 159.69 97.86 160.36 98.94 161.07 100.01 C 157.20 98.10 152.97 97.38 148.63 97.71 Z" />
<path fill="#777c86" opacity="1.00" d=" M 90.76 121.24 C 90.00 114.48 89.23 107.53 90.81 100.83 C 91.08 107.63 90.95 114.43 90.76 121.24 Z" />
<path fill="#777c86" opacity="1.00" d=" M 128.86 129.55 C 130.61 128.12 132.68 128.11 135.07 129.50 C 133.14 130.57 130.78 130.72 128.86 129.55 Z" />
<path fill="#777c86" opacity="1.00" d=" M 148.13 130.19 C 153.02 131.31 144.85 133.49 148.13 130.19 Z" />
<path fill="#777c86" opacity="1.00" d=" M 151.13 130.03 C 152.20 131.17 153.54 131.94 155.08 132.24 C 153.30 133.04 151.58 133.97 149.97 135.07 L 150.09 134.18 C 150.46 132.80 150.82 131.42 151.13 130.03 Z" />
<path fill="#777c86" opacity="1.00" d=" M 143.12 131.39 C 144.04 131.87 144.91 132.43 145.81 132.96 C 146.16 133.18 146.85 133.61 147.19 133.83 C 146.89 134.09 146.28 134.61 145.97 134.87 C 142.07 133.22 140.01 139.07 139.55 142.21 C 139.27 140.49 139.01 138.77 138.78 137.04 C 140.36 135.27 141.96 133.48 143.12 131.39 Z" />
<path fill="#777c86" opacity="1.00" d=" M 111.17 138.35 C 111.44 134.82 119.64 129.68 117.91 136.17 C 116.62 131.91 113.53 137.65 111.17 138.35 Z" />
<path fill="#777c86" opacity="1.00" d=" M 122.86 133.15 C 124.43 132.42 125.14 134.63 125.19 135.80 C 123.85 135.61 122.61 134.63 122.86 133.15 Z" />
<path fill="#777c86" opacity="1.00" d=" M 160.11 133.02 C 160.61 133.10 161.61 133.25 162.11 133.33 C 162.35 134.94 162.70 136.54 162.87 138.16 C 161.02 137.87 158.55 138.36 157.53 136.35 C 161.06 137.72 161.59 136.03 160.11 133.02 Z" />
<path fill="#777c86" opacity="1.00" d=" M 125.96 133.93 C 128.36 134.99 130.77 136.00 133.22 136.93 C 130.25 137.28 127.23 137.04 125.96 133.93 Z" />
<path fill="#777c86" opacity="1.00" d=" M 146.10 135.79 C 147.83 137.74 148.10 140.17 146.93 143.07 C 145.07 141.20 144.80 138.77 146.10 135.79 Z" />
<path fill="#777c86" opacity="1.00" d=" M 154.10 141.91 C 155.46 142.11 156.73 142.66 158.00 143.17 C 156.75 144.81 153.86 144.18 154.10 141.91 Z" />
<path fill="#777c86" opacity="1.00" d=" M 160.18 142.24 C 160.82 142.11 162.09 141.86 162.73 141.73 C 162.53 143.53 162.63 145.35 162.80 147.15 C 162.42 146.84 161.65 146.23 161.27 145.93 C 160.92 144.69 160.56 143.46 160.18 142.24 Z" />
<path fill="#777c86" opacity="1.00" d=" M 149.86 144.10 C 151.46 144.67 152.82 145.71 153.98 146.94 C 151.95 147.75 149.57 146.43 149.86 144.10 Z" />
<path fill="#777c86" opacity="1.00" d=" M 111.36 146.69 C 112.16 151.10 111.86 157.30 116.85 159.08 C 118.76 156.88 117.77 153.72 118.04 151.02 C 120.67 151.82 119.84 162.91 114.44 159.64 C 110.67 156.37 110.48 151.31 111.36 146.69 Z" />
<path fill="#777c86" opacity="1.00" d=" M 121.06 151.83 C 121.01 155.35 122.52 158.20 126.03 158.59 C 121.87 161.91 119.65 155.42 121.06 151.83 Z" />
<path fill="#777c86" opacity="1.00" d=" M 128.90 157.89 C 132.29 157.19 135.70 157.11 139.12 157.66 C 135.70 157.74 132.31 157.86 128.90 157.89 Z" />
<path fill="#777c86" opacity="1.00" d=" M 140.09 157.02 C 141.65 157.59 142.79 158.88 143.12 160.52 L 142.85 161.15 C 141.48 160.37 140.34 159.23 139.86 157.69 L 140.09 157.02 Z" />
<path fill="#777c86" opacity="1.00" d=" M 126.79 163.24 C 124.80 163.33 124.00 160.82 125.92 159.97 C 126.35 161.02 126.64 162.11 126.79 163.24 Z" />
<path fill="#777c86" opacity="1.00" d=" M 116.36 161.51 C 120.50 159.77 119.07 172.47 118.71 177.26 C 117.49 172.16 119.65 165.99 116.36 161.51 Z" />
<path fill="#777c86" opacity="1.00" d=" M 111.94 175.98 C 110.29 173.45 108.71 162.63 115.31 161.89 C 111.30 165.49 112.18 171.07 111.94 175.98 Z" />
<path fill="#777c86" opacity="1.00" d=" M 140.73 164.29 C 141.12 163.10 141.89 162.33 143.06 161.98 L 143.33 162.78 C 142.86 163.86 142.06 164.59 140.94 164.96 L 140.73 164.29 Z" />
<path fill="#777c86" opacity="1.00" d=" M 143.95 162.50 C 145.21 161.15 147.64 161.89 147.07 163.96 C 145.94 163.67 144.90 163.18 143.95 162.50 Z" />
<path fill="#777c86" opacity="1.00" d=" M 128.89 164.03 C 132.62 164.10 136.34 164.20 140.08 164.36 C 136.35 164.90 132.52 165.53 128.89 164.03 Z" />
<path fill="#777c86" opacity="1.00" d=" M 139.87 184.98 C 140.00 178.57 139.83 172.12 140.86 165.76 C 141.68 173.82 138.11 183.93 145.61 189.43 C 145.28 191.44 143.94 192.30 141.94 192.03 C 146.20 189.99 141.43 187.27 139.87 184.98 Z" />
<path fill="#777c86" opacity="1.00" d=" M 147.35 170.70 C 148.07 176.17 148.55 181.78 147.24 187.22 C 146.86 181.72 147.13 176.20 147.35 170.70 Z" />
<path fill="#777c86" opacity="1.00" d=" M 94.78 206.22 C 93.41 203.56 92.94 196.25 95.03 195.03 C 95.01 198.75 94.97 202.49 94.78 206.22 Z" />
<path fill="#777c86" opacity="1.00" d=" M 112.82 195.08 C 120.30 191.88 120.21 199.76 123.26 203.77 C 128.72 206.90 135.31 202.55 140.98 205.02 C 146.41 207.29 152.35 208.51 157.34 211.72 C 136.80 212.72 116.32 210.04 95.81 209.42 C 97.48 209.02 99.92 209.35 100.30 207.14 C 106.53 206.90 112.77 207.12 119.00 206.90 C 118.98 201.88 121.07 194.02 112.82 195.08 Z" />
<path fill="#777c86" opacity="1.00" d=" M 97.59 199.82 C 96.02 199.14 97.88 196.76 99.17 197.30 C 99.38 197.53 99.80 197.99 100.00 198.22 C 99.99 198.55 99.97 199.20 99.96 199.52 C 99.17 199.59 98.38 199.69 97.59 199.82 Z" />
<path fill="#777c86" opacity="1.00" d=" M 111.99 197.95 C 113.09 195.77 115.97 199.14 115.81 200.61 C 112.46 201.31 114.80 204.48 115.99 206.10 C 112.55 206.91 111.56 203.71 111.87 200.95 C 110.97 202.85 109.00 203.34 107.05 203.33 C 106.44 202.63 105.83 201.93 105.23 201.24 C 105.02 196.44 111.22 201.82 111.99 197.95 Z" />
<path fill="#777c86" opacity="1.00" d=" M 100.76 199.90 C 102.47 199.89 104.24 200.04 104.87 201.89 L 104.72 202.82 C 103.10 205.30 101.44 205.10 101.11 202.06 C 104.27 202.42 102.03 200.95 100.76 199.90 Z" />
<path fill="#777c86" opacity="1.00" d=" M 97.16 203.16 C 101.80 202.16 96.16 207.80 97.16 203.16 Z" />
<path fill="#777c86" opacity="1.00" d=" M 107.18 204.22 C 112.73 201.55 109.70 208.95 106.86 204.89 L 107.18 204.22 Z" />
<path fill="#777c86" opacity="1.00" d=" M 158.08 211.77 C 159.58 210.86 161.19 209.91 163.01 210.02 C 163.48 212.96 159.81 212.40 158.08 211.77 Z" />
<path fill="#777c86" opacity="1.00" d=" M 311.91 217.82 C 312.97 216.60 314.65 216.58 316.09 217.07 C 315.16 218.52 313.30 218.37 311.91 217.82 Z" />
<path fill="#777c86" opacity="1.00" d=" M 331.93 217.17 C 333.64 216.61 335.66 216.46 337.08 217.79 C 335.37 218.38 333.31 218.57 331.93 217.17 Z" />
<path fill="#777c86" opacity="1.00" d=" M 341.90 218.15 C 343.31 217.60 345.04 217.56 346.12 218.81 C 344.71 219.37 342.91 219.50 341.90 218.15 Z" />
<path fill="#777c86" opacity="1.00" d=" M 317.77 219.58 C 323.22 218.69 328.88 218.57 334.30 219.83 C 332.21 219.67 330.10 219.80 328.07 220.29 C 326.26 220.28 322.66 220.27 320.86 220.27 C 320.09 220.10 318.54 219.75 317.77 219.58 Z" />
<path fill="#777c86" opacity="1.00" d=" M 307.06 221.06 C 308.79 218.84 312.48 220.47 315.09 220.16 L 315.06 220.78 C 314.32 220.90 312.82 221.15 312.08 221.27 C 310.43 220.88 308.71 220.62 307.06 221.06 Z" />
<path fill="#777c86" opacity="1.00" d=" M 335.06 220.02 C 360.48 220.83 385.95 229.55 406.38 244.73 L 406.11 245.81 C 404.07 244.63 402.09 243.35 399.99 242.30 C 381.95 231.57 361.91 224.66 341.12 221.77 C 339.99 220.59 338.29 220.59 336.86 221.12 C 336.40 221.03 335.47 220.86 335.01 220.77 L 335.06 220.02 Z" />
<path fill="#777c86" opacity="1.00" d=" M 79.81 221.43 C 81.38 221.54 84.53 221.75 86.11 221.85 C 84.53 221.75 81.38 221.54 79.81 221.43 Z" />
<path fill="#777c86" opacity="1.00" d=" M 300.76 222.72 C 301.02 220.17 302.78 219.73 306.05 221.42 C 304.47 222.33 302.64 223.61 300.76 222.72 Z" />
<path fill="#777c86" opacity="1.00" d=" M 102.76 222.19 C 107.26 222.07 111.77 222.07 116.22 222.83 C 111.73 222.91 107.21 222.89 102.76 222.19 Z" />
<path fill="#777c86" opacity="1.00" d=" M 126.76 223.20 C 131.26 223.07 135.77 223.06 140.23 223.79 C 135.73 223.92 131.21 223.91 126.76 223.20 Z" />
<path fill="#777c86" opacity="1.00" d=" M 271.07 230.92 C 271.45 229.14 273.96 227.81 274.82 230.02 L 274.20 230.60 C 273.16 230.72 272.11 230.82 271.07 230.92 Z" />
<path fill="#777c86" opacity="1.00" d=" M 406.38 244.73 C 415.47 249.38 423.04 256.74 429.82 264.23 C 427.74 262.94 425.75 261.51 423.74 260.13 C 422.22 258.68 420.68 257.26 419.10 255.89 C 418.49 254.50 417.38 253.43 415.90 253.05 C 415.43 252.79 414.50 252.27 414.03 252.01 C 413.58 250.50 412.41 249.39 410.85 249.13 C 409.22 248.09 407.63 246.99 406.11 245.81 L 406.38 244.73 Z" />
<path fill="#777c86" opacity="1.00" d=" M 234.94 249.87 C 235.48 248.45 236.61 247.38 238.14 247.12 C 238.39 249.00 236.76 250.41 234.94 249.87 Z" />
<path fill="#777c86" opacity="1.00" d=" M 233.22 256.07 C 233.32 253.95 234.52 251.76 236.96 252.07 C 236.13 253.72 235.25 255.70 233.22 256.07 Z" />
<path fill="#777c86" opacity="1.00" d=" M 419.96 252.01 C 421.80 251.60 423.39 253.05 423.08 254.94 C 421.56 254.58 420.45 253.46 419.96 252.01 Z" />
<path fill="#777c86" opacity="1.00" d=" M 225.92 258.01 C 225.55 256.16 227.06 254.61 228.92 255.01 C 228.52 256.50 227.40 257.59 225.92 258.01 Z" />
<path fill="#777c86" opacity="1.00" d=" M 218.79 265.87 C 218.97 264.15 220.52 263.33 222.01 262.87 C 222.34 264.85 220.47 265.79 218.79 265.87 Z" />
<path fill="#777c86" opacity="1.00" d=" M 222.42 267.30 C 222.18 265.09 223.36 262.78 225.88 263.02 C 225.18 264.75 224.19 266.48 222.42 267.30 Z" />
<path fill="#777c86" opacity="1.00" d=" M 431.11 265.92 C 436.42 268.94 437.93 277.14 444.18 277.97 C 447.94 282.02 450.16 287.22 453.85 291.34 C 454.79 293.21 457.37 292.01 457.05 290.10 C 457.62 288.99 458.21 287.90 458.83 286.82 C 466.11 284.83 459.21 292.42 456.45 294.35 C 456.68 298.90 453.89 297.69 451.15 295.86 C 450.66 294.96 450.20 294.06 449.77 293.15 C 450.56 291.74 450.09 289.68 448.19 289.74 L 447.85 289.13 C 445.83 285.87 445.21 281.03 441.07 279.77 C 439.17 278.25 437.79 276.29 436.83 274.08 C 436.32 272.15 434.84 270.78 433.06 270.02 C 432.38 268.99 431.70 267.97 431.05 266.94 L 431.11 265.92 Z" />
<path fill="#777c86" opacity="1.00" d=" M 215.70 268.54 C 216.31 268.46 217.54 268.30 218.16 268.22 C 218.14 269.89 216.57 270.58 215.22 271.03 C 215.34 270.41 215.58 269.17 215.70 268.54 Z" />
<path fill="#777c86" opacity="1.00" d=" M 436.21 267.81 C 438.05 267.66 439.36 269.27 438.95 271.06 C 437.47 270.56 436.35 269.39 436.21 267.81 Z" />
<path fill="#777c86" opacity="1.00" d=" M 211.45 277.50 C 211.68 275.03 212.47 272.72 214.94 271.74 C 214.28 273.93 212.81 275.72 211.45 277.50 Z" />
<path fill="#777c86" opacity="1.00" d=" M 206.29 285.24 C 206.38 283.48 206.60 281.07 208.85 280.90 C 208.55 282.60 208.31 284.78 206.29 285.24 Z" />
<path fill="#777c86" opacity="1.00" d=" M 190.77 327.87 C 193.97 316.42 195.08 303.81 201.96 293.82 C 196.49 310.00 189.69 326.70 191.86 344.13 C 192.03 349.06 192.06 353.98 192.19 358.93 C 191.61 360.64 191.48 362.64 192.75 364.10 C 195.78 399.33 213.24 432.93 239.89 456.10 C 240.48 457.50 241.61 458.56 243.12 458.91 C 246.46 462.04 250.26 464.60 254.07 467.14 C 254.56 470.25 251.34 467.20 249.87 467.04 C 249.41 466.80 248.49 466.31 248.03 466.07 C 238.90 456.83 228.91 448.44 220.32 438.67 L 219.95 438.06 C 216.31 434.43 215.22 429.03 211.27 425.73 L 210.77 425.26 C 207.66 419.91 206.00 413.60 202.01 408.84 C 201.65 407.95 201.30 407.07 200.96 406.19 C 200.83 402.91 198.66 400.35 196.93 397.75 L 196.74 396.97 C 197.64 394.76 197.08 392.37 195.03 391.07 C 193.94 388.53 193.13 385.87 192.68 383.14 C 193.38 381.74 193.50 379.92 192.18 378.85 L 191.82 378.14 C 192.39 376.69 192.44 374.91 191.14 373.84 L 190.78 373.13 C 191.38 371.41 191.56 369.35 190.19 367.94 C 190.08 367.54 189.86 366.73 189.75 366.32 C 189.80 363.07 190.27 359.83 189.24 356.71 C 188.82 351.82 189.14 346.90 189.25 342.02 C 190.89 339.54 191.02 337.18 189.64 334.95 C 189.78 334.25 190.05 332.84 190.19 332.13 C 191.49 331.06 191.37 329.28 190.77 327.87 Z" />
<path fill="#777c86" opacity="1.00" d=" M 469.95 386.86 C 470.53 386.75 471.70 386.54 472.28 386.43 C 472.52 388.62 469.21 389.83 469.95 386.86 Z" />
<path fill="#777c86" opacity="1.00" d=" M 415.59 467.74 C 420.56 465.23 426.95 472.37 416.00 470.18 C 415.72 469.69 415.15 468.70 414.87 468.20 L 415.59 467.74 Z" />
</g>
<g id="#111b2aff">
<path fill="#111b2a" opacity="1.00" d=" M 80.05 90.15 C 81.96 90.11 83.87 90.11 85.78 90.17 C 92.21 91.20 98.74 91.12 105.23 90.79 C 107.74 90.94 110.25 91.09 112.76 91.24 C 122.20 92.46 131.74 92.06 141.23 91.78 C 143.72 91.96 146.21 92.15 148.71 92.33 C 152.55 95.01 167.42 88.92 164.24 96.26 L 163.24 96.07 C 158.50 94.99 153.61 95.06 148.79 95.14 C 141.93 94.96 135.07 95.17 128.22 94.81 C 121.45 93.81 114.58 93.82 107.76 94.22 C 104.58 95.35 93.47 91.78 93.81 95.21 C 93.82 95.60 93.85 96.38 93.87 96.77 C 92.73 98.03 91.61 99.33 90.81 100.83 C 89.23 107.53 90.00 114.48 90.76 121.24 C 91.36 148.82 90.77 176.41 91.02 204.00 C 90.89 206.85 93.29 208.73 95.81 209.42 C 116.32 210.04 136.80 212.72 157.34 211.72 L 158.08 211.77 C 159.81 212.40 163.48 212.96 163.01 210.02 C 162.83 189.06 163.32 168.10 162.80 147.15 C 162.63 145.35 162.53 143.53 162.73 141.73 C 162.86 140.54 162.91 139.35 162.87 138.16 C 162.70 136.54 162.35 134.94 162.11 133.33 C 162.39 132.80 162.94 131.75 163.21 131.22 C 165.06 126.02 163.41 120.09 164.16 114.68 C 167.55 116.65 165.05 120.84 165.22 124.04 C 164.63 157.31 165.27 190.60 164.93 223.88 C 158.53 224.27 152.11 224.00 145.71 224.34 C 143.89 224.11 142.06 223.93 140.23 223.79 C 135.77 223.06 131.26 223.07 126.76 223.20 C 123.24 223.07 119.74 223.01 116.22 222.83 C 111.77 222.07 107.26 222.07 102.76 222.19 C 97.21 222.03 91.66 221.96 86.11 221.85 C 84.53 221.75 81.38 221.54 79.81 221.43 L 79.00 221.13 C 78.25 219.81 76.97 218.61 77.01 217.00 C 76.98 177.00 77.00 137.00 77.01 97.00 C 74.68 93.08 77.96 91.78 80.05 90.15 Z" />
<path fill="#111b2a" opacity="1.00" d=" M 108.95 96.02 C 112.95 96.01 116.95 96.00 120.96 96.00 L 121.05 97.00 C 117.04 97.00 113.04 97.00 109.04 97.01 L 108.95 96.02 Z" />
<path fill="#111b2a" opacity="1.00" d=" M 159.03 96.77 L 160.13 96.74 C 160.88 96.82 162.38 96.99 163.13 97.07 C 162.96 98.56 163.32 100.81 161.07 100.01 C 160.36 98.94 159.69 97.86 159.03 96.77 Z" />
<path fill="#111b2a" opacity="1.00" d=" M 164.22 104.01 C 165.70 104.90 165.52 109.07 163.48 106.84 C 163.66 106.14 164.03 104.72 164.22 104.01 Z" />
<path fill="#111b2a" opacity="1.00" d=" M 145.81 132.96 C 144.79 129.32 148.88 126.51 151.13 130.03 C 150.82 131.42 150.46 132.80 150.09 134.18 C 149.36 134.09 147.92 133.92 147.19 133.83 C 146.85 133.61 146.16 133.18 145.81 132.96 M 148.13 130.19 C 144.85 133.49 153.02 131.31 148.13 130.19 Z" />
<path fill="#111b2a" opacity="1.00" d=" M 125.96 133.93 C 122.56 131.11 125.95 130.23 128.86 129.55 C 130.78 130.72 133.14 130.57 135.07 129.50 C 137.78 129.96 140.59 130.21 143.12 131.39 C 141.96 133.48 140.36 135.27 138.78 137.04 C 136.93 137.01 135.07 136.98 133.22 136.93 C 130.77 136.00 128.36 134.99 125.96 133.93 Z" />
<path fill="#111b2a" opacity="1.00" d=" M 155.08 132.24 C 156.76 132.48 158.43 132.76 160.11 133.02 C 161.59 136.03 161.06 137.72 157.53 136.35 C 153.78 134.76 153.61 139.40 154.10 141.91 C 153.86 144.18 156.75 144.81 158.00 143.17 C 158.55 142.94 159.63 142.47 160.18 142.24 C 160.56 143.46 160.92 144.69 161.27 145.93 C 158.85 146.33 156.42 146.67 153.98 146.94 C 152.82 145.71 151.46 144.67 149.86 144.10 C 149.45 141.10 149.50 138.05 149.97 135.07 C 151.58 133.97 153.30 133.04 155.08 132.24 Z" />
<path fill="#111b2a" opacity="1.00" d=" M 121.06 151.83 C 122.01 146.07 118.65 137.67 122.86 133.15 C 122.61 134.63 123.85 135.61 125.19 135.80 C 131.60 140.97 126.33 151.03 128.15 157.98 C 127.91 158.19 127.42 158.63 127.18 158.84 C 126.90 158.78 126.32 158.65 126.03 158.59 C 122.52 158.20 121.01 155.35 121.06 151.83 Z" />
<path fill="#111b2a" opacity="1.00" d=" M 111.17 138.35 C 113.53 137.65 116.62 131.91 117.91 136.17 C 118.11 141.11 118.05 146.07 118.04 151.02 C 117.77 153.72 118.76 156.88 116.85 159.08 C 111.86 157.30 112.16 151.10 111.36 146.69 C 110.98 143.93 110.71 141.11 111.17 138.35 Z" />
<path fill="#111b2a" opacity="1.00" d=" M 139.55 142.21 C 140.01 139.07 142.07 133.22 145.97 134.87 L 146.10 135.79 C 144.80 138.77 145.07 141.20 146.93 143.07 C 145.21 147.67 151.02 160.32 143.12 160.52 C 142.79 158.88 141.65 157.59 140.09 157.02 C 140.01 152.08 139.85 147.14 139.55 142.21 Z" />
<path fill="#111b2a" opacity="1.00" d=" M 128.15 157.98 L 128.90 157.89 C 132.31 157.86 135.70 157.74 139.12 157.66 L 139.86 157.69 C 140.34 159.23 141.48 160.37 142.85 161.15 L 143.06 161.98 C 141.89 162.33 141.12 163.10 140.73 164.29 L 140.08 164.36 C 136.34 164.20 132.62 164.10 128.89 164.03 C 128.37 163.83 127.32 163.44 126.79 163.24 C 126.64 162.11 126.35 161.02 125.92 159.97 C 126.24 159.69 126.87 159.12 127.18 158.84 C 127.42 158.63 127.91 158.19 128.15 157.98 Z" />
<path fill="#111b2a" opacity="1.00" d=" M 115.31 161.89 L 116.36 161.51 C 119.65 165.99 117.49 172.16 118.71 177.26 C 118.99 181.17 119.69 185.41 117.79 189.05 C 112.67 186.32 111.16 181.42 111.94 175.98 C 112.18 171.07 111.30 165.49 115.31 161.89 Z" />
<path fill="#111b2a" opacity="1.00" d=" M 143.33 162.78 L 143.95 162.50 C 144.90 163.18 145.94 163.67 147.07 163.96 C 147.14 165.64 147.28 169.02 147.35 170.70 C 147.13 176.20 146.86 181.72 147.24 187.22 C 146.82 188.04 146.28 188.78 145.61 189.43 C 138.11 183.93 141.68 173.82 140.86 165.76 L 140.94 164.96 C 142.06 164.59 142.86 163.86 143.33 162.78 Z" />
<path fill="#111b2a" opacity="1.00" d=" M 124.90 190.83 C 126.66 183.80 134.19 184.73 139.87 184.98 C 141.43 187.27 146.20 189.99 141.94 192.03 C 136.27 192.01 130.36 192.58 124.90 190.83 Z" />
<path fill="#111b2a" opacity="1.00" d=" M 95.03 195.03 C 100.95 194.80 106.89 195.01 112.82 195.08 C 121.07 194.02 118.98 201.88 119.00 206.90 C 112.77 207.12 106.53 206.90 100.30 207.14 C 98.56 206.72 95.97 207.74 94.78 206.22 C 94.97 202.49 95.01 198.75 95.03 195.03 M 97.59 199.82 C 98.42 201.10 99.34 202.51 101.11 202.06 C 101.44 205.10 103.10 205.30 104.72 202.82 C 104.68 204.50 105.40 205.19 106.86 204.89 C 109.70 208.95 112.73 201.55 107.18 204.22 L 107.05 203.33 C 109.00 203.34 110.97 202.85 111.87 200.95 C 111.56 203.71 112.55 206.91 115.99 206.10 C 114.80 204.48 112.46 201.31 115.81 200.61 C 115.97 199.14 113.09 195.77 111.99 197.95 C 111.22 201.82 105.02 196.44 105.23 201.24 L 104.87 201.89 C 104.24 200.04 102.47 199.89 100.76 199.90 L 99.96 199.52 C 99.97 199.20 99.99 198.55 100.00 198.22 C 104.26 199.08 101.91 195.23 99.17 197.30 C 97.88 196.76 96.02 199.14 97.59 199.82 M 97.16 203.16 C 96.16 207.80 101.80 202.16 97.16 203.16 Z" />
<path fill="#111b2a" opacity="1.00" d=" M 316.09 217.07 C 321.37 216.95 326.64 217.07 331.93 217.17 C 333.31 218.57 335.37 218.38 337.08 217.79 C 338.68 217.92 340.29 218.03 341.90 218.15 C 342.91 219.50 344.71 219.37 346.12 218.81 C 373.24 222.93 398.59 234.97 419.96 252.01 C 420.45 253.46 421.56 254.58 423.08 254.94 C 423.55 255.18 424.49 255.65 424.97 255.89 C 428.32 259.91 432.04 263.62 435.90 267.17 L 436.21 267.81 C 436.35 269.39 437.47 270.56 438.95 271.06 C 440.57 273.45 442.27 275.79 444.18 277.97 C 437.93 277.14 436.42 268.94 431.11 265.92 C 430.79 265.50 430.15 264.65 429.82 264.23 C 423.04 256.74 415.47 249.38 406.38 244.73 C 385.95 229.55 360.48 220.83 335.06 220.02 L 334.30 219.83 C 328.88 218.57 323.22 218.69 317.77 219.58 C 317.10 219.73 315.76 220.02 315.09 220.16 C 312.48 220.47 308.79 218.84 307.06 221.06 L 306.77 221.59 L 306.05 221.42 C 302.78 219.73 301.02 220.17 300.76 222.72 C 292.00 224.72 283.16 226.62 274.82 230.02 C 273.96 227.81 271.45 229.14 271.07 230.92 C 270.87 231.25 270.47 231.91 270.27 232.24 C 269.09 232.32 267.97 232.64 266.92 233.18 C 256.04 238.08 246.66 245.47 236.96 252.07 C 234.52 251.76 233.32 253.95 233.22 256.07 C 230.54 258.13 228.03 260.41 225.88 263.02 C 223.36 262.78 222.18 265.09 222.42 267.30 C 205.96 287.28 195.22 312.04 192.71 337.91 C 191.58 339.44 191.65 341.39 191.99 343.18 L 191.86 344.13 C 189.69 326.70 196.49 310.00 201.96 293.82 C 203.52 291.02 204.89 288.12 206.29 285.24 C 208.31 284.78 208.55 282.60 208.85 280.90 C 209.92 279.93 210.80 278.79 211.45 277.50 C 212.81 275.72 214.28 273.93 214.94 271.74 L 215.22 271.03 C 216.57 270.58 218.14 269.89 218.16 268.22 C 218.32 267.63 218.63 266.46 218.79 265.87 C 220.47 265.79 222.34 264.85 222.01 262.87 L 222.10 262.10 C 223.79 261.18 225.18 259.80 225.92 258.01 C 227.40 257.59 228.52 256.50 228.92 255.01 C 230.85 253.55 232.60 251.87 234.22 250.06 L 234.94 249.87 C 236.76 250.41 238.39 249.00 238.14 247.12 C 259.49 230.99 284.89 219.59 311.91 217.82 C 313.30 218.37 315.16 218.52 316.09 217.07 Z" />
</g>
</svg>
