<?xml version="1.0" encoding="UTF-8" ?>
<!DOCTYPE svg PUBLIC "-//W3C//DTD SVG 1.1//EN" "http://www.w3.org/Graphics/SVG/1.1/DTD/svg11.dtd">
<svg width="500pt" height="500pt" viewBox="0 0 500 500" version="1.1" xmlns="http://www.w3.org/2000/svg">
<g id="#fefefeff">
<path fill="#fefefe" opacity="1.00" d=" M 0.00 0.00 L 500.00 0.00 L 500.00 500.00 L 0.00 500.00 L 0.00 0.00 M 31.76 26.53 C 29.85 26.83 28.01 28.43 26.88 30.02 C 23.92 30.26 21.37 32.47 20.02 35.02 C 13.36 46.90 18.49 61.37 17.24 74.24 C 14.98 113.71 17.47 153.17 17.26 192.73 C 17.38 236.05 17.53 279.48 20.33 322.70 C 19.48 360.15 22.80 397.52 21.97 435.01 C 21.55 443.01 23.19 452.03 29.14 457.87 C 44.05 463.42 60.39 462.56 76.01 464.03 L 77.00 463.82 C 79.93 464.62 82.95 464.79 85.97 464.94 C 86.97 467.61 92.78 464.95 95.26 465.74 C 97.83 465.93 100.41 466.02 103.01 465.99 C 105.82 467.29 109.57 467.54 114.26 466.73 C 114.94 466.78 116.30 466.89 116.98 466.94 C 118.02 470.48 126.33 466.45 129.26 467.74 C 132.16 468.08 135.07 468.05 137.99 468.06 C 139.28 471.35 147.38 467.65 150.38 468.60 C 151.78 469.34 153.46 468.87 154.98 468.99 C 156.32 471.66 162.66 468.76 165.25 469.75 C 165.68 469.80 166.53 469.89 166.95 469.94 L 168.00 469.86 C 186.29 472.03 204.69 472.37 223.02 473.88 C 234.38 473.23 246.36 477.15 257.11 472.13 C 267.29 472.21 275.05 479.91 284.64 482.45 C 325.73 500.37 374.23 492.85 411.83 470.51 C 416.80 471.64 421.94 470.76 427.00 471.01 C 433.58 472.71 447.00 473.63 453.95 468.99 C 457.17 467.35 458.65 463.10 459.92 460.09 C 463.91 455.45 465.64 449.16 469.05 444.03 C 476.08 433.13 471.51 420.00 471.94 408.00 C 471.52 395.90 472.97 383.99 478.00 373.01 C 482.15 355.90 486.10 336.26 483.06 320.02 C 482.87 313.56 482.58 305.13 481.07 300.04 C 480.72 292.80 479.02 285.55 476.14 278.91 C 475.61 267.91 476.34 256.88 475.86 245.88 C 478.65 234.10 476.45 221.63 476.64 209.65 C 476.74 208.99 476.93 207.69 477.02 207.03 L 477.95 206.95 C 478.03 190.22 478.19 173.47 477.76 156.75 C 477.80 156.31 477.89 155.43 477.93 154.99 C 480.89 148.47 478.05 136.28 478.94 127.97 C 479.23 119.89 479.01 111.81 478.73 103.74 C 479.48 95.53 478.79 87.25 479.00 79.01 C 482.06 72.06 478.98 59.37 479.73 50.74 C 480.33 45.45 480.01 40.10 480.07 34.79 C 480.09 32.98 480.10 30.99 478.64 29.67 C 479.80 28.28 477.26 26.97 476.65 25.81 C 474.45 20.85 467.16 19.42 462.01 19.00 C 339.81 17.89 217.33 15.08 95.39 12.35 C 89.94 11.79 84.45 11.75 79.01 11.03 C 61.33 7.78 46.88 19.79 31.76 26.53 Z" />
</g>
<g id="#dcd7d7ff">
<path fill="#dcd7d7" opacity="1.00" d=" M 31.76 26.53 C 46.88 19.79 61.33 7.78 79.01 11.03 C 84.45 11.75 89.94 11.79 95.39 12.35 C 89.62 17.18 79.97 9.11 75.85 16.73 C 86.03 19.34 96.56 18.01 106.93 18.15 C 112.64 21.33 118.97 15.38 124.83 17.98 C 128.04 20.57 133.96 15.05 134.41 19.75 C 146.09 20.07 158.01 18.22 169.54 20.61 C 172.86 22.89 176.52 19.47 180.04 19.87 C 188.07 19.05 196.20 23.74 204.01 20.17 C 207.08 17.18 208.28 20.55 210.13 21.88 C 213.99 21.25 219.28 18.80 222.31 22.41 C 230.20 19.27 237.66 21.91 245.65 22.37 C 250.35 24.91 261.87 14.92 259.03 24.03 C 264.97 19.21 270.92 27.80 276.71 22.72 C 280.63 19.64 284.05 27.53 287.80 23.81 C 291.92 20.29 297.50 24.90 302.14 23.22 C 305.32 22.70 309.42 19.12 311.44 23.38 C 315.55 23.04 320.92 19.84 323.55 24.41 C 327.80 24.83 333.61 19.56 336.43 24.70 C 340.91 24.63 346.32 20.83 350.23 24.81 C 354.54 23.22 361.87 19.13 361.40 27.08 C 364.66 25.51 367.45 22.01 371.41 22.59 C 374.89 22.33 372.42 26.54 374.78 28.14 C 368.50 32.41 361.57 25.61 355.67 30.52 C 351.84 30.12 347.98 28.59 344.42 31.21 C 344.47 30.65 344.57 29.52 344.62 28.96 C 324.22 32.41 303.52 23.18 283.33 29.37 C 276.38 32.50 269.61 28.39 262.67 28.43 C 248.54 29.94 234.72 26.32 220.60 26.72 C 209.51 30.32 197.47 28.26 186.01 27.94 C 177.37 28.67 169.18 22.79 160.73 26.73 C 151.12 27.08 141.51 27.06 131.91 27.07 C 130.51 26.76 127.23 23.51 128.26 26.74 C 113.14 26.37 98.02 25.48 82.93 25.22 C 80.60 26.02 78.45 27.22 76.18 28.17 C 61.37 28.13 46.54 27.56 31.76 26.53 Z" />
</g>
<g id="#e3deddff">
<path fill="#e3dedd" opacity="1.00" d=" M 95.39 12.35 C 217.33 15.08 339.81 17.89 462.01 19.00 C 467.16 19.42 474.45 20.85 476.65 25.81 C 470.08 28.66 466.62 35.75 461.35 40.36 C 459.15 42.67 460.79 45.77 461.18 48.42 C 443.56 35.74 420.66 43.14 400.54 40.62 C 327.23 38.32 253.85 38.00 180.57 35.50 C 177.02 36.08 170.51 36.43 169.21 31.88 C 261.86 35.84 354.73 35.56 447.36 39.60 C 451.46 40.50 455.08 42.78 459.04 44.10 C 457.17 40.40 456.01 36.35 457.00 32.20 C 437.82 39.80 416.96 33.12 397.04 34.70 C 321.30 33.66 245.45 31.44 169.67 29.81 C 177.11 25.66 163.32 27.12 160.73 26.73 C 169.18 22.79 177.37 28.67 186.01 27.94 C 197.47 28.26 209.51 30.32 220.60 26.72 C 234.72 26.32 248.54 29.94 262.67 28.43 C 269.61 28.39 276.38 32.50 283.33 29.37 C 303.52 23.18 324.22 32.41 344.62 28.96 C 344.57 29.52 344.47 30.65 344.42 31.21 C 347.98 28.59 351.84 30.12 355.67 30.52 C 361.57 25.61 368.50 32.41 374.78 28.14 C 372.42 26.54 374.89 22.33 371.41 22.59 C 367.45 22.01 364.66 25.51 361.40 27.08 C 361.87 19.13 354.54 23.22 350.23 24.81 C 346.32 20.83 340.91 24.63 336.43 24.70 C 333.61 19.56 327.80 24.83 323.55 24.41 C 320.92 19.84 315.55 23.04 311.44 23.38 C 309.42 19.12 305.32 22.70 302.14 23.22 C 297.50 24.90 291.92 20.29 287.80 23.81 C 284.05 27.53 280.63 19.64 276.71 22.72 C 270.92 27.80 264.97 19.21 259.03 24.03 C 261.87 14.92 250.35 24.91 245.65 22.37 C 237.66 21.91 230.20 19.27 222.31 22.41 C 219.28 18.80 213.99 21.25 210.13 21.88 C 208.28 20.55 207.08 17.18 204.01 20.17 C 196.20 23.74 188.07 19.05 180.04 19.87 C 176.52 19.47 172.86 22.89 169.54 20.61 C 158.01 18.22 146.09 20.07 134.41 19.75 C 133.96 15.05 128.04 20.57 124.83 17.98 C 118.97 15.38 112.64 21.33 106.93 18.15 C 96.56 18.01 86.03 19.34 75.85 16.73 C 79.97 9.11 89.62 17.18 95.39 12.35 Z" />
</g>
<g id="#a8b6cfff">
<path fill="#a8b6cf" opacity="1.00" d=" M 76.18 28.17 C 78.45 27.22 80.60 26.02 82.93 25.22 C 94.97 30.35 108.27 25.32 120.87 28.25 C 123.38 28.34 129.30 30.69 128.26 26.74 C 127.23 23.51 130.51 26.76 131.91 27.07 C 142.76 29.23 154.27 26.51 164.92 30.32 C 165.71 33.71 165.71 37.47 161.81 37.79 C 152.15 37.59 142.28 39.09 132.72 37.32 C 135.35 36.73 139.67 38.34 141.18 36.03 C 128.71 36.35 116.07 35.05 103.70 36.71 C 96.52 37.23 89.38 36.43 82.25 35.72 C 79.58 34.89 76.87 34.17 74.09 33.84 C 74.03 33.13 73.89 31.71 73.83 31.01 C 74.60 30.05 75.38 29.10 76.18 28.17 Z" />
</g>
<g id="#888e9fff">
<path fill="#888e9f" opacity="1.00" d=" M 82.93 25.22 C 98.02 25.48 113.14 26.37 128.26 26.74 C 129.30 30.69 123.38 28.34 120.87 28.25 C 108.27 25.32 94.97 30.35 82.93 25.22 Z" />
</g>
<g id="#efe9e9ff">
<path fill="#efe9e9" opacity="1.00" d=" M 26.88 30.02 C 28.01 28.43 29.85 26.83 31.76 26.53 C 46.54 27.56 61.37 28.13 76.18 28.17 C 75.38 29.10 74.60 30.05 73.83 31.01 C 58.16 31.55 42.51 28.06 26.88 30.02 Z" />
</g>
<g id="#c7c2c2ff">
<path fill="#c7c2c2" opacity="1.00" d=" M 461.35 40.36 C 466.62 35.75 470.08 28.66 476.65 25.81 C 477.26 26.97 479.80 28.28 478.64 29.67 C 472.15 34.77 466.57 41.05 461.71 47.69 L 461.18 48.42 C 460.79 45.77 459.15 42.67 461.35 40.36 Z" />
</g>
<g id="#6e7c9bff">
<path fill="#6e7c9b" opacity="1.00" d=" M 131.91 27.07 C 141.51 27.06 151.12 27.08 160.73 26.73 C 163.32 27.12 177.11 25.66 169.67 29.81 L 168.82 30.23 C 166.77 34.40 168.55 40.86 167.78 45.76 C 166.22 59.46 167.30 73.28 166.97 87.03 C 166.92 90.08 166.89 93.14 166.89 96.20 C 166.70 92.66 166.86 88.28 163.84 91.89 C 163.84 84.83 164.54 77.81 164.86 70.77 C 165.05 61.14 165.05 51.51 165.08 41.88 C 165.06 41.41 165.03 40.49 165.01 40.02 C 165.67 37.65 163.43 37.92 161.81 37.79 C 165.71 37.47 165.71 33.71 164.92 30.32 C 154.27 26.51 142.76 29.23 131.91 27.07 Z" />
</g>
<g id="#dad4d6ff">
<path fill="#dad4d6" opacity="1.00" d=" M 26.88 30.02 C 42.51 28.06 58.16 31.55 73.83 31.01 C 73.89 31.71 74.03 33.13 74.09 33.84 C 74.06 37.86 73.79 41.88 73.03 45.83 C 68.84 55.91 70.11 68.77 68.75 79.85 C 68.48 87.25 62.72 92.65 61.27 99.71 C 61.03 102.69 56.38 102.26 56.10 99.99 C 59.76 95.43 52.32 92.34 49.87 89.10 C 46.07 85.41 44.64 92.43 41.15 92.99 C 39.04 89.46 38.46 84.13 33.79 83.20 C 29.92 80.93 24.40 79.89 23.01 75.06 C 25.40 71.63 29.07 78.66 30.63 74.66 C 34.37 68.16 23.97 68.36 21.61 63.46 C 18.26 63.23 19.41 72.00 17.24 74.24 C 18.49 61.37 13.36 46.90 20.02 35.02 C 21.37 32.47 23.92 30.26 26.88 30.02 Z" />
</g>
<g id="#dad5d7ff">
<path fill="#dad5d7" opacity="1.00" d=" M 167.78 45.76 C 168.55 40.86 166.77 34.40 168.82 30.23 C 168.91 30.64 169.11 31.47 169.21 31.88 C 170.51 36.43 177.02 36.08 180.57 35.50 C 253.85 38.00 327.23 38.32 400.54 40.62 C 420.66 43.14 443.56 35.74 461.18 48.42 C 458.21 51.06 458.94 56.69 454.69 57.67 C 452.33 59.16 452.47 55.37 451.53 54.05 C 448.40 55.78 443.88 57.27 444.52 61.92 C 440.14 61.91 435.47 62.67 431.41 60.66 C 432.39 55.99 429.17 51.70 424.10 52.77 C 420.50 52.21 419.68 47.37 416.06 46.83 C 416.06 50.48 420.90 58.06 414.64 57.32 C 410.85 56.63 411.36 61.98 409.39 64.16 C 409.51 61.20 408.13 59.26 405.08 59.21 C 402.76 61.86 401.71 67.17 397.19 66.06 C 397.65 64.12 398.50 60.36 395.18 61.08 C 392.65 62.61 392.25 67.11 388.94 68.01 C 386.03 67.28 383.53 64.73 380.34 65.33 C 365.06 66.79 349.47 63.91 334.33 66.46 C 327.68 64.79 319.36 63.68 314.31 69.32 C 312.97 75.56 314.69 82.40 309.37 87.15 C 312.12 96.54 323.23 88.52 329.33 89.62 C 332.62 95.00 325.51 95.54 322.73 92.11 C 324.10 95.19 327.00 97.64 327.07 101.20 C 325.89 100.03 324.93 98.68 323.86 97.43 C 318.90 101.99 314.69 91.90 309.31 93.26 C 305.30 95.22 302.47 98.82 300.55 102.75 C 297.00 103.12 292.91 98.98 290.69 103.53 C 286.91 102.94 281.88 100.06 281.55 105.98 C 277.47 104.30 283.92 97.02 278.38 97.10 C 277.76 102.88 271.03 97.31 269.33 94.62 C 266.02 93.62 263.19 98.91 259.15 98.40 C 257.63 106.74 268.62 99.96 272.40 100.75 C 275.30 106.47 265.50 109.66 261.63 108.77 C 258.06 111.15 262.55 112.36 264.81 111.30 C 264.72 118.91 272.78 116.54 277.90 118.18 C 277.66 120.91 276.05 124.29 279.29 125.83 C 282.75 126.92 284.30 122.74 285.52 120.33 C 291.35 118.84 285.69 130.84 280.99 127.48 C 286.10 137.89 271.60 135.53 275.64 127.77 C 271.37 133.68 264.72 131.66 258.85 131.13 C 255.98 127.60 249.27 128.63 248.71 123.18 C 248.23 119.14 243.69 122.46 241.10 122.02 C 241.35 118.07 243.03 112.46 238.03 111.20 C 233.61 113.60 226.28 112.18 225.64 118.67 C 223.32 121.43 228.39 123.47 229.57 120.61 C 230.97 117.75 234.26 117.56 237.03 117.01 C 235.55 123.74 234.57 132.75 226.18 133.85 C 223.93 130.51 221.06 133.59 220.29 136.35 C 218.39 141.29 224.36 143.60 224.09 148.15 C 221.55 147.44 219.86 144.85 217.07 144.89 C 218.08 148.51 218.33 152.70 213.89 153.92 C 213.43 158.77 209.16 159.93 204.90 160.01 C 205.40 155.79 209.50 152.75 208.05 148.01 C 198.25 146.19 200.10 161.14 191.97 161.77 C 186.73 161.14 190.84 152.28 194.76 150.75 C 193.25 148.70 190.99 146.67 193.11 144.18 C 193.88 140.85 188.68 133.59 186.56 139.65 C 185.66 142.99 182.85 137.32 182.26 140.33 C 179.31 146.96 193.50 142.56 188.80 150.69 C 186.89 154.06 185.40 146.96 182.38 147.54 C 178.30 144.65 182.13 154.91 177.97 151.03 C 170.70 146.03 181.32 140.46 179.64 134.36 C 178.24 130.76 178.91 120.53 173.76 125.84 C 174.20 123.43 173.42 119.47 178.56 121.49 C 180.54 119.47 186.13 114.12 186.27 119.84 C 185.73 123.30 191.30 122.00 189.65 119.35 C 185.13 112.71 177.81 108.20 169.98 111.81 C 174.41 106.08 166.14 97.76 173.66 93.71 C 171.46 91.64 171.58 88.93 171.17 86.21 C 170.08 86.75 169.09 88.21 167.79 87.30 C 167.98 73.46 168.31 59.60 167.78 45.76 Z" />
</g>
<g id="#f1ecebff">
<path fill="#f1eceb" opacity="1.00" d=" M 168.82 30.23 L 169.67 29.81 C 245.45 31.44 321.30 33.66 397.04 34.70 C 416.96 33.12 437.82 39.80 457.00 32.20 C 456.01 36.35 457.17 40.40 459.04 44.10 C 455.08 42.78 451.46 40.50 447.36 39.60 C 354.73 35.56 261.86 35.84 169.21 31.88 C 169.11 31.47 168.91 30.64 168.82 30.23 Z" />
</g>
<g id="#a8a2a1ff">
<path fill="#a8a2a1" opacity="1.00" d=" M 461.71 47.69 C 466.57 41.05 472.15 34.77 478.64 29.67 C 480.10 30.99 480.09 32.98 480.07 34.79 C 474.31 34.13 471.72 42.62 467.21 45.20 C 459.27 49.96 465.44 60.08 462.05 67.08 C 462.03 61.98 462.05 56.87 461.81 51.78 C 461.79 50.42 461.75 49.05 461.71 47.69 Z" />
</g>
<g id="#8a92a9ff">
<path fill="#8a92a9" opacity="1.00" d=" M 74.09 33.84 C 76.87 34.17 79.58 34.89 82.25 35.72 C 80.06 35.82 77.87 35.95 75.69 36.16 C 72.51 39.04 78.08 41.05 81.12 41.01 C 76.22 47.50 72.58 55.68 76.15 63.75 C 80.31 69.44 72.70 80.74 81.22 82.88 C 82.73 84.53 80.44 87.73 81.82 89.92 C 79.85 89.93 77.85 90.20 76.72 92.01 C 75.84 91.68 74.96 91.33 74.09 90.97 C 73.90 89.21 73.65 87.46 73.35 85.72 C 72.75 72.43 72.99 59.13 73.03 45.83 C 73.79 41.88 74.06 37.86 74.09 33.84 Z" />
</g>
<g id="#837e7fff">
<path fill="#837e7f" opacity="1.00" d=" M 467.21 45.20 C 471.72 42.62 474.31 34.13 480.07 34.79 C 480.01 40.10 480.33 45.45 479.73 50.74 C 478.53 60.12 479.00 69.59 479.00 79.01 C 478.79 87.25 479.48 95.53 478.73 103.74 C 477.59 111.79 478.04 119.93 477.99 128.03 C 477.96 128.72 477.89 130.11 477.86 130.80 C 477.04 133.64 477.18 141.10 472.21 139.99 C 467.69 129.43 460.17 119.99 461.24 107.73 C 461.11 106.99 460.85 105.50 460.72 104.76 C 460.87 102.24 461.03 99.73 461.22 97.23 C 462.63 87.23 461.73 77.13 462.05 67.08 C 465.44 60.08 459.27 49.96 467.21 45.20 Z" />
</g>
<g id="#c6c6d5ff">
<path fill="#c6c6d5" opacity="1.00" d=" M 81.12 41.01 C 78.08 41.05 72.51 39.04 75.69 36.16 C 76.05 37.32 76.82 37.96 78.00 38.09 C 92.60 40.82 107.85 36.98 122.31 40.13 C 112.04 41.70 101.61 40.67 91.28 41.23 C 87.88 41.16 84.51 41.03 81.12 41.01 Z" />
</g>
<g id="#e8ecf6ff">
<path fill="#e8ecf6" opacity="1.00" d=" M 75.69 36.16 C 77.87 35.95 80.06 35.82 82.25 35.72 C 89.38 36.43 96.52 37.23 103.70 36.71 C 113.36 37.21 123.06 36.66 132.72 37.32 C 142.28 39.09 152.15 37.59 161.81 37.79 C 163.43 37.92 165.67 37.65 165.01 40.02 C 151.28 40.15 137.54 39.64 123.82 40.24 C 123.45 40.21 122.69 40.15 122.31 40.13 C 107.85 36.98 92.60 40.82 78.00 38.09 C 76.82 37.96 76.05 37.32 75.69 36.16 Z" />
</g>
<g id="#8b94a3ff">
<path fill="#8b94a3" opacity="1.00" d=" M 103.70 36.71 C 116.07 35.05 128.71 36.35 141.18 36.03 C 139.67 38.34 135.35 36.73 132.72 37.32 C 123.06 36.66 113.36 37.21 103.70 36.71 Z" />
</g>
<g id="#acb0c0ff">
<path fill="#acb0c0" opacity="1.00" d=" M 122.31 40.13 C 122.69 40.15 123.45 40.21 123.82 40.24 C 137.27 44.45 151.56 40.30 165.08 41.88 C 165.05 51.51 165.05 61.14 164.86 70.77 C 160.63 74.23 165.88 83.18 159.01 83.02 C 136.36 84.96 113.35 81.95 90.54 82.64 C 87.78 81.43 83.58 83.23 81.24 80.81 C 82.59 69.79 81.31 58.57 82.53 47.59 C 82.97 43.03 88.07 42.96 91.28 41.23 C 101.61 40.67 112.04 41.70 122.31 40.13 M 92.16 66.86 C 92.76 69.45 88.48 77.02 93.83 77.04 C 94.26 75.37 93.16 72.06 96.02 72.97 C 100.35 71.37 97.76 80.73 101.00 76.97 C 102.26 74.09 105.32 81.20 105.00 76.01 C 105.50 68.64 113.78 83.62 111.26 74.90 C 114.96 67.80 106.15 65.37 101.25 69.84 C 100.08 65.09 98.51 72.00 96.03 71.02 C 93.07 71.77 94.59 67.60 92.16 66.86 M 113.98 68.03 C 115.38 71.09 119.67 71.67 117.09 78.00 C 122.01 78.58 115.64 68.17 122.00 69.93 C 126.37 66.89 114.63 68.13 113.98 68.03 M 127.26 69.19 C 125.30 70.94 123.31 73.04 122.96 75.76 C 125.43 75.72 127.41 76.51 128.22 78.97 C 130.52 77.41 132.07 74.28 135.71 76.05 C 135.01 80.97 141.09 78.34 143.73 78.84 C 146.99 76.89 146.46 68.64 142.04 68.97 C 135.18 64.76 138.18 73.31 134.94 73.96 C 127.07 79.07 132.45 67.75 127.26 69.19 Z" />
</g>
<g id="#c5c5d4ff">
<path fill="#c5c5d4" opacity="1.00" d=" M 123.82 40.24 C 137.54 39.64 151.28 40.15 165.01 40.02 C 165.03 40.49 165.06 41.41 165.08 41.88 C 151.56 40.30 137.27 44.45 123.82 40.24 Z" />
</g>
<g id="#9ea4b6ff">
<path fill="#9ea4b6" opacity="1.00" d=" M 81.12 41.01 C 84.51 41.03 87.88 41.16 91.28 41.23 C 88.07 42.96 82.97 43.03 82.53 47.59 C 81.31 58.57 82.59 69.79 81.24 80.81 C 83.58 83.23 87.78 81.43 90.54 82.64 C 113.35 81.95 136.36 84.96 159.01 83.02 C 165.88 83.18 160.63 74.23 164.86 70.77 C 164.54 77.81 163.84 84.83 163.84 91.89 C 158.13 92.17 152.41 92.12 146.70 92.37 C 143.20 92.13 139.72 92.00 136.22 91.79 C 128.45 90.64 120.58 90.91 112.76 91.23 C 108.24 91.06 103.73 91.02 99.22 90.80 C 93.45 89.98 87.63 89.98 81.82 89.92 C 80.44 87.73 82.73 84.53 81.22 82.88 C 72.70 80.74 80.31 69.44 76.15 63.75 C 72.58 55.68 76.22 47.50 81.12 41.01 Z" />
</g>
<g id="#d6d1d2ff">
<path fill="#d6d1d2" opacity="1.00" d=" M 68.75 79.85 C 70.11 68.77 68.84 55.91 73.03 45.83 C 72.99 59.13 72.75 72.43 73.35 85.72 C 73.18 88.73 72.99 91.76 72.76 94.78 C 71.43 138.87 71.63 183.21 72.64 227.29 C 72.72 227.96 72.89 229.30 72.98 229.97 C 73.12 239.55 72.69 249.15 73.28 258.72 C 73.14 259.61 72.87 261.39 72.73 262.28 C 70.13 254.69 68.61 246.23 71.36 238.49 C 74.29 232.23 68.15 224.82 61.65 226.37 C 58.60 225.70 61.63 230.43 61.03 232.20 C 57.16 229.51 51.66 224.49 46.97 228.18 C 48.37 231.44 51.25 234.00 50.00 238.16 C 46.30 236.90 45.71 231.27 41.22 231.35 C 44.26 224.13 36.81 229.19 33.34 229.67 C 31.23 226.34 27.45 225.74 23.83 225.27 C 25.18 230.39 26.00 236.28 29.94 240.17 C 30.76 236.43 32.91 229.43 36.85 236.14 C 42.16 239.51 35.39 242.49 32.21 243.60 C 29.34 242.36 26.63 240.43 23.20 241.72 C 19.34 236.37 25.72 230.73 20.08 225.96 C 16.31 221.87 19.63 216.82 19.64 212.12 C 18.00 205.79 17.93 199.20 17.26 192.73 C 17.47 153.17 14.98 113.71 17.24 74.24 C 19.41 72.00 18.26 63.23 21.61 63.46 C 23.97 68.36 34.37 68.16 30.63 74.66 C 29.07 78.66 25.40 71.63 23.01 75.06 C 24.40 79.89 29.92 80.93 33.79 83.20 C 38.46 84.13 39.04 89.46 41.15 92.99 C 44.64 92.43 46.07 85.41 49.87 89.10 C 52.32 92.34 59.76 95.43 56.10 99.99 C 56.38 102.26 61.03 102.69 61.27 99.71 C 62.72 92.65 68.48 87.25 68.75 79.85 Z" />
</g>
<g id="#a2aec5ff">
<path fill="#a2aec5" opacity="1.00" d=" M 166.97 87.03 C 167.30 73.28 166.22 59.46 167.78 45.76 C 168.31 59.60 167.98 73.46 167.79 87.30 L 166.97 87.03 Z" />
</g>
<g id="#d8d2d3ff">
<path fill="#d8d2d3" opacity="1.00" d=" M 416.06 46.83 C 419.68 47.37 420.50 52.21 424.10 52.77 C 429.17 51.70 432.39 55.99 431.41 60.66 C 435.47 62.67 440.14 61.91 444.52 61.92 C 443.88 57.27 448.40 55.78 451.53 54.05 C 452.47 55.37 452.33 59.16 454.69 57.67 C 458.94 56.69 458.21 51.06 461.18 48.42 L 461.71 47.69 C 461.75 49.05 461.79 50.42 461.81 51.78 C 457.60 59.54 459.90 68.47 457.93 76.74 C 452.27 74.26 448.44 79.48 449.09 84.79 C 451.97 88.10 454.02 81.65 456.26 80.12 C 459.90 81.50 454.76 85.44 455.86 88.20 C 456.93 96.28 460.58 107.75 452.16 113.15 C 454.06 115.74 455.77 118.10 452.99 120.86 C 461.19 125.20 444.45 126.67 449.56 132.41 C 452.59 135.33 447.79 138.56 446.85 140.87 C 442.04 137.14 448.28 123.91 439.31 123.61 C 436.82 120.56 435.23 125.92 432.53 124.73 C 431.54 122.32 430.26 119.21 427.03 119.90 C 422.03 128.51 434.07 122.72 433.50 127.99 C 433.69 131.60 439.91 129.09 439.02 132.94 C 436.11 137.44 435.23 143.03 432.57 147.90 C 428.37 146.65 431.07 139.29 424.19 141.63 C 422.41 137.45 423.78 126.06 417.81 132.80 C 419.12 141.97 405.70 136.95 400.15 140.20 C 398.49 144.98 403.90 141.53 406.38 141.40 C 411.59 139.35 410.40 150.56 417.04 147.34 C 417.59 152.73 411.74 153.50 407.96 155.03 C 408.72 153.05 409.72 151.15 410.20 149.07 C 406.60 150.68 394.14 148.54 399.89 155.10 C 392.93 161.05 381.39 161.54 372.92 158.90 C 373.44 164.19 378.40 168.78 383.93 168.47 C 384.66 174.72 377.55 177.76 376.97 183.95 C 379.59 184.76 382.81 183.73 384.80 186.19 C 387.98 188.61 383.58 192.05 384.66 195.12 C 385.14 200.40 377.57 199.03 375.81 202.93 C 380.48 207.41 385.36 212.05 392.36 211.45 C 396.69 209.94 401.97 216.35 397.25 219.29 C 394.04 221.99 389.61 219.07 386.04 221.18 C 388.39 226.21 395.63 224.94 399.65 228.18 C 398.40 232.16 402.99 234.27 406.34 234.15 C 411.18 234.07 415.45 237.17 417.91 241.18 C 419.74 244.28 426.10 238.72 427.25 242.86 C 432.99 252.13 446.26 246.02 452.99 253.02 C 457.85 265.02 452.86 278.84 455.81 291.29 C 451.69 291.37 450.61 286.49 448.14 284.07 C 424.08 246.05 381.12 220.93 336.32 217.64 C 277.96 210.97 217.74 247.46 197.77 302.93 C 196.31 304.23 195.53 306.11 196.18 308.05 C 194.98 311.59 193.69 315.10 192.74 318.72 C 188.45 335.72 188.25 353.59 190.17 370.97 C 186.90 366.60 188.03 356.53 187.83 349.96 C 190.56 345.37 184.61 342.10 186.85 337.88 C 188.39 325.41 191.80 313.15 195.01 301.00 C 196.20 296.19 189.87 297.66 186.99 297.88 C 185.40 291.71 191.97 293.00 195.74 294.57 C 197.82 292.18 204.04 284.93 195.05 288.00 C 188.29 289.12 179.44 284.76 174.23 291.20 C 163.72 297.61 170.51 311.00 167.99 320.98 L 167.00 321.01 C 166.86 303.75 167.29 286.49 166.75 269.24 C 166.65 244.10 168.03 218.73 166.30 193.71 C 166.10 189.21 165.96 184.71 166.18 180.21 C 167.91 164.20 166.63 148.05 167.00 131.98 C 167.08 124.56 166.97 117.13 166.70 109.71 C 166.87 105.20 167.03 100.70 166.89 96.20 C 166.89 93.14 166.92 90.08 166.97 87.03 L 167.79 87.30 C 169.09 88.21 170.08 86.75 171.17 86.21 C 171.58 88.93 171.46 91.64 173.66 93.71 C 166.14 97.76 174.41 106.08 169.98 111.81 C 177.81 108.20 185.13 112.71 189.65 119.35 C 191.30 122.00 185.73 123.30 186.27 119.84 C 186.13 114.12 180.54 119.47 178.56 121.49 C 173.42 119.47 174.20 123.43 173.76 125.84 C 178.91 120.53 178.24 130.76 179.64 134.36 C 181.32 140.46 170.70 146.03 177.97 151.03 C 182.13 154.91 178.30 144.65 182.38 147.54 C 185.40 146.96 186.89 154.06 188.80 150.69 C 193.50 142.56 179.31 146.96 182.26 140.33 C 182.85 137.32 185.66 142.99 186.56 139.65 C 188.68 133.59 193.88 140.85 193.11 144.18 C 190.99 146.67 193.25 148.70 194.76 150.75 C 190.84 152.28 186.73 161.14 191.97 161.77 C 200.10 161.14 198.25 146.19 208.05 148.01 C 209.50 152.75 205.40 155.79 204.90 160.01 C 209.16 159.93 213.43 158.77 213.89 153.92 C 218.33 152.70 218.08 148.51 217.07 144.89 C 219.86 144.85 221.55 147.44 224.09 148.15 C 224.36 143.60 218.39 141.29 220.29 136.35 C 221.06 133.59 223.93 130.51 226.18 133.85 C 234.57 132.75 235.55 123.74 237.03 117.01 C 234.26 117.56 230.97 117.75 229.57 120.61 C 228.39 123.47 223.32 121.43 225.64 118.67 C 226.28 112.18 233.61 113.60 238.03 111.20 C 243.03 112.46 241.35 118.07 241.10 122.02 C 243.69 122.46 248.23 119.14 248.71 123.18 C 249.27 128.63 255.98 127.60 258.85 131.13 C 264.72 131.66 271.37 133.68 275.64 127.77 C 271.60 135.53 286.10 137.89 280.99 127.48 C 285.69 130.84 291.35 118.84 285.52 120.33 C 284.30 122.74 282.75 126.92 279.29 125.83 C 276.05 124.29 277.66 120.91 277.90 118.18 C 272.78 116.54 264.72 118.91 264.81 111.30 C 262.55 112.36 258.06 111.15 261.63 108.77 C 265.50 109.66 275.30 106.47 272.40 100.75 C 268.62 99.96 257.63 106.74 259.15 98.40 C 263.19 98.91 266.02 93.62 269.33 94.62 C 271.03 97.31 277.76 102.88 278.38 97.10 C 283.92 97.02 277.47 104.30 281.55 105.98 C 281.88 100.06 286.91 102.94 290.69 103.53 C 292.91 98.98 297.00 103.12 300.55 102.75 C 302.47 98.82 305.30 95.22 309.31 93.26 C 314.69 91.90 318.90 101.99 323.86 97.43 C 324.93 98.68 325.89 100.03 327.07 101.20 C 327.00 97.64 324.10 95.19 322.73 92.11 C 325.51 95.54 332.62 95.00 329.33 89.62 C 323.23 88.52 312.12 96.54 309.37 87.15 C 314.69 82.40 312.97 75.56 314.31 69.32 C 319.36 63.68 327.68 64.79 334.33 66.46 C 349.47 63.91 365.06 66.79 380.34 65.33 C 383.53 64.73 386.03 67.28 388.94 68.01 C 392.25 67.11 392.65 62.61 395.18 61.08 C 398.50 60.36 397.65 64.12 397.19 66.06 C 401.71 67.17 402.76 61.86 405.08 59.21 C 408.13 59.26 409.51 61.20 409.39 64.16 C 411.36 61.98 410.85 56.63 414.64 57.32 C 420.90 58.06 416.06 50.48 416.06 46.83 M 421.20 55.00 C 423.44 61.28 417.84 61.84 414.29 59.98 C 412.35 67.59 425.60 67.72 426.88 61.09 C 424.46 59.50 425.59 53.75 421.20 55.00 M 319.33 68.28 C 314.98 69.44 314.12 75.01 315.08 78.75 C 317.55 81.65 322.35 78.43 325.02 81.14 C 322.84 87.26 312.46 80.67 311.89 87.95 C 318.48 87.63 329.66 90.71 332.00 81.94 C 336.46 71.51 321.57 79.83 322.09 73.20 C 325.33 70.07 333.51 74.03 334.08 68.04 C 330.40 68.10 323.02 68.22 319.33 68.28 M 337.28 68.13 C 336.09 74.89 332.31 81.10 331.97 87.96 C 337.46 86.64 345.76 90.93 349.77 85.76 C 350.99 81.09 339.62 87.40 342.06 81.20 C 345.11 81.23 350.94 80.20 351.06 76.10 C 348.06 75.66 342.52 77.78 344.05 73.13 C 347.85 73.07 354.54 73.16 355.06 68.08 C 349.14 67.77 343.19 67.97 337.28 68.13 M 359.29 69.19 C 354.24 73.37 353.87 80.80 353.04 86.81 C 358.15 89.81 366.86 91.22 370.11 85.12 C 359.69 88.57 361.55 78.26 365.19 73.18 C 368.89 73.32 373.22 72.61 375.15 69.06 C 369.86 68.87 364.57 68.91 359.29 69.19 M 378.21 69.07 C 375.69 74.85 372.48 83.04 375.23 88.84 C 382.72 88.78 395.54 92.47 396.91 81.95 C 396.32 78.75 404.02 68.22 397.00 68.96 C 386.14 66.16 393.79 87.35 382.97 85.00 C 382.49 79.40 385.56 74.49 386.06 69.05 C 383.43 68.91 380.82 68.91 378.21 69.07 M 403.28 69.06 C 402.29 72.26 401.27 75.83 405.66 76.38 C 413.66 80.62 412.24 63.15 403.28 69.06 M 415.02 69.03 C 415.77 71.52 414.81 75.44 417.85 76.38 C 415.94 83.90 405.84 84.94 402.19 79.31 C 405.55 79.05 402.43 76.99 401.27 75.91 C 400.77 80.34 398.76 84.42 398.09 88.81 C 401.42 91.99 408.64 90.50 407.25 84.84 C 409.45 87.32 410.92 91.23 415.01 90.06 C 425.47 92.45 415.88 86.84 416.13 83.32 C 424.38 81.66 426.45 66.49 415.02 69.03 M 427.27 70.14 C 424.73 76.49 422.49 83.12 421.97 89.97 C 427.32 88.98 437.70 92.88 440.07 86.09 C 437.06 85.92 433.93 86.00 430.96 85.91 C 429.78 79.59 438.22 83.82 440.22 79.27 C 443.56 75.64 430.51 80.90 433.10 77.04 C 434.05 70.85 443.12 76.35 445.13 70.08 C 439.18 69.81 433.21 69.94 427.27 70.14 Z" />
</g>
<g id="#bab8b8ff">
<path fill="#bab8b8" opacity="1.00" d=" M 479.00 79.01 C 479.00 69.59 478.53 60.12 479.73 50.74 C 478.98 59.37 482.06 72.06 479.00 79.01 Z" />
</g>
<g id="#d5ced0ff">
<path fill="#d5ced0" opacity="1.00" d=" M 457.93 76.74 C 459.90 68.47 457.60 59.54 461.81 51.78 C 462.05 56.87 462.03 61.98 462.05 67.08 C 460.16 77.00 460.98 87.18 461.22 97.23 C 461.03 99.73 460.87 102.24 460.72 104.76 C 459.47 115.55 459.94 126.45 460.30 137.29 C 460.06 141.77 460.01 146.28 459.81 150.78 C 458.00 171.34 459.46 192.06 459.00 212.68 C 458.61 214.95 458.26 217.23 457.95 219.52 C 455.62 242.31 458.13 265.28 458.17 288.15 C 457.41 289.22 456.67 290.30 455.81 291.29 C 452.86 278.84 457.85 265.02 452.99 253.02 C 446.26 246.02 432.99 252.13 427.25 242.86 C 426.10 238.72 419.74 244.28 417.91 241.18 C 415.45 237.17 411.18 234.07 406.34 234.15 C 402.99 234.27 398.40 232.16 399.65 228.18 C 395.63 224.94 388.39 226.21 386.04 221.18 C 389.61 219.07 394.04 221.99 397.25 219.29 C 401.97 216.35 396.69 209.94 392.36 211.45 C 385.36 212.05 380.48 207.41 375.81 202.93 C 377.57 199.03 385.14 200.40 384.66 195.12 C 383.58 192.05 387.98 188.61 384.80 186.19 C 382.81 183.73 379.59 184.76 376.97 183.95 C 377.55 177.76 384.66 174.72 383.93 168.47 C 378.40 168.78 373.44 164.19 372.92 158.90 C 381.39 161.54 392.93 161.05 399.89 155.10 C 394.14 148.54 406.60 150.68 410.20 149.07 C 409.72 151.15 408.72 153.05 407.96 155.03 C 411.74 153.50 417.59 152.73 417.04 147.34 C 410.40 150.56 411.59 139.35 406.38 141.40 C 403.90 141.53 398.49 144.98 400.15 140.20 C 405.70 136.95 419.12 141.97 417.81 132.80 C 423.78 126.06 422.41 137.45 424.19 141.63 C 431.07 139.29 428.37 146.65 432.57 147.90 C 435.23 143.03 436.11 137.44 439.02 132.94 C 439.91 129.09 433.69 131.60 433.50 127.99 C 434.07 122.72 422.03 128.51 427.03 119.90 C 430.26 119.21 431.54 122.32 432.53 124.73 C 435.23 125.92 436.82 120.56 439.31 123.61 C 448.28 123.91 442.04 137.14 446.85 140.87 C 447.79 138.56 452.59 135.33 449.56 132.41 C 444.45 126.67 461.19 125.20 452.99 120.86 C 455.77 118.10 454.06 115.74 452.16 113.15 C 460.58 107.75 456.93 96.28 455.86 88.20 C 454.76 85.44 459.90 81.50 456.26 80.12 C 454.02 81.65 451.97 88.10 449.09 84.79 C 448.44 79.48 452.27 74.26 457.93 76.74 Z" />
</g>
<g id="#8e8983ff">
<path fill="#8e8983" opacity="1.00" d=" M 421.20 55.00 C 425.59 53.75 424.46 59.50 426.88 61.09 C 425.60 67.72 412.35 67.59 414.29 59.98 C 417.84 61.84 423.44 61.28 421.20 55.00 Z" />
</g>
<g id="#81828eff">
<path fill="#81828e" opacity="1.00" d=" M 92.16 66.86 C 94.59 67.60 93.07 71.77 96.03 71.02 C 98.51 72.00 100.08 65.09 101.25 69.84 C 106.15 65.37 114.96 67.80 111.26 74.90 C 113.78 83.62 105.50 68.64 105.00 76.01 C 105.32 81.20 102.26 74.09 101.00 76.97 C 97.76 80.73 100.35 71.37 96.02 72.97 C 93.16 72.06 94.26 75.37 93.83 77.04 C 88.48 77.02 92.76 69.45 92.16 66.86 Z" />
</g>
<g id="#afa8a6ff">
<path fill="#afa8a6" opacity="1.00" d=" M 461.22 97.23 C 460.98 87.18 460.16 77.00 462.05 67.08 C 461.73 77.13 462.63 87.23 461.22 97.23 Z" />
</g>
<g id="#7c7f8bff">
<path fill="#7c7f8b" opacity="1.00" d=" M 113.98 68.03 C 114.63 68.13 126.37 66.89 122.00 69.93 C 115.64 68.17 122.01 78.58 117.09 78.00 C 119.67 71.67 115.38 71.09 113.98 68.03 Z" />
</g>
<g id="#8b867fff">
<path fill="#8b867f" opacity="1.00" d=" M 319.33 68.28 C 323.02 68.22 330.40 68.10 334.08 68.04 C 333.51 74.03 325.33 70.07 322.09 73.20 C 321.57 79.83 336.46 71.51 332.00 81.94 C 329.66 90.71 318.48 87.63 311.89 87.95 C 312.46 80.67 322.84 87.26 325.02 81.14 C 322.35 78.43 317.55 81.65 315.08 78.75 C 314.12 75.01 314.98 69.44 319.33 68.28 Z" />
</g>
<g id="#8d8881ff">
<path fill="#8d8881" opacity="1.00" d=" M 337.28 68.13 C 343.19 67.97 349.14 67.77 355.06 68.08 C 354.54 73.16 347.85 73.07 344.05 73.13 C 342.52 77.78 348.06 75.66 351.06 76.10 C 350.94 80.20 345.11 81.23 342.06 81.20 C 339.62 87.40 350.99 81.09 349.77 85.76 C 345.76 90.93 337.46 86.64 331.97 87.96 C 332.31 81.10 336.09 74.89 337.28 68.13 Z" />
</g>
<g id="#7f838dff">
<path fill="#7f838d" opacity="1.00" d=" M 127.26 69.19 C 132.45 67.75 127.07 79.07 134.94 73.96 C 138.18 73.31 135.18 64.76 142.04 68.97 C 146.46 68.64 146.99 76.89 143.73 78.84 C 141.09 78.34 135.01 80.97 135.71 76.05 C 132.07 74.28 130.52 77.41 128.22 78.97 C 127.41 76.51 125.43 75.72 122.96 75.76 C 123.31 73.04 125.30 70.94 127.26 69.19 Z" />
</g>
<g id="#89857dff">
<path fill="#89857d" opacity="1.00" d=" M 359.29 69.19 C 364.57 68.91 369.86 68.87 375.15 69.06 C 373.22 72.61 368.89 73.32 365.19 73.18 C 361.55 78.26 359.69 88.57 370.11 85.12 C 366.86 91.22 358.15 89.81 353.04 86.81 C 353.87 80.80 354.24 73.37 359.29 69.19 Z" />
</g>
<g id="#89857cff">
<path fill="#89857c" opacity="1.00" d=" M 378.21 69.07 C 380.82 68.91 383.43 68.91 386.06 69.05 C 385.56 74.49 382.49 79.40 382.97 85.00 C 393.79 87.35 386.14 66.16 397.00 68.96 C 404.02 68.22 396.32 78.75 396.91 81.95 C 395.54 92.47 382.72 88.78 375.23 88.84 C 372.48 83.04 375.69 74.85 378.21 69.07 Z" />
</g>
<g id="#8c8881ff">
<path fill="#8c8881" opacity="1.00" d=" M 403.28 69.06 C 412.24 63.15 413.66 80.62 405.66 76.38 C 401.27 75.83 402.29 72.26 403.28 69.06 Z" />
</g>
<g id="#8f8a83ff">
<path fill="#8f8a83" opacity="1.00" d=" M 415.02 69.03 C 426.45 66.49 424.38 81.66 416.13 83.32 C 415.88 86.84 425.47 92.45 415.01 90.06 C 410.92 91.23 409.45 87.32 407.25 84.84 C 408.64 90.50 401.42 91.99 398.09 88.81 C 398.76 84.42 400.77 80.34 401.27 75.91 C 402.43 76.99 405.55 79.05 402.19 79.31 C 405.84 84.94 415.94 83.90 417.85 76.38 C 414.81 75.44 415.77 71.52 415.02 69.03 Z" />
</g>
<g id="#89847dff">
<path fill="#89847d" opacity="1.00" d=" M 427.27 70.14 C 433.21 69.94 439.18 69.81 445.13 70.08 C 443.12 76.35 434.05 70.85 433.10 77.04 C 430.51 80.90 443.56 75.64 440.22 79.27 C 438.22 83.82 429.78 79.59 430.96 85.91 C 433.93 86.00 437.06 85.92 440.07 86.09 C 437.70 92.88 427.32 88.98 421.97 89.97 C 422.49 83.12 424.73 76.49 427.27 70.14 Z" />
</g>
<g id="#525b77ff">
<path fill="#525b77" opacity="1.00" d=" M 73.35 85.72 C 73.65 87.46 73.90 89.21 74.09 90.97 C 74.43 133.22 72.94 175.54 74.89 217.74 C 74.34 221.81 74.01 225.91 73.90 230.02 L 72.98 229.97 C 72.89 229.30 72.72 227.96 72.64 227.29 C 73.32 183.13 73.07 138.95 72.76 94.78 C 72.99 91.76 73.18 88.73 73.35 85.72 Z" />
</g>
<g id="#565a66ff">
<path fill="#565a66" opacity="1.00" d=" M 76.72 92.01 C 77.85 90.20 79.85 89.93 81.82 89.92 C 87.63 89.98 93.45 89.98 99.22 90.80 C 97.13 90.85 95.03 90.91 92.94 90.96 C 87.89 91.19 82.66 90.31 77.73 91.78 L 76.72 92.01 Z" />
</g>
<g id="#455672ff">
<path fill="#455672" opacity="1.00" d=" M 163.84 91.89 C 166.86 88.28 166.70 92.66 166.89 96.20 C 167.03 100.70 166.87 105.20 166.70 109.71 C 166.32 111.51 166.02 113.34 165.83 115.18 C 165.26 114.38 164.69 113.59 164.13 112.80 C 164.00 107.18 164.08 101.56 164.03 95.95 C 163.88 88.94 151.62 95.15 146.70 92.37 C 152.41 92.12 158.13 92.17 163.84 91.89 Z" />
</g>
<g id="#768099ff">
<path fill="#768099" opacity="1.00" d=" M 74.09 90.97 C 74.96 91.33 75.84 91.68 76.72 92.01 C 76.73 92.46 76.74 93.34 76.74 93.78 C 74.84 135.18 76.83 176.71 75.75 218.15 L 74.89 217.74 C 72.94 175.54 74.43 133.22 74.09 90.97 Z" />
</g>
<g id="#03070dff">
<path fill="#03070d" opacity="1.00" d=" M 77.73 91.78 C 82.66 90.31 87.89 91.19 92.94 90.96 C 92.53 91.95 92.17 92.96 91.83 93.98 C 92.37 94.26 93.44 94.83 93.98 95.11 C 93.95 95.53 93.89 96.35 93.87 96.77 C 92.81 97.74 91.71 98.69 90.82 99.83 C 89.47 134.40 89.47 169.70 90.69 204.29 C 91.58 206.66 93.62 208.51 95.88 209.57 C 99.17 209.89 102.49 210.01 105.79 210.21 C 109.91 210.84 114.07 210.80 118.23 210.79 C 120.74 210.92 123.25 211.06 125.77 211.21 C 130.88 211.94 136.08 212.17 141.23 211.78 C 143.08 211.92 144.92 212.09 146.77 212.26 C 151.19 212.52 155.95 214.00 160.27 212.37 C 161.35 211.98 162.41 211.52 163.43 210.99 C 162.81 214.72 166.78 222.72 162.06 224.21 C 159.10 224.05 156.17 223.94 153.23 223.75 C 148.16 223.18 143.07 222.85 137.97 222.99 C 133.57 223.00 129.18 223.16 124.78 223.22 C 123.26 223.08 121.75 222.91 120.23 222.76 C 114.79 221.82 109.26 222.14 103.77 222.23 C 102.25 222.08 100.74 221.90 99.23 221.75 C 92.83 220.81 86.35 220.90 79.91 221.13 C 79.18 220.51 78.45 219.90 77.73 219.28 C 79.36 215.54 74.96 207.38 80.76 206.41 C 81.32 183.29 80.89 160.14 80.99 137.00 C 81.26 135.00 79.27 134.03 78.14 132.75 C 76.14 119.19 80.69 105.02 77.73 91.78 Z" />
</g>
<g id="#203039ff">
<path fill="#203039" opacity="1.00" d=" M 92.94 90.96 C 95.03 90.91 97.13 90.85 99.22 90.80 C 103.73 91.02 108.24 91.06 112.76 91.23 C 120.53 92.34 128.40 92.07 136.22 91.79 C 139.72 92.00 143.20 92.13 146.70 92.37 C 151.62 95.15 163.88 88.94 164.03 95.95 C 163.64 95.90 162.85 95.80 162.46 95.75 C 159.92 95.42 157.37 95.20 154.82 95.08 C 145.96 94.88 137.09 95.11 128.23 94.80 C 122.45 93.84 116.59 94.03 110.77 94.21 C 104.46 94.02 98.15 93.97 91.83 93.98 C 92.17 92.96 92.53 91.95 92.94 90.96 Z" />
</g>
<g id="#656d79ff">
<path fill="#656d79" opacity="1.00" d=" M 112.76 91.23 C 120.58 90.91 128.45 90.64 136.22 91.79 C 128.40 92.07 120.53 92.34 112.76 91.23 Z" />
</g>
<g id="#2b3140ff">
<path fill="#2b3140" opacity="1.00" d=" M 76.72 92.01 L 77.73 91.78 C 80.69 105.02 76.14 119.19 78.14 132.75 C 78.06 138.25 77.92 143.77 77.25 149.24 C 76.57 130.76 77.47 112.26 76.74 93.78 C 76.74 93.34 76.73 92.46 76.72 92.01 Z" />
</g>
<g id="#4c5366ff">
<path fill="#4c5366" opacity="1.00" d=" M 75.75 218.15 C 76.83 176.71 74.84 135.18 76.74 93.78 C 77.47 112.26 76.57 130.76 77.25 149.24 C 76.76 172.44 77.02 195.66 77.07 218.86 C 76.74 218.68 76.08 218.33 75.75 218.15 Z" />
</g>
<g id="#87b5c5ff">
<path fill="#87b5c5" opacity="1.00" d=" M 91.83 93.98 C 98.15 93.97 104.46 94.02 110.77 94.21 C 116.54 95.16 122.40 94.97 128.23 94.80 C 137.09 95.11 145.96 94.88 154.82 95.08 C 166.31 97.91 155.00 95.36 151.80 97.80 C 155.48 97.43 159.11 98.19 162.23 100.11 C 162.44 104.25 163.02 108.36 162.95 112.52 C 158.35 111.09 158.18 115.20 156.47 117.52 C 152.33 122.47 146.05 126.35 139.43 125.34 C 135.85 123.91 130.26 121.47 127.67 125.67 C 124.51 130.22 118.26 127.39 114.08 130.10 C 110.65 132.75 106.71 126.69 108.84 123.82 C 110.86 121.54 106.92 118.64 104.64 119.57 C 100.78 120.65 97.98 115.93 99.38 112.53 C 102.18 106.61 96.98 102.33 95.72 97.05 C 106.64 95.74 120.40 99.16 130.17 96.02 C 118.09 95.95 106.00 96.31 93.98 95.11 C 93.44 94.83 92.37 94.26 91.83 93.98 Z" />
</g>
<g id="#526e7dff">
<path fill="#526e7d" opacity="1.00" d=" M 110.77 94.21 C 116.59 94.03 122.45 93.84 128.23 94.80 C 122.40 94.97 116.54 95.16 110.77 94.21 Z" />
</g>
<g id="#8d94acff">
<path fill="#8d94ac" opacity="1.00" d=" M 72.64 227.29 C 71.63 183.21 71.43 138.87 72.76 94.78 C 73.07 138.95 73.32 183.13 72.64 227.29 Z" />
</g>
<g id="#3e6574ff">
<path fill="#3e6574" opacity="1.00" d=" M 93.98 95.11 C 106.00 96.31 118.09 95.95 130.17 96.02 C 120.40 99.16 106.64 95.74 95.72 97.05 C 95.25 96.98 94.33 96.84 93.87 96.77 C 93.89 96.35 93.95 95.53 93.98 95.11 Z" />
</g>
<g id="#355360ff">
<path fill="#355360" opacity="1.00" d=" M 154.82 95.08 C 157.37 95.20 159.92 95.42 162.46 95.75 C 162.52 97.21 162.44 98.66 162.23 100.11 C 159.11 98.19 155.48 97.43 151.80 97.80 C 155.00 95.36 166.31 97.91 154.82 95.08 Z" />
</g>
<g id="#7daabcff">
<path fill="#7daabc" opacity="1.00" d=" M 162.46 95.75 C 162.85 95.80 163.64 95.90 164.03 95.95 C 164.08 101.56 164.00 107.18 164.13 112.80 C 160.68 144.42 163.91 176.28 163.01 208.09 C 151.40 211.25 156.69 196.53 148.01 193.90 C 146.26 188.41 151.58 181.60 150.68 175.44 C 146.77 173.47 149.60 168.80 147.32 165.72 C 146.64 164.07 145.37 161.75 143.24 162.57 L 142.92 162.05 C 141.94 160.41 140.76 158.85 139.19 157.75 C 135.74 156.63 132.32 156.70 128.93 157.95 C 127.49 158.71 126.13 159.61 124.72 160.44 C 130.56 154.63 127.57 145.42 127.73 137.98 C 130.20 137.51 132.68 137.11 135.18 136.77 C 136.42 136.83 137.66 136.88 138.90 136.92 C 139.21 137.22 139.83 137.82 140.14 138.11 C 141.52 144.93 136.27 155.09 143.32 159.77 C 146.43 161.36 148.83 156.66 147.03 154.00 C 146.43 147.32 148.80 139.76 145.12 133.67 C 144.58 132.77 143.98 131.88 143.27 131.10 C 137.35 129.74 130.42 128.88 124.74 131.13 C 124.05 131.72 123.40 132.37 122.80 133.05 C 118.88 137.59 122.01 144.63 120.89 150.00 C 120.30 154.10 120.34 158.79 124.72 160.44 C 126.11 161.70 127.41 163.05 128.88 164.22 C 132.52 164.75 136.20 165.08 139.92 165.19 C 140.04 169.84 140.09 174.51 139.98 179.17 C 136.64 179.65 134.95 177.05 133.36 174.62 C 128.83 172.06 123.33 173.13 119.17 169.70 C 119.85 166.79 119.48 164.52 118.05 162.89 C 116.05 161.22 113.69 162.82 112.11 164.27 C 111.88 170.80 111.84 177.35 112.15 183.88 C 111.37 187.77 111.46 193.63 106.82 194.87 C 102.89 194.89 98.96 194.94 95.03 195.03 C 92.99 196.16 93.37 203.64 94.76 206.21 C 95.77 206.94 96.96 207.31 98.33 207.32 C 97.57 208.13 96.75 208.88 95.88 209.57 C 93.62 208.51 91.58 206.66 90.69 204.29 C 91.27 169.48 91.05 134.65 90.82 99.83 C 91.71 98.69 92.81 97.74 93.87 96.77 C 94.33 96.84 95.25 96.98 95.72 97.05 C 96.98 102.33 102.18 106.61 99.38 112.53 C 97.98 115.93 100.78 120.65 104.64 119.57 C 106.92 118.64 110.86 121.54 108.84 123.82 C 106.71 126.69 110.65 132.75 114.08 130.10 C 118.26 127.39 124.51 130.22 127.67 125.67 C 130.26 121.47 135.85 123.91 139.43 125.34 C 146.05 126.35 152.33 122.47 156.47 117.52 C 158.18 115.20 158.35 111.09 162.95 112.52 C 163.02 108.36 162.44 104.25 162.23 100.11 C 162.44 98.66 162.52 97.21 162.46 95.75 M 147.22 128.09 C 144.90 129.56 145.60 134.80 148.94 133.99 C 152.74 133.56 151.26 126.20 147.22 128.09 M 154.29 132.27 C 149.46 133.75 147.14 140.41 150.77 144.23 C 152.99 149.04 163.07 147.99 160.99 141.90 C 158.86 142.47 154.89 145.19 154.04 141.93 C 151.11 135.29 157.53 135.49 161.03 136.97 C 162.02 133.33 157.21 131.21 154.29 132.27 M 115.20 133.15 C 109.07 136.77 111.06 144.15 111.01 150.00 C 109.61 154.54 113.20 159.55 117.91 159.05 C 118.20 151.16 118.17 143.24 117.66 135.37 C 117.26 134.07 116.97 132.34 115.20 133.15 Z" />
</g>
<g id="#30474eff">
<path fill="#30474e" opacity="1.00" d=" M 90.69 204.29 C 89.47 169.70 89.47 134.40 90.82 99.83 C 91.05 134.65 91.27 169.48 90.69 204.29 Z" />
</g>
<g id="#b0aeb1ff">
<path fill="#b0aeb1" opacity="1.00" d=" M 477.99 128.03 C 478.04 119.93 477.59 111.79 478.73 103.74 C 479.01 111.81 479.23 119.89 478.94 127.97 L 477.99 128.03 Z" />
</g>
<g id="#b1aba9ff">
<path fill="#b1aba9" opacity="1.00" d=" M 460.30 137.29 C 459.94 126.45 459.47 115.55 460.72 104.76 C 460.85 105.50 461.11 106.99 461.24 107.73 C 460.41 117.54 462.11 127.59 460.30 137.29 Z" />
</g>
<g id="#918d8cff">
<path fill="#918d8c" opacity="1.00" d=" M 461.24 107.73 C 460.17 119.99 467.69 129.43 472.21 139.99 C 477.18 141.10 477.04 133.64 477.86 130.80 C 477.91 138.86 478.12 146.93 477.93 154.99 C 477.89 155.43 477.80 156.31 477.76 156.75 C 476.46 165.80 477.13 174.97 476.97 184.09 C 469.63 185.25 466.81 176.69 460.24 174.66 C 459.79 166.70 460.11 158.73 459.81 150.78 C 460.01 146.28 460.06 141.77 460.30 137.29 C 462.11 127.59 460.41 117.54 461.24 107.73 Z" />
</g>
<g id="#7f8aa2ff">
<path fill="#7f8aa2" opacity="1.00" d=" M 165.83 115.18 C 166.02 113.34 166.32 111.51 166.70 109.71 C 166.97 117.13 167.08 124.56 167.00 131.98 L 166.02 132.02 C 165.93 128.92 165.88 125.85 165.78 122.76 C 165.82 120.23 165.84 117.70 165.83 115.18 Z" />
</g>
<g id="#254262ff">
<path fill="#254262" opacity="1.00" d=" M 164.13 112.80 C 164.69 113.59 165.26 114.38 165.83 115.18 C 165.84 117.70 165.82 120.23 165.78 122.76 C 163.44 156.85 166.54 191.30 164.26 225.31 C 163.72 225.27 162.63 225.19 162.09 225.14 L 162.06 224.21 C 166.78 222.72 162.81 214.72 163.43 210.99 C 163.33 210.27 163.12 208.82 163.01 208.09 C 163.91 176.28 160.68 144.42 164.13 112.80 Z" />
</g>
<g id="#4c5d7dff">
<path fill="#4c5d7d" opacity="1.00" d=" M 164.26 225.31 C 166.54 191.30 163.44 156.85 165.78 122.76 C 165.88 125.85 165.93 128.92 166.02 132.02 C 166.02 148.08 165.86 164.15 166.18 180.21 C 165.96 184.71 166.10 189.21 166.30 193.71 C 165.80 206.13 166.06 218.56 165.99 230.99 C 165.49 231.00 164.49 231.02 163.99 231.03 C 164.01 229.11 164.08 227.21 164.26 225.31 Z" />
</g>
<g id="#204569ff">
<path fill="#204569" opacity="1.00" d=" M 147.22 128.09 C 151.26 126.20 152.74 133.56 148.94 133.99 C 145.60 134.80 144.90 129.56 147.22 128.09 Z" />
</g>
<g id="#e0dedfff">
<path fill="#e0dedf" opacity="1.00" d=" M 477.99 128.03 L 478.94 127.97 C 478.05 136.28 480.89 148.47 477.93 154.99 C 478.12 146.93 477.91 138.86 477.86 130.80 C 477.89 130.11 477.96 128.72 477.99 128.03 Z" />
</g>
<g id="#0d2854ff">
<path fill="#0d2854" opacity="1.00" d=" M 124.74 131.13 C 130.42 128.88 137.35 129.74 143.27 131.10 C 142.17 133.29 140.53 135.12 138.90 136.92 C 137.66 136.88 136.42 136.83 135.18 136.77 C 130.74 137.22 126.19 135.55 124.74 131.13 Z" />
</g>
<g id="#426289ff">
<path fill="#426289" opacity="1.00" d=" M 122.80 133.05 C 123.40 132.37 124.05 131.72 124.74 131.13 C 126.19 135.55 130.74 137.22 135.18 136.77 C 132.68 137.11 130.20 137.51 127.73 137.98 C 125.96 136.46 124.32 134.82 122.80 133.05 Z" />
</g>
<g id="#56749eff">
<path fill="#56749e" opacity="1.00" d=" M 143.27 131.10 C 143.98 131.88 144.58 132.77 145.12 133.67 C 143.45 135.14 141.81 136.64 140.14 138.11 C 139.83 137.82 139.21 137.22 138.90 136.92 C 140.53 135.12 142.17 133.29 143.27 131.10 Z" />
</g>
<g id="#153459ff">
<path fill="#153459" opacity="1.00" d=" M 154.29 132.27 C 157.21 131.21 162.02 133.33 161.03 136.97 C 157.53 135.49 151.11 135.29 154.04 141.93 C 154.89 145.19 158.86 142.47 160.99 141.90 C 163.07 147.99 152.99 149.04 150.77 144.23 C 147.14 140.41 149.46 133.75 154.29 132.27 Z" />
</g>
<g id="#b0b9cdff">
<path fill="#b0b9cd" opacity="1.00" d=" M 166.02 132.02 L 167.00 131.98 C 166.63 148.05 167.91 164.20 166.18 180.21 C 165.86 164.15 166.02 148.08 166.02 132.02 Z" />
</g>
<g id="#131923ff">
<path fill="#131923" opacity="1.00" d=" M 78.14 132.75 C 79.27 134.03 81.26 135.00 80.99 137.00 C 80.89 160.14 81.32 183.29 80.76 206.41 C 74.96 207.38 79.36 215.54 77.73 219.28 L 77.07 218.86 C 77.02 195.66 76.76 172.44 77.25 149.24 C 77.92 143.77 78.06 138.25 78.14 132.75 Z" />
</g>
<g id="#103059ff">
<path fill="#103059" opacity="1.00" d=" M 115.20 133.15 C 116.97 132.34 117.26 134.07 117.66 135.37 C 118.17 143.24 118.20 151.16 117.91 159.05 C 113.20 159.55 109.61 154.54 111.01 150.00 C 111.06 144.15 109.07 136.77 115.20 133.15 Z" />
</g>
<g id="#112d58ff">
<path fill="#112d58" opacity="1.00" d=" M 120.89 150.00 C 122.01 144.63 118.88 137.59 122.80 133.05 C 124.32 134.82 125.96 136.46 127.73 137.98 C 127.57 145.42 130.56 154.63 124.72 160.44 C 120.34 158.79 120.30 154.10 120.89 150.00 Z" />
</g>
<g id="#102a54ff">
<path fill="#102a54" opacity="1.00" d=" M 140.14 138.11 C 141.81 136.64 143.45 135.14 145.12 133.67 C 148.80 139.76 146.43 147.32 147.03 154.00 C 148.83 156.66 146.43 161.36 143.32 159.77 C 136.27 155.09 141.52 144.93 140.14 138.11 Z" />
</g>
<g id="#a39e9eff">
<path fill="#a39e9e" opacity="1.00" d=" M 459.00 212.68 C 459.46 192.06 458.00 171.34 459.81 150.78 C 460.11 158.73 459.79 166.70 460.24 174.66 C 466.81 176.69 469.63 185.25 476.97 184.09 C 477.02 191.73 476.99 199.38 477.02 207.03 C 476.93 207.69 476.74 208.99 476.64 209.65 C 475.28 212.02 474.33 214.61 472.79 216.87 C 467.85 216.79 462.38 216.80 459.00 212.68 Z" />
</g>
<g id="#4c6e8eff">
<path fill="#4c6e8e" opacity="1.00" d=" M 128.93 157.95 C 132.32 156.70 135.74 156.63 139.19 157.75 C 135.76 157.80 132.35 157.88 128.93 157.95 Z" />
</g>
<g id="#c2c0c1ff">
<path fill="#c2c0c1" opacity="1.00" d=" M 476.97 184.09 C 477.13 174.97 476.46 165.80 477.76 156.75 C 478.19 173.47 478.03 190.22 477.95 206.95 L 477.02 207.03 C 476.99 199.38 477.02 191.73 476.97 184.09 Z" />
</g>
<g id="#0a244cff">
<path fill="#0a244c" opacity="1.00" d=" M 124.72 160.44 C 126.13 159.61 127.49 158.71 128.93 157.95 C 132.35 157.88 135.76 157.80 139.19 157.75 C 140.76 158.85 141.94 160.41 142.92 162.05 C 139.04 165.24 133.50 163.56 128.88 164.22 C 127.41 163.05 126.11 161.70 124.72 160.44 Z" />
</g>
<g id="#0c274dff">
<path fill="#0c274d" opacity="1.00" d=" M 112.11 164.27 C 113.69 162.82 116.05 161.22 118.05 162.89 C 117.98 171.02 117.94 179.15 118.20 187.28 C 116.26 189.39 113.93 184.96 112.15 183.88 C 111.84 177.35 111.88 170.80 112.11 164.27 Z" />
</g>
<g id="#4b6b8cff">
<path fill="#4b6b8c" opacity="1.00" d=" M 128.88 164.22 C 133.50 163.56 139.04 165.24 142.92 162.05 L 143.24 162.57 C 139.65 170.21 138.12 182.71 145.14 189.04 L 144.45 189.59 C 142.79 188.19 141.23 186.69 139.82 185.05 C 139.90 183.09 139.97 181.13 139.98 179.17 C 140.09 174.51 140.04 169.84 139.92 165.19 C 136.20 165.08 132.52 164.75 128.88 164.22 Z" />
</g>
<g id="#0a234aff">
<path fill="#0a234a" opacity="1.00" d=" M 143.24 162.57 C 145.37 161.75 146.64 164.07 147.32 165.72 C 145.19 172.82 150.32 183.39 145.14 189.04 C 138.12 182.71 139.65 170.21 143.24 162.57 Z" />
</g>
<g id="#385977ff">
<path fill="#385977" opacity="1.00" d=" M 118.05 162.89 C 119.48 164.52 119.85 166.79 119.17 169.70 C 118.40 175.43 120.26 181.81 118.20 187.28 C 117.94 179.15 117.98 171.02 118.05 162.89 Z" />
</g>
<g id="#719fb0ff">
<path fill="#719fb0" opacity="1.00" d=" M 147.32 165.72 C 149.60 168.80 146.77 173.47 150.68 175.44 C 151.58 181.60 146.26 188.41 148.01 193.90 C 156.69 196.53 151.40 211.25 163.01 208.09 C 163.12 208.82 163.33 210.27 163.43 210.99 C 162.41 211.52 161.35 211.98 160.27 212.37 C 158.51 212.22 155.00 211.93 153.25 211.78 C 142.62 206.44 130.62 207.49 119.16 206.41 C 118.06 203.02 120.65 197.86 117.69 195.15 C 114.97 195.08 109.54 194.94 106.82 194.87 C 111.46 193.63 111.37 187.77 112.15 183.88 C 113.93 184.96 116.26 189.39 118.20 187.28 C 120.26 181.81 118.40 175.43 119.17 169.70 C 123.33 173.13 128.83 172.06 133.36 174.62 C 134.95 177.05 136.64 179.65 139.98 179.17 C 139.97 181.13 139.90 183.09 139.82 185.05 C 134.19 184.81 127.77 183.81 124.96 189.87 C 130.38 192.95 140.19 194.40 144.45 189.59 L 145.14 189.04 C 150.32 183.39 145.19 172.82 147.32 165.72 Z" />
</g>
<g id="#0d2449ff">
<path fill="#0d2449" opacity="1.00" d=" M 124.96 189.87 C 127.77 183.81 134.19 184.81 139.82 185.05 C 141.23 186.69 142.79 188.19 144.45 189.59 C 140.19 194.40 130.38 192.95 124.96 189.87 Z" />
</g>
<g id="#dcd6d7ff">
<path fill="#dcd6d7" opacity="1.00" d=" M 17.26 192.73 C 17.93 199.20 18.00 205.79 19.64 212.12 C 19.63 216.82 16.31 221.87 20.08 225.96 C 25.72 230.73 19.34 236.37 23.20 241.72 C 26.63 240.43 29.34 242.36 32.21 243.60 C 35.39 242.49 42.16 239.51 36.85 236.14 C 32.91 229.43 30.76 236.43 29.94 240.17 C 26.00 236.28 25.18 230.39 23.83 225.27 C 27.45 225.74 31.23 226.34 33.34 229.67 C 36.81 229.19 44.26 224.13 41.22 231.35 C 45.71 231.27 46.30 236.90 50.00 238.16 C 51.25 234.00 48.37 231.44 46.97 228.18 C 51.66 224.49 57.16 229.51 61.03 232.20 C 61.63 230.43 58.60 225.70 61.65 226.37 C 68.15 224.82 74.29 232.23 71.36 238.49 C 68.61 246.23 70.13 254.69 72.73 262.28 C 73.91 275.57 71.67 289.10 73.67 302.29 C 73.94 307.09 73.86 311.92 74.29 316.72 C 73.93 325.80 74.02 334.90 74.01 344.00 C 72.20 344.56 69.31 347.48 68.18 344.73 C 66.79 340.20 74.17 337.81 71.81 333.44 C 73.27 325.18 70.19 317.12 70.72 308.64 C 67.98 311.94 69.75 322.40 64.23 316.92 C 64.71 319.46 64.98 325.19 61.44 324.79 C 61.38 321.98 59.33 322.29 57.22 322.69 C 55.80 321.09 55.36 318.54 53.21 317.71 C 53.17 320.45 53.07 323.20 52.88 325.95 C 48.14 326.96 52.90 319.03 49.86 316.92 C 45.28 318.55 52.22 327.41 47.15 326.95 C 44.06 327.40 47.18 321.58 44.33 321.20 C 40.39 324.96 36.45 328.72 32.49 332.47 C 32.28 339.26 27.71 344.69 25.84 351.01 C 22.24 351.84 23.79 345.12 23.13 343.99 C 23.59 336.73 22.48 329.60 20.33 322.70 C 17.53 279.48 17.38 236.05 17.26 192.73 Z" />
</g>
<g id="#aab2caff">
<path fill="#aab2ca" opacity="1.00" d=" M 166.30 193.71 C 168.03 218.73 166.65 244.10 166.75 269.24 C 165.28 256.54 166.27 243.73 165.99 230.99 C 166.06 218.56 165.80 206.13 166.30 193.71 Z" />
</g>
<g id="#4b7088ff">
<path fill="#4b7088" opacity="1.00" d=" M 94.76 206.21 C 93.37 203.64 92.99 196.16 95.03 195.03 C 95.01 198.75 94.98 202.49 94.76 206.21 Z" />
</g>
<g id="#102c4cff">
<path fill="#102c4c" opacity="1.00" d=" M 95.03 195.03 C 98.96 194.94 102.89 194.89 106.82 194.87 C 109.54 194.94 114.97 195.08 117.69 195.15 C 120.65 197.86 118.06 203.02 119.16 206.41 C 112.23 207.05 105.27 207.02 98.33 207.32 C 96.96 207.31 95.77 206.94 94.76 206.21 C 94.98 202.49 95.01 198.75 95.03 195.03 M 98.25 197.12 C 94.93 199.32 99.42 202.28 101.85 202.32 C 102.97 205.63 98.67 202.99 96.99 203.04 C 96.18 207.04 102.49 205.05 104.64 203.29 C 105.17 207.86 114.37 204.82 109.02 204.03 C 103.87 203.25 111.48 203.47 111.87 200.94 C 111.56 203.70 112.55 206.92 115.99 206.10 C 111.06 202.90 119.21 199.02 113.02 198.09 C 110.79 201.10 106.05 196.94 105.04 201.10 C 103.87 202.59 96.97 197.43 101.65 198.42 C 106.73 200.73 102.43 192.62 98.25 197.12 Z" />
</g>
<g id="#5d7c9aff">
<path fill="#5d7c9a" opacity="1.00" d=" M 98.25 197.12 C 102.43 192.62 106.73 200.73 101.65 198.42 C 96.97 197.43 103.87 202.59 105.04 201.10 C 106.05 196.94 110.79 201.10 113.02 198.09 C 119.21 199.02 111.06 202.90 115.99 206.10 C 112.55 206.92 111.56 203.70 111.87 200.94 C 111.48 203.47 103.87 203.25 109.02 204.03 C 114.37 204.82 105.17 207.86 104.64 203.29 C 102.49 205.05 96.18 207.04 96.99 203.04 C 98.67 202.99 102.97 205.63 101.85 202.32 C 99.42 202.28 94.93 199.32 98.25 197.12 Z" />
</g>
<g id="#678e9bff">
<path fill="#678e9b" opacity="1.00" d=" M 119.16 206.41 C 130.62 207.49 142.62 206.44 153.25 211.78 C 151.08 211.91 148.93 212.12 146.77 212.26 C 144.92 212.09 143.08 211.92 141.23 211.78 C 136.11 211.03 130.93 210.85 125.77 211.21 C 123.25 211.06 120.74 210.92 118.23 210.79 C 114.10 210.15 109.94 210.19 105.79 210.21 C 102.49 210.01 99.17 209.89 95.88 209.57 C 96.75 208.88 97.57 208.13 98.33 207.32 C 105.27 207.02 112.23 207.05 119.16 206.41 Z" />
</g>
<g id="#32464fff">
<path fill="#32464f" opacity="1.00" d=" M 105.79 210.21 C 109.94 210.19 114.10 210.15 118.23 210.79 C 114.07 210.80 109.91 210.84 105.79 210.21 Z" />
</g>
<g id="#b3afb0ff">
<path fill="#b3afb0" opacity="1.00" d=" M 472.79 216.87 C 474.33 214.61 475.28 212.02 476.64 209.65 C 476.45 221.63 478.65 234.10 475.86 245.88 C 470.98 252.76 467.80 240.41 462.96 245.81 C 459.57 237.41 458.71 228.47 457.95 219.52 C 458.26 217.23 458.61 214.95 459.00 212.68 C 462.38 216.80 467.85 216.79 472.79 216.87 Z" />
</g>
<g id="#374f55ff">
<path fill="#374f55" opacity="1.00" d=" M 125.77 211.21 C 130.93 210.85 136.11 211.03 141.23 211.78 C 136.08 212.17 130.88 211.94 125.77 211.21 Z" />
</g>
<g id="#2c3e49ff">
<path fill="#2c3e49" opacity="1.00" d=" M 146.77 212.26 C 148.93 212.12 151.08 211.91 153.25 211.78 C 155.00 211.93 158.51 212.22 160.27 212.37 C 155.95 214.00 151.19 212.52 146.77 212.26 Z" />
</g>
<g id="#483d3bff">
<path fill="#483d3b" opacity="1.00" d=" M 197.77 302.93 C 217.74 247.46 277.96 210.97 336.32 217.64 C 381.12 220.93 424.08 246.05 448.14 284.07 C 441.90 282.12 440.51 274.10 434.76 271.15 C 434.15 270.48 433.55 269.80 432.96 269.13 C 430.17 264.22 426.29 259.27 421.00 256.93 C 420.72 256.76 420.17 256.41 419.89 256.23 C 418.84 254.16 417.26 252.46 414.93 251.92 C 414.43 250.13 412.91 248.78 410.98 249.06 C 409.61 248.09 408.25 247.13 406.90 246.18 C 406.83 244.67 405.50 243.56 404.01 243.98 C 403.80 242.48 402.34 241.67 400.93 242.02 C 388.81 234.57 375.65 229.09 362.14 224.74 C 361.01 223.57 359.32 223.60 357.90 224.14 C 354.64 223.29 351.38 222.51 348.10 221.75 C 346.56 221.59 343.47 221.29 341.93 221.13 C 341.26 221.05 339.91 220.87 339.24 220.78 C 330.14 219.72 320.80 219.35 311.71 220.64 C 310.17 220.86 308.63 221.06 307.09 221.26 C 305.37 220.62 303.32 220.44 301.87 221.78 L 301.16 222.14 C 299.72 221.58 298.00 221.57 296.90 222.80 C 262.73 230.13 230.75 250.86 212.41 280.92 C 196.97 304.25 190.42 332.97 192.31 360.74 C 192.72 363.61 190.12 372.05 190.93 361.02 C 188.50 346.84 191.72 332.78 192.74 318.72 C 193.69 315.10 194.98 311.59 196.18 308.05 C 197.71 306.79 198.49 304.86 197.77 302.93 Z" />
</g>
<g id="#97a0b9ff">
<path fill="#97a0b9" opacity="1.00" d=" M 74.89 217.74 L 75.75 218.15 C 76.08 218.33 76.74 218.68 77.07 218.86 L 77.73 219.28 C 78.45 219.90 79.18 220.51 79.91 221.13 L 80.14 222.04 C 81.39 228.34 75.26 233.47 76.93 239.97 C 78.14 260.06 77.78 280.18 78.29 300.29 C 78.28 301.45 78.30 302.61 78.33 303.77 C 77.61 304.60 76.87 305.42 76.13 306.24 C 73.92 280.89 76.43 255.35 73.90 230.02 C 74.01 225.91 74.34 221.81 74.89 217.74 Z" />
</g>
<g id="#b0a5a3ff">
<path fill="#b0a5a3" opacity="1.00" d=" M 311.71 220.64 C 320.80 219.35 330.14 219.72 339.24 220.78 C 330.06 221.03 320.88 221.15 311.71 220.64 Z" />
</g>
<g id="#bebabbff">
<path fill="#bebabb" opacity="1.00" d=" M 458.17 288.15 C 458.13 265.28 455.62 242.31 457.95 219.52 C 458.71 228.47 459.57 237.41 462.96 245.81 C 467.80 240.41 470.98 252.76 475.86 245.88 C 476.34 256.88 475.61 267.91 476.14 278.91 C 479.02 285.55 480.72 292.80 481.07 300.04 C 483.49 307.13 477.23 310.33 473.66 314.76 C 467.70 312.54 468.18 303.88 466.05 298.88 C 463.02 294.38 458.56 308.87 463.18 305.11 C 468.27 301.98 458.81 314.54 465.75 311.40 C 465.94 316.02 466.45 320.64 466.54 325.27 C 464.78 324.52 463.21 323.40 461.96 321.97 C 460.07 314.75 456.49 308.12 453.94 301.14 C 457.95 303.87 457.69 297.98 460.12 296.13 C 462.27 294.71 462.06 292.07 462.03 289.80 C 462.90 284.79 461.10 284.57 458.17 288.15 Z" />
</g>
<g id="#3e434cff">
<path fill="#3e434c" opacity="1.00" d=" M 79.91 221.13 C 86.35 220.90 92.83 220.81 99.23 221.75 C 92.87 221.89 86.51 222.03 80.14 222.04 L 79.91 221.13 Z" />
</g>
<g id="#8b8180ff">
<path fill="#8b8180" opacity="1.00" d=" M 301.87 221.78 C 303.32 220.44 305.37 220.62 307.09 221.26 C 305.61 222.52 303.59 222.38 301.87 221.78 Z" />
</g>
<g id="#e5dddbff">
<path fill="#e5dddb" opacity="1.00" d=" M 307.09 221.26 C 308.63 221.06 310.17 220.86 311.71 220.64 C 320.88 221.15 330.06 221.03 339.24 220.78 C 339.91 220.87 341.26 221.05 341.93 221.13 C 343.47 221.29 346.56 221.59 348.10 221.75 C 351.38 222.51 354.64 223.29 357.90 224.14 C 358.92 225.51 360.74 225.38 362.14 224.74 C 375.65 229.09 388.81 234.57 400.93 242.02 C 401.25 243.42 402.55 244.40 404.01 243.98 C 404.18 245.43 405.49 246.29 406.90 246.18 C 408.25 247.13 409.61 248.09 410.98 249.06 C 411.54 250.78 412.98 252.20 414.93 251.92 C 416.19 253.76 417.81 255.34 419.89 256.23 C 420.17 256.41 420.72 256.76 421.00 256.93 C 424.67 261.28 428.64 265.40 432.96 269.13 C 433.55 269.80 434.15 270.48 434.76 271.15 C 438.19 276.67 442.55 281.54 446.22 286.89 C 446.12 287.71 445.91 289.34 445.81 290.16 C 437.07 280.89 430.33 269.69 419.89 262.04 C 382.08 226.91 324.00 214.00 275.76 233.62 C 258.02 240.08 241.44 250.62 228.84 264.77 C 221.46 267.83 219.09 279.96 212.41 280.92 C 230.75 250.86 262.73 230.13 296.90 222.80 C 298.32 223.38 300.11 223.46 301.16 222.14 L 301.87 221.78 C 303.59 222.38 305.61 222.52 307.09 221.26 Z" />
</g>
<g id="#928783ff">
<path fill="#928783" opacity="1.00" d=" M 341.93 221.13 C 343.47 221.29 346.56 221.59 348.10 221.75 C 346.56 221.59 343.47 221.29 341.93 221.13 Z" />
</g>
<g id="#aeb4c5ff">
<path fill="#aeb4c5" opacity="1.00" d=" M 80.14 222.04 C 86.51 222.03 92.87 221.89 99.23 221.75 C 100.74 221.90 102.25 222.08 103.77 222.23 C 109.21 223.18 114.74 222.85 120.23 222.76 C 121.75 222.91 123.26 223.08 124.78 223.22 C 129.17 223.81 133.61 223.99 138.03 224.02 C 139.72 224.08 143.08 224.20 144.77 224.26 C 150.51 224.97 156.31 224.98 162.09 225.14 C 162.63 225.19 163.72 225.27 164.26 225.31 C 164.08 227.21 164.01 229.11 163.99 231.03 C 163.98 231.55 163.96 232.59 163.94 233.11 C 159.31 234.17 155.31 230.23 150.69 230.30 C 128.21 231.03 105.57 230.39 83.08 229.00 C 78.92 230.12 80.26 235.44 79.66 238.86 C 79.44 259.32 79.61 279.86 78.29 300.29 C 77.78 280.18 78.14 260.06 76.93 239.97 C 75.26 233.47 81.39 228.34 80.14 222.04 Z" />
</g>
<g id="#5c636eff">
<path fill="#5c636e" opacity="1.00" d=" M 103.77 222.23 C 109.26 222.14 114.79 221.82 120.23 222.76 C 114.74 222.85 109.21 223.18 103.77 222.23 Z" />
</g>
<g id="#9a8d8dff">
<path fill="#9a8d8d" opacity="1.00" d=" M 296.90 222.80 C 298.00 221.57 299.72 221.58 301.16 222.14 C 300.11 223.46 298.32 223.38 296.90 222.80 Z" />
</g>
<g id="#767e87ff">
<path fill="#767e87" opacity="1.00" d=" M 124.78 223.22 C 129.18 223.16 133.57 223.00 137.97 222.99 L 138.03 224.02 C 133.61 223.99 129.17 223.81 124.78 223.22 Z" />
</g>
<g id="#353943ff">
<path fill="#353943" opacity="1.00" d=" M 137.97 222.99 C 143.07 222.85 148.16 223.18 153.23 223.75 C 150.41 223.92 147.58 224.09 144.77 224.26 C 143.08 224.20 139.72 224.08 138.03 224.02 L 137.97 222.99 Z" />
</g>
<g id="#6f7581ff">
<path fill="#6f7581" opacity="1.00" d=" M 144.77 224.26 C 147.58 224.09 150.41 223.92 153.23 223.75 C 156.17 223.94 159.10 224.05 162.06 224.21 L 162.09 225.14 C 156.31 224.98 150.51 224.97 144.77 224.26 Z" />
</g>
<g id="#d8d3d3ff">
<path fill="#d8d3d3" opacity="1.00" d=" M 275.76 233.62 C 324.00 214.00 382.08 226.91 419.89 262.04 C 429.07 274.70 441.03 285.64 447.82 300.07 C 447.27 302.27 446.53 304.45 449.63 303.37 C 451.81 310.18 455.63 316.33 457.88 323.11 C 458.84 327.14 451.83 327.40 450.07 324.76 C 449.59 322.30 453.03 320.30 451.10 317.97 C 449.47 313.55 443.88 316.41 440.98 313.79 C 440.70 311.65 444.88 307.36 443.25 307.23 C 439.80 311.51 434.55 304.37 432.55 309.70 C 434.26 313.77 429.24 315.51 426.01 315.02 C 425.04 311.96 427.62 311.87 429.95 311.70 C 430.62 309.40 428.87 308.82 426.94 308.59 C 428.65 304.43 436.42 304.32 433.89 298.24 C 431.61 297.65 429.30 297.16 427.05 296.44 C 423.21 298.44 426.66 302.27 427.75 304.95 C 423.06 308.22 418.90 299.93 415.17 305.15 C 413.09 305.48 407.94 304.50 409.47 301.34 C 411.56 297.07 402.77 291.74 404.01 298.86 C 406.00 300.80 408.27 305.15 403.59 303.37 C 396.31 302.69 389.46 298.26 381.90 299.74 C 380.85 292.56 393.96 295.56 392.79 289.39 C 389.62 287.66 386.63 283.44 382.97 286.64 C 379.16 283.71 377.45 287.36 374.26 287.92 C 371.17 284.90 373.55 282.81 376.90 282.87 C 377.69 276.29 371.67 276.05 367.14 278.76 C 368.89 267.85 356.77 277.11 352.27 272.71 C 349.21 270.05 343.72 269.74 343.00 264.99 C 342.76 261.38 336.91 262.03 338.51 257.25 C 334.73 257.59 330.98 257.31 327.21 257.10 C 326.45 260.96 321.11 263.61 324.42 267.47 C 326.41 272.91 320.04 268.32 318.11 266.79 C 313.85 263.75 313.18 274.74 310.00 271.03 C 307.78 263.28 302.85 265.95 296.97 267.04 C 296.55 262.23 303.65 260.16 307.70 260.59 C 309.75 263.71 313.25 265.38 316.99 265.05 C 320.58 257.19 312.24 258.72 308.52 255.48 C 306.04 253.89 303.88 257.27 301.30 256.94 C 300.19 255.09 300.55 251.01 297.41 252.23 C 296.58 254.27 294.92 256.30 295.47 258.63 C 296.83 263.77 288.06 261.88 287.45 266.66 C 283.03 268.59 285.74 261.12 287.45 259.43 C 291.20 257.00 285.19 254.92 286.15 251.63 C 285.51 247.12 281.79 253.16 279.62 252.31 C 276.82 251.38 274.01 249.77 271.03 251.11 C 272.32 253.59 273.09 256.19 272.23 258.97 C 274.21 258.72 276.15 258.26 278.14 258.03 C 276.77 260.46 275.27 262.85 273.42 264.95 C 270.84 260.83 268.94 255.76 264.16 253.75 C 260.58 252.95 265.05 245.88 260.47 248.56 C 256.14 252.08 248.53 249.96 245.75 255.22 C 246.28 259.49 241.50 261.72 238.01 259.91 C 248.61 247.59 264.04 239.63 279.25 234.18 C 278.38 234.04 276.63 233.76 275.76 233.62 Z" />
</g>
<g id="#968c8aff">
<path fill="#968c8a" opacity="1.00" d=" M 357.90 224.14 C 359.32 223.60 361.01 223.57 362.14 224.74 C 360.74 225.38 358.92 225.51 357.90 224.14 Z" />
</g>
<g id="#b7bccdff">
<path fill="#b7bccd" opacity="1.00" d=" M 79.66 238.86 C 80.26 235.44 78.92 230.12 83.08 229.00 C 105.57 230.39 128.21 231.03 150.69 230.30 C 155.31 230.23 159.31 234.17 163.94 233.11 C 164.05 242.81 164.08 252.52 163.80 262.22 C 162.41 253.87 163.74 243.46 158.69 236.28 C 137.60 234.05 115.81 236.44 94.54 233.54 C 91.00 234.35 83.20 230.01 82.36 235.41 C 80.64 290.29 82.49 345.07 82.00 400.00 C 82.40 418.10 80.78 436.36 83.71 454.33 C 78.46 454.32 82.25 447.01 80.63 444.18 C 79.17 397.36 80.27 350.56 78.33 303.77 C 78.30 302.61 78.28 301.45 78.29 300.29 C 79.61 279.86 79.44 259.32 79.66 238.86 Z" />
</g>
<g id="#7a819dff">
<path fill="#7a819d" opacity="1.00" d=" M 72.98 229.97 L 73.90 230.02 C 76.43 255.35 73.92 280.89 76.13 306.24 C 75.46 355.31 77.99 404.31 77.76 453.35 L 77.06 452.84 C 76.96 448.77 76.75 444.74 76.35 440.71 C 76.09 436.22 76.08 431.75 75.70 427.29 C 75.81 411.11 76.85 394.81 75.34 378.70 C 75.05 373.23 74.95 367.76 74.66 362.30 C 74.57 347.16 76.23 331.74 74.29 316.72 C 73.86 311.92 73.94 307.09 73.67 302.29 C 73.75 287.80 74.96 273.12 73.28 258.72 C 72.69 249.15 73.12 239.55 72.98 229.97 Z" />
</g>
<g id="#6d80a2ff">
<path fill="#6d80a2" opacity="1.00" d=" M 163.99 231.03 C 164.49 231.02 165.49 231.00 165.99 230.99 C 166.27 243.73 165.28 256.54 166.75 269.24 C 167.29 286.49 166.86 303.75 167.00 321.01 C 167.57 351.07 165.92 381.34 167.69 411.29 C 168.21 421.85 167.98 432.42 168.00 442.99 C 167.51 443.00 166.52 443.00 166.02 443.00 C 165.73 431.43 166.48 419.83 165.71 408.29 C 165.75 393.78 166.91 379.13 165.32 364.70 C 164.62 349.41 165.20 334.11 164.95 318.82 C 164.92 312.31 165.32 305.77 164.71 299.29 C 164.79 289.77 165.78 280.15 164.37 270.70 C 164.13 267.85 163.98 265.05 163.80 262.22 C 164.08 252.52 164.05 242.81 163.94 233.11 C 163.96 232.59 163.98 231.55 163.99 231.03 Z" />
</g>
<g id="#c2c4d3ff">
<path fill="#c2c4d3" opacity="1.00" d=" M 82.36 235.41 C 83.20 230.01 91.00 234.35 94.54 233.54 C 115.81 236.44 137.60 234.05 158.69 236.28 C 163.74 243.46 162.41 253.87 163.80 262.22 C 163.98 265.05 164.13 267.85 164.37 270.70 C 164.25 280.19 163.06 289.87 164.71 299.29 C 165.32 305.77 164.92 312.31 164.95 318.82 C 163.70 319.61 162.49 320.45 161.19 321.17 C 160.82 316.09 160.48 311.00 159.80 305.96 C 157.30 305.06 154.43 311.85 153.95 307.08 C 153.88 301.20 147.59 305.83 144.24 305.89 C 141.24 303.21 138.99 297.09 134.14 300.20 C 135.06 303.80 134.39 307.50 130.08 304.78 C 131.82 300.45 129.81 295.64 125.21 299.72 C 125.88 292.71 118.61 294.43 114.19 294.87 C 112.90 291.43 107.57 282.98 105.81 289.79 C 102.62 291.12 98.89 291.95 97.52 295.55 C 93.81 298.38 85.92 299.69 88.53 306.00 C 81.32 314.35 86.31 326.88 84.18 337.03 C 85.54 373.97 82.84 411.04 84.82 448.03 C 82.79 453.06 87.10 453.95 90.19 454.92 C 88.53 454.90 86.86 454.92 85.20 454.86 C 84.83 454.73 84.09 454.46 83.71 454.33 C 80.78 436.36 82.40 418.10 82.00 400.00 C 82.49 345.07 80.64 290.29 82.36 235.41 Z" />
</g>
<g id="#dad6d7ff">
<path fill="#dad6d7" opacity="1.00" d=" M 228.84 264.77 C 241.44 250.62 258.02 240.08 275.76 233.62 C 276.63 233.76 278.38 234.04 279.25 234.18 C 264.04 239.63 248.61 247.59 238.01 259.91 C 241.50 261.72 246.28 259.49 245.75 255.22 C 248.53 249.96 256.14 252.08 260.47 248.56 C 265.05 245.88 260.58 252.95 264.16 253.75 C 268.94 255.76 270.84 260.83 273.42 264.95 C 275.27 262.85 276.77 260.46 278.14 258.03 C 276.15 258.26 274.21 258.72 272.23 258.97 C 273.09 256.19 272.32 253.59 271.03 251.11 C 274.01 249.77 276.82 251.38 279.62 252.31 C 281.79 253.16 285.51 247.12 286.15 251.63 C 285.19 254.92 291.20 257.00 287.45 259.43 C 285.74 261.12 283.03 268.59 287.45 266.66 C 288.06 261.88 296.83 263.77 295.47 258.63 C 294.92 256.30 296.58 254.27 297.41 252.23 C 300.55 251.01 300.19 255.09 301.30 256.94 C 303.88 257.27 306.04 253.89 308.52 255.48 C 312.24 258.72 320.58 257.19 316.99 265.05 C 313.25 265.38 309.75 263.71 307.70 260.59 C 303.65 260.16 296.55 262.23 296.97 267.04 C 302.85 265.95 307.78 263.28 310.00 271.03 C 313.18 274.74 313.85 263.75 318.11 266.79 C 320.04 268.32 326.41 272.91 324.42 267.47 C 321.11 263.61 326.45 260.96 327.21 257.10 C 330.98 257.31 334.73 257.59 338.51 257.25 C 336.91 262.03 342.76 261.38 343.00 264.99 C 343.72 269.74 349.21 270.05 352.27 272.71 C 356.77 277.11 368.89 267.85 367.14 278.76 C 371.67 276.05 377.69 276.29 376.90 282.87 C 373.55 282.81 371.17 284.90 374.26 287.92 C 377.45 287.36 379.16 283.71 382.97 286.64 C 386.63 283.44 389.62 287.66 392.79 289.39 C 393.96 295.56 380.85 292.56 381.90 299.74 C 389.46 298.26 396.31 302.69 403.59 303.37 C 408.27 305.15 406.00 300.80 404.01 298.86 C 402.77 291.74 411.56 297.07 409.47 301.34 C 407.94 304.50 413.09 305.48 415.17 305.15 C 418.90 299.93 423.06 308.22 427.75 304.95 C 426.66 302.27 423.21 298.44 427.05 296.44 C 429.30 297.16 431.61 297.65 433.89 298.24 C 436.42 304.32 428.65 304.43 426.94 308.59 C 428.87 308.82 430.62 309.40 429.95 311.70 C 427.62 311.87 425.04 311.96 426.01 315.02 C 429.24 315.51 434.26 313.77 432.55 309.70 C 434.55 304.37 439.80 311.51 443.25 307.23 C 444.88 307.36 440.70 311.65 440.98 313.79 C 443.88 316.41 449.47 313.55 451.10 317.97 C 453.03 320.30 449.59 322.30 450.07 324.76 C 451.83 327.40 458.84 327.14 457.88 323.11 C 455.63 316.33 451.81 310.18 449.63 303.37 C 446.53 304.45 447.27 302.27 447.82 300.07 C 441.03 285.64 429.07 274.70 419.89 262.04 C 430.33 269.69 437.07 280.89 445.81 290.16 C 445.91 289.34 446.12 287.71 446.22 286.89 C 448.56 290.68 450.72 294.60 452.88 298.50 C 453.22 299.38 453.58 300.26 453.94 301.14 C 456.49 308.12 460.07 314.75 461.96 321.97 C 462.26 323.28 462.60 324.59 462.98 325.89 C 466.71 349.10 472.51 373.63 464.40 396.52 C 461.63 402.03 460.40 408.11 458.09 413.81 C 456.41 417.76 454.67 421.75 452.24 425.31 C 453.49 416.65 460.16 409.34 458.90 400.22 C 455.50 396.33 452.86 402.24 451.74 405.04 C 446.22 405.06 448.56 398.11 445.07 395.82 C 443.33 399.12 446.73 407.30 441.23 405.92 C 440.27 404.29 439.61 402.52 438.73 400.86 C 435.79 402.57 437.81 409.30 433.28 407.82 C 427.87 403.19 436.34 395.45 439.93 392.90 C 441.42 386.24 435.40 394.31 433.23 390.79 C 429.98 386.12 423.67 390.76 420.08 386.77 C 418.78 384.10 424.51 383.15 422.18 380.85 C 419.36 378.25 421.53 372.82 417.37 371.59 C 412.27 369.12 414.67 377.73 413.82 380.90 C 411.33 380.81 408.73 380.27 406.29 380.17 C 404.61 382.82 402.73 388.89 398.62 386.35 C 396.87 383.21 404.09 377.47 399.00 375.00 C 394.83 373.17 398.24 367.93 401.62 367.48 C 404.32 367.02 401.59 365.16 400.83 364.03 C 397.22 366.36 394.86 370.44 390.33 371.25 C 383.68 375.04 384.47 362.68 378.20 365.66 C 375.45 362.88 374.43 356.45 369.18 358.74 C 366.57 350.65 355.51 357.55 352.25 362.41 C 348.47 368.81 357.94 366.88 358.00 371.62 C 355.62 371.83 353.52 372.64 352.37 374.86 C 348.56 369.24 345.06 362.24 350.33 356.30 C 351.95 354.16 352.50 351.49 353.03 348.91 C 349.78 352.26 344.07 350.61 344.24 345.62 C 342.78 346.70 346.36 359.66 341.82 355.23 C 340.86 352.42 340.49 349.49 339.27 346.78 C 337.99 344.28 342.94 340.66 339.65 339.29 C 330.68 335.32 338.82 343.56 334.55 345.55 C 331.62 346.93 331.87 351.43 329.08 352.03 C 328.31 347.62 327.36 342.86 322.10 342.97 C 323.50 351.19 318.37 361.24 325.18 367.84 C 327.67 368.80 327.25 372.82 324.25 371.84 C 321.07 367.44 315.36 361.64 318.50 356.29 C 316.87 352.98 316.97 350.32 319.75 348.08 C 316.42 343.31 316.60 349.73 312.94 349.05 C 314.06 346.75 316.84 341.74 312.12 341.98 C 310.56 345.20 311.42 348.82 312.95 351.88 C 310.41 354.56 308.40 349.05 305.31 349.44 C 304.88 343.35 303.14 336.93 306.26 331.20 C 307.68 329.29 305.56 327.83 304.11 326.90 C 303.50 329.59 302.91 332.31 301.64 334.80 C 298.95 336.18 295.95 331.20 294.46 335.14 C 298.58 340.43 297.61 350.50 303.96 354.78 C 304.01 358.28 305.63 365.17 300.13 361.85 C 295.00 360.83 302.28 350.09 295.64 351.58 C 289.49 353.59 294.29 343.94 290.05 341.89 C 286.12 338.96 294.40 337.44 292.45 334.63 C 291.80 332.06 288.59 333.75 286.68 333.34 C 282.00 333.22 287.07 341.50 283.06 341.85 C 276.82 341.36 274.77 333.96 274.69 328.83 C 271.62 329.46 271.36 334.32 268.00 334.05 C 264.48 334.30 263.78 330.22 261.87 328.15 C 259.08 329.22 256.90 336.44 253.30 332.71 C 251.92 329.78 243.69 329.97 247.38 326.39 C 251.27 323.81 244.91 322.90 242.66 322.65 C 239.39 323.75 240.21 315.94 237.28 318.99 C 237.90 320.75 240.90 324.89 237.03 324.02 C 232.59 324.64 237.93 316.68 233.00 315.95 C 229.51 317.17 230.20 321.39 231.71 324.00 C 230.21 327.59 227.77 330.85 227.82 334.97 C 225.40 330.60 219.96 334.33 217.88 330.12 C 220.92 329.25 228.08 330.04 225.27 324.70 C 220.43 320.27 235.75 320.16 223.47 319.43 C 219.24 319.72 227.19 312.83 222.64 314.57 C 216.69 314.93 220.00 320.12 223.10 322.18 C 220.21 326.42 208.22 331.18 206.03 325.18 C 212.02 322.45 204.91 317.92 201.90 321.79 C 201.24 320.37 199.46 318.50 201.09 317.13 C 205.25 312.49 203.61 305.51 206.17 300.13 C 212.58 287.66 219.86 275.60 228.84 264.77 Z" />
</g>
<g id="#958786ff">
<path fill="#958786" opacity="1.00" d=" M 400.93 242.02 C 402.34 241.67 403.80 242.48 404.01 243.98 C 402.55 244.40 401.25 243.42 400.93 242.02 Z" />
</g>
<g id="#9a8e8cff">
<path fill="#9a8e8c" opacity="1.00" d=" M 404.01 243.98 C 405.50 243.56 406.83 244.67 406.90 246.18 C 405.49 246.29 404.18 245.43 404.01 243.98 Z" />
</g>
<g id="#9b8f8dff">
<path fill="#9b8f8d" opacity="1.00" d=" M 410.98 249.06 C 412.91 248.78 414.43 250.13 414.93 251.92 C 412.98 252.20 411.54 250.78 410.98 249.06 Z" />
</g>
<g id="#948782ff">
<path fill="#948782" opacity="1.00" d=" M 414.93 251.92 C 417.26 252.46 418.84 254.16 419.89 256.23 C 417.81 255.34 416.19 253.76 414.93 251.92 Z" />
</g>
<g id="#8a7e79ff">
<path fill="#8a7e79" opacity="1.00" d=" M 421.00 256.93 C 426.29 259.27 430.17 264.22 432.96 269.13 C 428.64 265.40 424.67 261.28 421.00 256.93 Z" />
</g>
<g id="#a8aec5ff">
<path fill="#a8aec5" opacity="1.00" d=" M 73.28 258.72 C 74.96 273.12 73.75 287.80 73.67 302.29 C 71.67 289.10 73.91 275.57 72.73 262.28 C 72.87 261.39 73.14 259.61 73.28 258.72 Z" />
</g>
<g id="#dcd8d9ff">
<path fill="#dcd8d9" opacity="1.00" d=" M 212.41 280.92 C 219.09 279.96 221.46 267.83 228.84 264.77 C 219.86 275.60 212.58 287.66 206.17 300.13 C 203.61 305.51 205.25 312.49 201.09 317.13 C 199.46 318.50 201.24 320.37 201.90 321.79 C 204.91 317.92 212.02 322.45 206.03 325.18 C 208.22 331.18 220.21 326.42 223.10 322.18 C 220.00 320.12 216.69 314.93 222.64 314.57 C 227.19 312.83 219.24 319.72 223.47 319.43 C 235.75 320.16 220.43 320.27 225.27 324.70 C 228.08 330.04 220.92 329.25 217.88 330.12 C 219.96 334.33 225.40 330.60 227.82 334.97 C 227.77 330.85 230.21 327.59 231.71 324.00 C 230.20 321.39 229.51 317.17 233.00 315.95 C 237.93 316.68 232.59 324.64 237.03 324.02 C 240.90 324.89 237.90 320.75 237.28 318.99 C 240.21 315.94 239.39 323.75 242.66 322.65 C 244.91 322.90 251.27 323.81 247.38 326.39 C 243.69 329.97 251.92 329.78 253.30 332.71 C 256.90 336.44 259.08 329.22 261.87 328.15 C 263.78 330.22 264.48 334.30 268.00 334.05 C 271.36 334.32 271.62 329.46 274.69 328.83 C 274.77 333.96 276.82 341.36 283.06 341.85 C 287.07 341.50 282.00 333.22 286.68 333.34 C 288.59 333.75 291.80 332.06 292.45 334.63 C 294.40 337.44 286.12 338.96 290.05 341.89 C 294.29 343.94 289.49 353.59 295.64 351.58 C 302.28 350.09 295.00 360.83 300.13 361.85 C 305.63 365.17 304.01 358.28 303.96 354.78 C 297.61 350.50 298.58 340.43 294.46 335.14 C 295.95 331.20 298.95 336.18 301.64 334.80 C 302.91 332.31 303.50 329.59 304.11 326.90 C 305.56 327.83 307.68 329.29 306.26 331.20 C 303.14 336.93 304.88 343.35 305.31 349.44 C 308.40 349.05 310.41 354.56 312.95 351.88 C 311.42 348.82 310.56 345.20 312.12 341.98 C 316.84 341.74 314.06 346.75 312.94 349.05 C 316.60 349.73 316.42 343.31 319.75 348.08 C 316.97 350.32 316.87 352.98 318.50 356.29 C 315.36 361.64 321.07 367.44 324.25 371.84 C 327.25 372.82 327.67 368.80 325.18 367.84 C 318.37 361.24 323.50 351.19 322.10 342.97 C 327.36 342.86 328.31 347.62 329.08 352.03 C 331.87 351.43 331.62 346.93 334.55 345.55 C 338.82 343.56 330.68 335.32 339.65 339.29 C 342.94 340.66 337.99 344.28 339.27 346.78 C 340.49 349.49 340.86 352.42 341.82 355.23 C 346.36 359.66 342.78 346.70 344.24 345.62 C 344.07 350.61 349.78 352.26 353.03 348.91 C 352.50 351.49 351.95 354.16 350.33 356.30 C 345.06 362.24 348.56 369.24 352.37 374.86 C 353.52 372.64 355.62 371.83 358.00 371.62 C 357.94 366.88 348.47 368.81 352.25 362.41 C 355.51 357.55 366.57 350.65 369.18 358.74 C 374.43 356.45 375.45 362.88 378.20 365.66 C 384.47 362.68 383.68 375.04 390.33 371.25 C 394.86 370.44 397.22 366.36 400.83 364.03 C 401.59 365.16 404.32 367.02 401.62 367.48 C 398.24 367.93 394.83 373.17 399.00 375.00 C 404.09 377.47 396.87 383.21 398.62 386.35 C 402.73 388.89 404.61 382.82 406.29 380.17 C 408.73 380.27 411.33 380.81 413.82 380.90 C 414.67 377.73 412.27 369.12 417.37 371.59 C 421.53 372.82 419.36 378.25 422.18 380.85 C 424.51 383.15 418.78 384.10 420.08 386.77 C 423.67 390.76 429.98 386.12 433.23 390.79 C 435.40 394.31 441.42 386.24 439.93 392.90 C 436.34 395.45 427.87 403.19 433.28 407.82 C 437.81 409.30 435.79 402.57 438.73 400.86 C 439.61 402.52 440.27 404.29 441.23 405.92 C 446.73 407.30 443.33 399.12 445.07 395.82 C 448.56 398.11 446.22 405.06 451.74 405.04 C 452.86 402.24 455.50 396.33 458.90 400.22 C 460.16 409.34 453.49 416.65 452.24 425.31 C 448.27 432.68 444.05 440.28 437.98 446.14 C 438.33 441.19 443.98 438.80 444.07 433.95 C 437.32 436.00 432.64 443.52 426.87 448.02 C 424.35 446.99 420.47 444.15 419.28 448.32 C 416.44 453.13 416.70 444.30 418.73 442.74 C 422.42 438.16 414.41 436.83 411.10 436.95 C 410.92 441.30 411.17 445.70 410.89 450.07 C 407.03 448.86 401.75 442.04 406.30 438.27 C 411.67 424.40 396.89 443.78 399.54 431.46 C 398.05 426.70 392.97 429.80 389.91 427.21 C 389.25 428.79 388.96 430.48 388.56 432.15 C 387.10 428.56 384.66 425.37 380.33 426.48 C 377.93 423.62 374.86 422.59 371.28 423.89 C 371.03 421.78 371.20 418.84 368.26 420.22 C 363.89 421.99 373.79 426.12 367.95 426.84 C 359.90 428.48 354.94 423.95 355.01 415.99 C 351.77 420.65 348.29 417.64 346.92 413.26 C 348.60 411.91 352.11 411.94 352.11 409.28 C 347.13 408.87 343.39 409.21 342.82 415.05 C 337.42 415.19 335.27 408.93 330.43 407.41 C 326.77 403.88 321.81 406.20 317.41 405.65 C 314.88 401.96 310.58 399.52 306.08 400.83 C 302.59 401.59 302.98 393.70 300.14 397.21 C 300.29 399.49 300.89 401.72 301.01 404.02 C 298.17 404.82 297.88 402.50 297.58 400.29 C 295.00 397.77 291.94 400.34 289.15 400.97 C 287.98 399.26 287.39 397.27 286.60 395.39 C 280.55 396.93 273.52 390.92 269.10 397.22 C 268.89 392.73 267.91 385.50 263.76 391.56 C 261.29 389.32 259.25 391.50 257.10 393.01 C 255.31 390.98 255.18 388.40 255.78 385.89 C 253.34 386.11 254.04 389.33 253.00 390.98 C 249.65 387.14 244.72 387.81 240.20 389.20 C 239.66 392.04 239.29 394.97 238.86 397.84 C 235.69 394.16 227.20 396.10 227.98 389.90 C 231.41 390.38 239.91 397.49 236.83 389.73 C 239.88 385.13 231.93 384.50 229.28 387.29 C 225.86 391.30 222.00 385.55 218.20 385.02 C 214.95 389.04 209.06 388.31 204.40 388.72 C 202.85 386.50 198.85 382.75 196.60 386.06 C 194.14 377.81 193.93 369.15 192.31 360.74 C 190.42 332.97 196.97 304.25 212.41 280.92 Z" />
</g>
<g id="#8c9ebeff">
<path fill="#8c9ebe" opacity="1.00" d=" M 164.37 270.70 C 165.78 280.15 164.79 289.77 164.71 299.29 C 163.06 289.87 164.25 280.19 164.37 270.70 Z" />
</g>
<g id="#8c827fff">
<path fill="#8c827f" opacity="1.00" d=" M 434.76 271.15 C 440.51 274.10 441.90 282.12 448.14 284.07 C 450.61 286.49 451.69 291.37 455.81 291.29 C 456.67 290.30 457.41 289.22 458.17 288.15 C 461.10 284.57 462.90 284.79 462.03 289.80 C 456.38 289.93 457.22 296.81 452.88 298.50 C 450.72 294.60 448.56 290.68 446.22 286.89 C 442.55 281.54 438.19 276.67 434.76 271.15 Z" />
</g>
<g id="#c4c8d8ff">
<path fill="#c4c8d8" opacity="1.00" d=" M 105.81 289.79 C 107.57 282.98 112.90 291.43 114.19 294.87 C 118.61 294.43 125.88 292.71 125.21 299.72 C 129.81 295.64 131.82 300.45 130.08 304.78 C 134.39 307.50 135.06 303.80 134.14 300.20 C 138.99 297.09 141.24 303.21 144.24 305.89 C 147.59 305.83 153.88 301.20 153.95 307.08 C 154.43 311.85 157.30 305.06 159.80 305.96 C 160.48 311.00 160.82 316.09 161.19 321.17 C 162.49 320.45 163.70 319.61 164.95 318.82 C 165.20 334.11 164.62 349.41 165.32 364.70 C 165.24 379.20 164.05 393.87 165.71 408.29 C 166.48 419.83 165.73 431.43 166.02 443.00 C 166.05 448.29 166.02 453.58 165.91 458.88 C 160.49 460.62 151.62 455.66 148.30 461.82 C 147.97 460.76 147.61 459.72 147.21 458.70 C 143.31 457.46 139.00 458.86 134.96 458.06 L 134.12 457.92 C 129.79 456.68 125.35 457.45 120.95 457.07 C 116.66 456.18 111.99 455.92 111.57 460.99 C 111.03 459.63 110.56 458.25 109.96 456.93 C 107.20 454.56 102.00 456.79 98.26 456.84 C 95.56 456.19 92.87 455.65 90.19 454.92 C 87.10 453.95 82.79 453.06 84.82 448.03 C 82.84 411.04 85.54 373.97 84.18 337.03 C 86.31 326.88 81.32 314.35 88.53 306.00 C 85.92 299.69 93.81 298.38 97.52 295.55 C 98.89 291.95 102.62 291.12 105.81 289.79 M 149.15 326.05 C 146.84 329.49 147.88 334.23 145.99 338.00 C 142.86 346.69 149.05 341.91 151.98 340.90 C 153.36 345.07 151.22 347.94 148.01 349.91 C 143.38 347.84 139.12 345.02 133.77 345.79 C 135.13 343.25 140.21 342.87 138.59 339.34 C 137.10 336.98 140.45 337.17 140.03 334.91 C 135.39 336.01 132.00 342.28 126.96 340.22 C 127.22 341.87 129.39 345.92 127.00 346.00 C 118.82 342.45 110.48 341.44 101.27 343.29 C 95.54 346.52 101.90 354.39 96.06 357.11 C 94.02 359.84 90.87 352.74 89.23 356.24 C 88.47 361.18 89.70 366.56 87.11 371.09 C 83.96 377.43 91.43 383.76 87.18 389.13 C 85.39 400.42 87.02 411.88 85.77 423.09 C 87.61 427.98 81.67 439.44 89.98 440.24 C 87.16 442.92 85.02 446.99 87.29 450.72 C 99.70 454.40 112.89 451.28 125.59 453.46 C 133.74 457.16 143.52 454.14 151.72 457.48 C 154.48 454.13 162.27 458.55 162.00 453.01 C 160.69 446.06 164.33 438.76 161.86 432.10 C 160.38 417.28 162.57 400.78 157.53 386.29 C 164.19 369.00 155.07 350.17 158.15 332.23 C 155.39 333.43 152.38 332.45 150.02 330.83 C 149.93 329.21 151.72 326.42 149.15 326.05 Z" />
</g>
<g id="#dfdbdbff">
<path fill="#dfdbdb" opacity="1.00" d=" M 174.23 291.20 C 179.44 284.76 188.29 289.12 195.05 288.00 C 204.04 284.93 197.82 292.18 195.74 294.57 C 191.97 293.00 185.40 291.71 186.99 297.88 C 189.87 297.66 196.20 296.19 195.01 301.00 C 191.80 313.15 188.39 325.41 186.85 337.88 C 184.61 342.10 190.56 345.37 187.83 349.96 C 188.03 356.53 186.90 366.60 190.17 370.97 C 196.63 410.13 219.20 446.45 251.79 469.18 C 252.93 470.72 258.34 471.85 257.57 470.36 C 228.43 450.19 205.68 420.57 196.60 386.06 C 198.85 382.75 202.85 386.50 204.40 388.72 C 209.06 388.31 214.95 389.04 218.20 385.02 C 222.00 385.55 225.86 391.30 229.28 387.29 C 231.93 384.50 239.88 385.13 236.83 389.73 C 239.91 397.49 231.41 390.38 227.98 389.90 C 227.20 396.10 235.69 394.16 238.86 397.84 C 239.29 394.97 239.66 392.04 240.20 389.20 C 244.72 387.81 249.65 387.14 253.00 390.98 C 254.04 389.33 253.34 386.11 255.78 385.89 C 255.18 388.40 255.31 390.98 257.10 393.01 C 259.25 391.50 261.29 389.32 263.76 391.56 C 267.91 385.50 268.89 392.73 269.10 397.22 C 273.52 390.92 280.55 396.93 286.60 395.39 C 287.39 397.27 287.98 399.26 289.15 400.97 C 291.94 400.34 295.00 397.77 297.58 400.29 C 297.88 402.50 298.17 404.82 301.01 404.02 C 300.89 401.72 300.29 399.49 300.14 397.21 C 302.98 393.70 302.59 401.59 306.08 400.83 C 310.58 399.52 314.88 401.96 317.41 405.65 C 321.81 406.20 326.77 403.88 330.43 407.41 C 335.27 408.93 337.42 415.19 342.82 415.05 C 343.39 409.21 347.13 408.87 352.11 409.28 C 352.11 411.94 348.60 411.91 346.92 413.26 C 348.29 417.64 351.77 420.65 355.01 415.99 C 354.94 423.95 359.90 428.48 367.95 426.84 C 373.79 426.12 363.89 421.99 368.26 420.22 C 371.20 418.84 371.03 421.78 371.28 423.89 C 374.86 422.59 377.93 423.62 380.33 426.48 C 384.66 425.37 387.10 428.56 388.56 432.15 C 388.96 430.48 389.25 428.79 389.91 427.21 C 392.97 429.80 398.05 426.70 399.54 431.46 C 396.89 443.78 411.67 424.40 406.30 438.27 C 401.75 442.04 407.03 448.86 410.89 450.07 C 411.17 445.70 410.92 441.30 411.10 436.95 C 414.41 436.83 422.42 438.16 418.73 442.74 C 416.70 444.30 416.44 453.13 419.28 448.32 C 420.47 444.15 424.35 446.99 426.87 448.02 C 432.64 443.52 437.32 436.00 444.07 433.95 C 443.98 438.80 438.33 441.19 437.98 446.14 C 437.37 447.19 436.77 448.25 436.17 449.32 C 433.04 452.40 429.96 455.53 426.90 458.68 C 422.11 462.92 417.16 466.97 411.83 470.51 C 374.23 492.85 325.73 500.37 284.64 482.45 C 275.05 479.91 267.29 472.21 257.11 472.13 C 246.36 477.15 234.38 473.23 223.02 473.88 C 204.69 472.37 186.29 472.03 168.00 469.86 C 167.92 465.82 167.84 461.79 167.75 457.77 C 167.90 452.83 168.06 447.92 168.00 442.99 C 167.98 432.42 168.21 421.85 167.69 411.29 C 168.38 381.19 167.83 351.08 167.99 320.98 C 170.51 311.00 163.72 297.61 174.23 291.20 Z" />
</g>
<g id="#a49d9cff">
<path fill="#a49d9c" opacity="1.00" d=" M 452.88 298.50 C 457.22 296.81 456.38 289.93 462.03 289.80 C 462.06 292.07 462.27 294.71 460.12 296.13 C 457.69 297.98 457.95 303.87 453.94 301.14 C 453.58 300.26 453.22 299.38 452.88 298.50 Z" />
</g>
<g id="#c9c5c5ff">
<path fill="#c9c5c5" opacity="1.00" d=" M 463.18 305.11 C 458.56 308.87 463.02 294.38 466.05 298.88 C 468.18 303.88 467.70 312.54 473.66 314.76 C 477.23 310.33 483.49 307.13 481.07 300.04 C 482.58 305.13 482.87 313.56 483.06 320.02 C 483.02 324.27 482.88 328.56 481.81 332.71 C 479.76 334.87 475.49 334.51 475.10 338.12 C 473.47 349.11 475.51 360.89 471.32 371.39 C 471.49 355.87 469.72 340.03 462.98 325.89 C 462.60 324.59 462.26 323.28 461.96 321.97 C 463.21 323.40 464.78 324.52 466.54 325.27 C 466.45 320.64 465.94 316.02 465.75 311.40 C 458.81 314.54 468.27 301.98 463.18 305.11 Z" />
</g>
<g id="#8d807fff">
<path fill="#8d807f" opacity="1.00" d=" M 196.18 308.05 C 195.53 306.11 196.31 304.23 197.77 302.93 C 198.49 304.86 197.71 306.79 196.18 308.05 Z" />
</g>
<g id="#a5adc4ff">
<path fill="#a5adc4" opacity="1.00" d=" M 78.33 303.77 C 80.27 350.56 79.17 397.36 80.63 444.18 C 82.25 447.01 78.46 454.32 83.71 454.33 C 84.09 454.46 84.83 454.73 85.20 454.86 C 82.59 454.71 79.67 455.45 77.76 453.35 C 77.99 404.31 75.46 355.31 76.13 306.24 C 76.87 305.42 77.61 304.60 78.33 303.77 Z" />
</g>
<g id="#dedadbff">
<path fill="#dedadb" opacity="1.00" d=" M 64.23 316.92 C 69.75 322.40 67.98 311.94 70.72 308.64 C 70.19 317.12 73.27 325.18 71.81 333.44 C 74.17 337.81 66.79 340.20 68.18 344.73 C 69.31 347.48 72.20 344.56 74.01 344.00 C 74.17 350.07 73.46 356.28 74.66 362.30 C 74.95 367.76 75.05 373.23 75.34 378.70 C 75.18 394.86 74.11 411.20 75.70 427.29 C 76.08 431.75 76.09 436.22 76.35 440.71 C 75.99 448.47 75.94 456.25 76.01 464.03 C 60.39 462.56 44.05 463.42 29.14 457.87 C 23.19 452.03 21.55 443.01 21.97 435.01 C 22.80 397.52 19.48 360.15 20.33 322.70 C 22.48 329.60 23.59 336.73 23.13 343.99 C 23.79 345.12 22.24 351.84 25.84 351.01 C 27.71 344.69 32.28 339.26 32.49 332.47 C 36.45 328.72 40.39 324.96 44.33 321.20 C 47.18 321.58 44.06 327.40 47.15 326.95 C 52.22 327.41 45.28 318.55 49.86 316.92 C 52.90 319.03 48.14 326.96 52.88 325.95 C 53.07 323.20 53.17 320.45 53.21 317.71 C 55.36 318.54 55.80 321.09 57.22 322.69 C 59.33 322.29 61.38 321.98 61.44 324.79 C 64.98 325.19 64.71 319.46 64.23 316.92 Z" />
</g>
<g id="#aab0c7ff">
<path fill="#aab0c7" opacity="1.00" d=" M 74.29 316.72 C 76.23 331.74 74.57 347.16 74.66 362.30 C 73.46 356.28 74.17 350.07 74.01 344.00 C 74.02 334.90 73.93 325.80 74.29 316.72 Z" />
</g>
<g id="#8f8381ff">
<path fill="#8f8381" opacity="1.00" d=" M 190.17 370.97 C 188.25 353.59 188.45 335.72 192.74 318.72 C 191.72 332.78 188.50 346.84 190.93 361.02 C 190.12 372.05 192.72 363.61 192.31 360.74 C 193.93 369.15 194.14 377.81 196.60 386.06 C 205.68 420.57 228.43 450.19 257.57 470.36 C 258.34 471.85 252.93 470.72 251.79 469.18 C 219.20 446.45 196.63 410.13 190.17 370.97 Z" />
</g>
<g id="#d0cccdff">
<path fill="#d0cccd" opacity="1.00" d=" M 483.06 320.02 C 486.10 336.26 482.15 355.90 478.00 373.01 C 472.97 383.99 471.52 395.90 471.94 408.00 C 471.51 420.00 476.08 433.13 469.05 444.03 C 465.64 449.16 463.91 455.45 459.92 460.09 C 457.54 444.81 458.50 429.59 459.90 414.31 C 459.45 414.18 458.55 413.93 458.09 413.81 C 460.40 408.11 461.63 402.03 464.40 396.52 C 472.51 373.63 466.71 349.10 462.98 325.89 C 469.72 340.03 471.49 355.87 471.32 371.39 C 475.51 360.89 473.47 349.11 475.10 338.12 C 475.49 334.51 479.76 334.87 481.81 332.71 C 482.88 328.56 483.02 324.27 483.06 320.02 Z" />
</g>
<g id="#a0b0ccff">
<path fill="#a0b0cc" opacity="1.00" d=" M 167.00 321.01 L 167.99 320.98 C 167.83 351.08 168.38 381.19 167.69 411.29 C 165.92 381.34 167.57 351.07 167.00 321.01 Z" />
</g>
<g id="#c9cbdaff">
<path fill="#c9cbda" opacity="1.00" d=" M 149.15 326.05 C 151.72 326.42 149.93 329.21 150.02 330.83 C 152.38 332.45 155.39 333.43 158.15 332.23 C 155.07 350.17 164.19 369.00 157.53 386.29 C 162.57 400.78 160.38 417.28 161.86 432.10 C 164.33 438.76 160.69 446.06 162.00 453.01 C 162.27 458.55 154.48 454.13 151.72 457.48 C 143.52 454.14 133.74 457.16 125.59 453.46 C 112.89 451.28 99.70 454.40 87.29 450.72 C 85.02 446.99 87.16 442.92 89.98 440.24 C 81.67 439.44 87.61 427.98 85.77 423.09 C 87.02 411.88 85.39 400.42 87.18 389.13 C 91.43 383.76 83.96 377.43 87.11 371.09 C 89.70 366.56 88.47 361.18 89.23 356.24 C 90.87 352.74 94.02 359.84 96.06 357.11 C 101.90 354.39 95.54 346.52 101.27 343.29 C 110.48 341.44 118.82 342.45 127.00 346.00 C 129.39 345.92 127.22 341.87 126.96 340.22 C 132.00 342.28 135.39 336.01 140.03 334.91 C 140.45 337.17 137.10 336.98 138.59 339.34 C 140.21 342.87 135.13 343.25 133.77 345.79 C 139.12 345.02 143.38 347.84 148.01 349.91 C 151.22 347.94 153.36 345.07 151.98 340.90 C 149.05 341.91 142.86 346.69 145.99 338.00 C 147.88 334.23 146.84 329.49 149.15 326.05 Z" />
</g>
<g id="#94a6c6ff">
<path fill="#94a6c6" opacity="1.00" d=" M 165.32 364.70 C 166.91 379.13 165.75 393.78 165.71 408.29 C 164.05 393.87 165.24 379.20 165.32 364.70 Z" />
</g>
<g id="#aeb3c8ff">
<path fill="#aeb3c8" opacity="1.00" d=" M 75.34 378.70 C 76.85 394.81 75.81 411.11 75.70 427.29 C 74.11 411.20 75.18 394.86 75.34 378.70 Z" />
</g>
<g id="#c8c0c1ff">
<path fill="#c8c0c1" opacity="1.00" d=" M 458.09 413.81 C 458.55 413.93 459.45 414.18 459.90 414.31 C 458.50 429.59 457.54 444.81 459.92 460.09 C 458.65 463.10 457.17 467.35 453.95 468.99 C 458.56 457.83 439.88 456.29 442.73 444.88 C 440.29 445.94 438.40 447.90 436.17 449.32 C 436.77 448.25 437.37 447.19 437.98 446.14 C 444.05 440.28 448.27 432.68 452.24 425.31 C 454.67 421.75 456.41 417.76 458.09 413.81 Z" />
</g>
<g id="#9fa6bdff">
<path fill="#9fa6bd" opacity="1.00" d=" M 76.35 440.71 C 76.75 444.74 76.96 448.77 77.06 452.84 C 77.03 456.47 76.99 460.17 77.00 463.82 L 76.01 464.03 C 75.94 456.25 75.99 448.47 76.35 440.71 Z" />
</g>
<g id="#546c94ff">
<path fill="#546c94" opacity="1.00" d=" M 166.02 443.00 C 166.52 443.00 167.51 443.00 168.00 442.99 C 168.06 447.92 167.90 452.83 167.75 457.77 C 167.32 461.80 167.10 465.86 166.95 469.94 C 166.53 469.89 165.68 469.80 165.25 469.75 C 161.84 469.24 158.43 468.86 154.98 468.99 C 153.46 468.87 151.78 469.34 150.38 468.60 C 146.80 465.99 142.08 468.47 137.99 468.06 C 135.07 468.05 132.16 468.08 129.26 467.74 C 125.18 467.19 121.08 467.05 116.98 466.94 C 116.30 466.89 114.94 466.78 114.26 466.73 C 110.52 466.25 106.77 466.00 103.01 465.99 C 100.41 466.02 97.83 465.93 95.26 465.74 C 92.16 465.35 89.08 465.02 85.97 464.94 C 82.95 464.79 79.93 464.62 77.00 463.82 C 76.99 460.17 77.03 456.47 77.06 452.84 L 77.76 453.35 C 79.67 455.45 82.59 454.71 85.20 454.86 C 86.86 454.92 88.53 454.90 90.19 454.92 C 92.87 455.65 95.56 456.19 98.26 456.84 C 97.92 458.75 96.02 462.62 99.43 460.61 C 100.44 455.39 105.97 457.23 109.96 456.93 C 110.56 458.25 111.03 459.63 111.57 460.99 C 111.99 455.92 116.66 456.18 120.95 457.07 C 122.80 458.08 122.95 460.16 123.35 462.02 C 125.37 457.65 129.82 457.63 134.12 457.92 L 134.96 458.06 C 135.00 459.75 134.48 465.17 136.82 461.91 C 137.83 457.06 143.62 459.52 147.21 458.70 C 147.61 459.72 147.97 460.76 148.30 461.82 C 151.62 455.66 160.49 460.62 165.91 458.88 C 166.02 453.58 166.05 448.29 166.02 443.00 Z" />
</g>
<g id="#beb5b5ff">
<path fill="#beb5b5" opacity="1.00" d=" M 436.17 449.32 C 438.40 447.90 440.29 445.94 442.73 444.88 C 439.88 456.29 458.56 457.83 453.95 468.99 C 447.00 473.63 433.58 472.71 427.00 471.01 C 430.69 469.07 442.63 474.55 441.86 468.21 C 436.52 465.67 432.88 459.84 426.90 458.68 C 429.96 455.53 433.04 452.40 436.17 449.32 Z" />
</g>
<g id="#7d90b4ff">
<path fill="#7d90b4" opacity="1.00" d=" M 98.26 456.84 C 102.00 456.79 107.20 454.56 109.96 456.93 C 105.97 457.23 100.44 455.39 99.43 460.61 C 96.02 462.62 97.92 458.75 98.26 456.84 Z" />
</g>
<g id="#91a3c3ff">
<path fill="#91a3c3" opacity="1.00" d=" M 120.95 457.07 C 125.35 457.45 129.79 456.68 134.12 457.92 C 129.82 457.63 125.37 457.65 123.35 462.02 C 122.95 460.16 122.80 458.08 120.95 457.07 Z" />
</g>
<g id="#8596b9ff">
<path fill="#8596b9" opacity="1.00" d=" M 134.96 458.06 C 139.00 458.86 143.31 457.46 147.21 458.70 C 143.62 459.52 137.83 457.06 136.82 461.91 C 134.48 465.17 135.00 459.75 134.96 458.06 Z" />
</g>
<g id="#98a4bdff">
<path fill="#98a4bd" opacity="1.00" d=" M 166.95 469.94 C 167.10 465.86 167.32 461.80 167.75 457.77 C 167.84 461.79 167.92 465.82 168.00 469.86 L 166.95 469.94 Z" />
</g>
<g id="#aba1a0ff">
<path fill="#aba1a0" opacity="1.00" d=" M 411.83 470.51 C 417.16 466.97 422.11 462.92 426.90 458.68 C 432.88 459.84 436.52 465.67 441.86 468.21 C 442.63 474.55 430.69 469.07 427.00 471.01 C 421.94 470.76 416.80 471.64 411.83 470.51 Z" />
</g>
<g id="#a4b4caff">
<path fill="#a4b4ca" opacity="1.00" d=" M 85.97 464.94 C 89.08 465.02 92.16 465.35 95.26 465.74 C 92.78 464.95 86.97 467.61 85.97 464.94 Z" />
</g>
<g id="#a4b3c6ff">
<path fill="#a4b3c6" opacity="1.00" d=" M 103.01 465.99 C 106.77 466.00 110.52 466.25 114.26 466.73 C 109.57 467.54 105.82 467.29 103.01 465.99 Z" />
</g>
<g id="#b8c3d7ff">
<path fill="#b8c3d7" opacity="1.00" d=" M 116.98 466.94 C 121.08 467.05 125.18 467.19 129.26 467.74 C 126.33 466.45 118.02 470.48 116.98 466.94 Z" />
</g>
<g id="#99a9bfff">
<path fill="#99a9bf" opacity="1.00" d=" M 137.99 468.06 C 142.08 468.47 146.80 465.99 150.38 468.60 C 147.38 467.65 139.28 471.35 137.99 468.06 Z" />
</g>
<g id="#9db1c6ff">
<path fill="#9db1c6" opacity="1.00" d=" M 154.98 468.99 C 158.43 468.86 161.84 469.24 165.25 469.75 C 162.66 468.76 156.32 471.66 154.98 468.99 Z" />
</g>
</svg>
